<mxfile host="app.diagrams.net" modified="2020-05-07T18:36:59.315Z" agent="5.0 (Windows NT 10.0; Win64; x64) AppleWebKit/537.36 (KHTML, like Gecko) Chrome/81.0.4044.129 Safari/537.36" etag="6-Y0uvJZkTTQfg-8Hb42" version="13.0.8" type="github">
  <diagram id="6LKdRcVueAKRBPrYHhJk" name="Page-1">
    <mxGraphModel dx="782" dy="469" grid="1" gridSize="10" guides="1" tooltips="1" connect="1" arrows="1" fold="1" page="1" pageScale="1" pageWidth="850" pageHeight="1100" background="#FFFFFF" math="0" shadow="0">
      <root>
        <mxCell id="0" />
        <mxCell id="1" parent="0" />
        <mxCell id="66uHyciYdJMsds9IyZAx-72" value="" style="rounded=0;whiteSpace=wrap;html=1;fontSize=11;" vertex="1" parent="1">
          <mxGeometry y="40" width="560" height="390" as="geometry" />
        </mxCell>
        <mxCell id="66uHyciYdJMsds9IyZAx-71" value="" style="rounded=0;whiteSpace=wrap;html=1;fontSize=11;labelBackgroundColor=#ABABAB;gradientColor=none;fontColor=#000000;" vertex="1" parent="1">
          <mxGeometry x="70" y="80" width="450" height="330" as="geometry" />
        </mxCell>
        <mxCell id="66uHyciYdJMsds9IyZAx-69" style="edgeStyle=orthogonalEdgeStyle;rounded=0;orthogonalLoop=1;jettySize=auto;html=1;fontSize=11;" edge="1" parent="1" source="aeQlH4hGAaqMEiJJV8NS-3">
          <mxGeometry relative="1" as="geometry">
            <mxPoint x="40" y="360" as="targetPoint" />
          </mxGeometry>
        </mxCell>
        <mxCell id="aeQlH4hGAaqMEiJJV8NS-3" value="Portal&lt;br&gt;Admin" style="text;html=1;strokeColor=none;fillColor=none;align=center;verticalAlign=middle;whiteSpace=wrap;rounded=0;" parent="1" vertex="1">
          <mxGeometry x="20" y="213" width="40" height="20" as="geometry" />
        </mxCell>
        <mxCell id="aeQlH4hGAaqMEiJJV8NS-10" value="Azure" style="text;html=1;strokeColor=none;fillColor=none;align=center;verticalAlign=middle;whiteSpace=wrap;rounded=0;" parent="1" vertex="1">
          <mxGeometry x="80" y="80" width="40" height="20" as="geometry" />
        </mxCell>
        <mxCell id="aeQlH4hGAaqMEiJJV8NS-17" value="" style="endArrow=classic;html=1;" parent="1" edge="1">
          <mxGeometry width="50" height="50" relative="1" as="geometry">
            <mxPoint x="160" y="200" as="sourcePoint" />
            <mxPoint x="200" y="200" as="targetPoint" />
          </mxGeometry>
        </mxCell>
        <mxCell id="aeQlH4hGAaqMEiJJV8NS-19" value="" style="endArrow=classic;html=1;" parent="1" edge="1">
          <mxGeometry width="50" height="50" relative="1" as="geometry">
            <mxPoint x="200" y="200" as="sourcePoint" />
            <mxPoint x="270" y="200" as="targetPoint" />
          </mxGeometry>
        </mxCell>
        <mxCell id="aeQlH4hGAaqMEiJJV8NS-21" value="" style="endArrow=none;html=1;" parent="1" edge="1">
          <mxGeometry width="50" height="50" relative="1" as="geometry">
            <mxPoint x="200" y="200" as="sourcePoint" />
            <mxPoint x="200" y="120" as="targetPoint" />
          </mxGeometry>
        </mxCell>
        <mxCell id="aeQlH4hGAaqMEiJJV8NS-22" value="" style="endArrow=none;html=1;" parent="1" edge="1">
          <mxGeometry width="50" height="50" relative="1" as="geometry">
            <mxPoint x="200" y="280" as="sourcePoint" />
            <mxPoint x="200" y="200" as="targetPoint" />
          </mxGeometry>
        </mxCell>
        <mxCell id="aeQlH4hGAaqMEiJJV8NS-23" value="" style="endArrow=classic;html=1;" parent="1" edge="1">
          <mxGeometry width="50" height="50" relative="1" as="geometry">
            <mxPoint x="200" y="280" as="sourcePoint" />
            <mxPoint x="270" y="280" as="targetPoint" />
          </mxGeometry>
        </mxCell>
        <mxCell id="aeQlH4hGAaqMEiJJV8NS-24" value="" style="endArrow=classic;html=1;" parent="1" edge="1">
          <mxGeometry width="50" height="50" relative="1" as="geometry">
            <mxPoint x="200" y="120" as="sourcePoint" />
            <mxPoint x="270" y="120" as="targetPoint" />
          </mxGeometry>
        </mxCell>
        <mxCell id="66uHyciYdJMsds9IyZAx-28" style="edgeStyle=orthogonalEdgeStyle;rounded=0;orthogonalLoop=1;jettySize=auto;html=1;entryX=0;entryY=0.5;entryDx=0;entryDy=0;fontSize=11;" edge="1" parent="1" source="aeQlH4hGAaqMEiJJV8NS-25">
          <mxGeometry relative="1" as="geometry">
            <mxPoint x="360" y="120" as="targetPoint" />
          </mxGeometry>
        </mxCell>
        <mxCell id="aeQlH4hGAaqMEiJJV8NS-25" value="" style="shape=image;verticalLabelPosition=bottom;verticalAlign=top;imageAspect=0;aspect=fixed;image=data:image/png,iVBORw0KGgoAAAANSUhEUgAAAIQAAACWCAMAAAAohNAFAAAABGdBTUEAALGPC/xhBQAAAAFzUkdCAK7OHOkAAAAJcEhZcwAADsMAAA7DAcdvqGQAAAMAUExURUdwTEa77Ua77kXA8Ua77Ua77QCr63TO80W77ji47SKu6wCr7AD//0Lc9ELA/13H8xav7wBN/yuy4CW36Ue64US/9AOr6yOz7gyu7Ge+5BOu7WTJ8wes62/L8gar6yex7WfJ8h2w7Ei87hau63HN82LJ81LB8Aes6y+37i+17xyz7Bew7S636hSu7Aas60/C8zC37ges7BCu7FHA73nU9Cm17g6u7B6x7Ciz7GDH8iK07lnF8Da77xuy7Rav7FbC7yi17iy07ie07VDC8Ee97ia07hCu7A+u7BSv7BWv7Ais7CWv7COy7FfC8hiv6zS27Qus60S+72/L8Ca07lTC7iSx7T257lXD8Tu67j+67yGy7H3T92DG7w+t7FvF8Uy+8DC47hiy7FDC7wWr6yi17WfJ8iy17Sq27VnC7xev62nK8jy770m97w2s60G87ii07hCs60a77UG77xSw7CSx6i+27TG27UO77gAAADi47XvR9DK57j277jW67hGw7SGz7A2t7CCz7Qmr627L8ky+7gis6yaz7RKu6y237ja47SCw7E/B7Sm07UC87gms7Bev7DG37g6v7Ca17ljE/2nL8iy37UC77mrL8hKw7S637VfD8Ams6xiw6yWy7UC57Sqy7BCt60vA8FTC8FS87EO87xSu6zW67nfP8zW37Ua972TK8hyx7Ea97kC87kq+7haw7V7F8SCw7Aeq6zG27Rmv6xGs6yi07h6x7TK27Riv7GDI8kW971TD8GLI8VPA8GfK8h2y7F/H8nHN8Ee+70q/8EK97jq870e87lC97E2/7hyy7XLN8i627UC67xSv7VLC7zG37T+97yW17WHF71XD8FXA7ySz7Ea98FLB70W97wCr7Bmy7Rmu6wmt7Aas7ASs7DK37RCv7AGr7CCz7QKr7D+67mfK8get7Auu7QKr7Du57jS57yu37hSv7QSr7Ais7Bax7SKz7US+8Ca07hmz7Ruw7CCy7Ti67j698Byz7Sq17Uq+71bD8E/D8Syz7R+07bhWU4gAAADadFJOUwBXpyXPnK5afPzl6AECBQoWAQcKBBf+D/4JIRb6NfIcHld85K0pO+/JDBL3Jpr9I+b27n0XnfZ3KlPpnSnni0zGI0bmkqzV/c3S3+XfID1DqsovaR1M2bT8ujYiSq/j4vL8xL36i4r0WmKR5K7DXo91wLPeMe/Q4wFXey3N4fZS6b/XWGTRlaWpSuI5VnHoqYP94w3O+565+3Vf5YbxO+Vr84ob8eDv3mSF8fvP2r1lpXyzocaOftnWsLGw39ysar1lJO54qvWZRp3yv7CDu6T8+dpz6Xe8WnX6T7MlhgAABnhJREFUeNrtm3dUFEccxycaE5Mcd3A0aQoIIlIexYIFFaQoKnbBFrtGo3mxJ/ZeXuwVS3rvvffee19yt7rZeDwpBxjFmgS9XWB2Z3f2jr0Z8t5+/9sp+z4M8/vNb+f3OwDG/15XflyLxoyra/JUXle7PRbopPFpjEaNLbrshBpsmVk6QRRrZWCuDTBHpcJN4aH6QJzWDlE/OioZbsuM0AXirFsQ4ADc9vf1ukD84R7EDXBbqQFhQBgQBoQBQRWirPyUoAs8NYjrTKKuOaEZovWSj+/SFaKhww2IVixbmhtjoQ3BMKxjytwA2hBXwr2Xb6EPwfCrs+lDMIzzwyz6EAxXUGSiDlG/Q/v704dgHFut9CEYtnMLgGD4XfH0IRj2JT/6EExQ53j6EIzjTSt9CKYyuAVAMGkZLQCCWxVJFGJmCYegcG4jCgE2DucRFKf9iEIA/6WI/wg3jywEAN8WyCnWdyAMAULbyyD4py2EIcA0h4zCFkEawrpVTnEraQgQ0llmqXuWk4YA4ILsCHmcPMRtNqmVpkQShwC5Uqd1NpE8RKcEqZUuJA8B3pIuxT93kIcIq5DMqupJHiJglvQQWUAeAmxYLdkU8ylAgNck06bTgPhSsjWnTqQAAWokh9gYGhBRkqUYYKEAcU81POYyDYhO5+Ex52hA+EyCT/Tj8XpDFGtIxM2D/VWNZogzJ12KwUBMPAlpP2qpY+AIy6kZYqysAw2hRcvD4Yk3a4Swd9IRAtztGcRZq2cQo5HvfEjiKDRCsM/LOu5sJ4FYKp98OAUZ0z/hbsgt7ImS98WzeMiNLsVJQ+fwjkLPYHHZjpSg09Qr4InJ9RMH35uybPJnZrOfGgTfLcT1vDsIn35Z6RpqTuLR+Q5fHj2vqqZuVM+uKn7ihPjd+D2WoWKka+Qhu0LSxbdScS5bnfeOirOaIQTnibiqjrQVroEd4pQyP4GqpQhBM7KHKnpMMS4ujFNlSC10DRv6A6cIgSnKcO7NUIJIEFNIb/MqL+BFgyu0KebAAiswi8nF7TejIfhjPoKBrFOmYPsLTrhfvnIiLqwcu68cufHoA8whHhxdNilOXt9FGDNQJRvY9RzewthBCqfokDCh8fNkpT/gOWGxdtvVUpK38xryrPODkRC2HWJrDwdynu0VIaMSfJ5pNgQ33YyMJ2YHCq2xB5DGlSTk+/yHcGoQYZ9oSjkHDbKiINgeDSdHd8Ss2WLvi6xqhhhrHaIpvB6Piqycc8UXLXbKr6vF8z4jTj1NHai1boodiwzvJjVG7naplxI/IEYewOTKVdy2VIfUY8zRr0rGPyX2rORwELxmiMxYVQjgXwLt5SX7xDuhPbiqAd+dN0kUV+ZgkRD2NSZVCNC76Q1UnnjKWodz7pcuTJj5wKxHKuwIiqsxnQqEdVfjsqb6iq39eQ/rJybETjtVJfcW49QhAOjV4CmfaVgeRzOKOPzmyC3/aCQGot+/giltFt1KVsfmVZIMq5XujbLfMBBgu+sTYlBDZcT9XDPLWSxbJPEjdywAAwGu3hRXvtvwXNz8mpq+EgMuj8RBPPhk/bG1pvEaUIfCnqGSuOtMBxwECO2Y36PJox7VRV/DR3TVr1gIkDEM6AzxwVr4JZfwELB0qbOaDL/kIhWIR+GX1FKB6Aq/5C8qEMCAMCAMiP8zRMHBNkryUYbIaeOWumEgONaupAWKEJ8m290Si4HwqFq5Fcs0RwaEAWFAGBB4iDMtAaKcPsRF8JiNOsSl+u/TZMoQi67cv8yxUYU4evU3p6b0h20aVLZQESKnnc1TdV8m3nCb0qOj22KlEtTsaOuRoqPTPfpFiHd+eGRAaJW1NaTvYIjqH6He0V6COFjzZ1NJbkPZUqg3ZaR3IIblazd5bkSIl5ZiVLhWBv4Xk9d2xU9a12G4v/e25r692tIX+T9700ASF2lhODHKu2bapURDOutZk5edxRtlWIheEd72WJavcId1aR/v+02fdeqbc20iCe8dkMSpbYgcMifXhqkqHmKVhQwE+Kidoqf8xh+QUpRDAWJTMCCnbmgTKetNMqCJmIKsqTjsRxICBH6B2JRJPoSDu/E7ZRAJPQFphUo/16oXUwh0R8Cbs302BQYQ/B7kv0cAKrLmNfpvLtMCKFG8IFJwA30BLW0U62bb02MAYLMr7+8oAjR135XNyfc1U4Xw2VK/LQYGALrql8BUHgG01ad2m45v+w9AoxSPR9237wAAAABJRU5ErkJggg==" parent="1" vertex="1">
          <mxGeometry x="270" y="100" width="35.2" height="40" as="geometry" />
        </mxCell>
        <mxCell id="66uHyciYdJMsds9IyZAx-29" style="edgeStyle=orthogonalEdgeStyle;rounded=0;orthogonalLoop=1;jettySize=auto;html=1;entryX=0;entryY=0.5;entryDx=0;entryDy=0;fontSize=11;" edge="1" parent="1" source="aeQlH4hGAaqMEiJJV8NS-26">
          <mxGeometry relative="1" as="geometry">
            <mxPoint x="360" y="200" as="targetPoint" />
          </mxGeometry>
        </mxCell>
        <mxCell id="aeQlH4hGAaqMEiJJV8NS-26" value="" style="shape=image;verticalLabelPosition=bottom;verticalAlign=top;imageAspect=0;aspect=fixed;image=data:image/png,iVBORw0KGgoAAAANSUhEUgAAAIQAAACWCAMAAAAohNAFAAAABGdBTUEAALGPC/xhBQAAAAFzUkdCAK7OHOkAAAAJcEhZcwAADsMAAA7DAcdvqGQAAAMAUExURUdwTEa77Ua77kXA8Ua77Ua77QCr63TO80W77ji47SKu6wCr7AD//0Lc9ELA/13H8xav7wBN/yuy4CW36Ue64US/9AOr6yOz7gyu7Ge+5BOu7WTJ8wes62/L8gar6yex7WfJ8h2w7Ei87hau63HN82LJ81LB8Aes6y+37i+17xyz7Bew7S636hSu7Aas60/C8zC37ges7BCu7FHA73nU9Cm17g6u7B6x7Ciz7GDH8iK07lnF8Da77xuy7Rav7FbC7yi17iy07ie07VDC8Ee97ia07hCu7A+u7BSv7BWv7Ais7CWv7COy7FfC8hiv6zS27Qus60S+72/L8Ca07lTC7iSx7T257lXD8Tu67j+67yGy7H3T92DG7w+t7FvF8Uy+8DC47hiy7FDC7wWr6yi17WfJ8iy17Sq27VnC7xev62nK8jy770m97w2s60G87ii07hCs60a77UG77xSw7CSx6i+27TG27UO77gAAADi47XvR9DK57j277jW67hGw7SGz7A2t7CCz7Qmr627L8ky+7gis6yaz7RKu6y237ja47SCw7E/B7Sm07UC87gms7Bev7DG37g6v7Ca17ljE/2nL8iy37UC77mrL8hKw7S637VfD8Ams6xiw6yWy7UC57Sqy7BCt60vA8FTC8FS87EO87xSu6zW67nfP8zW37Ua972TK8hyx7Ea97kC87kq+7haw7V7F8SCw7Aeq6zG27Rmv6xGs6yi07h6x7TK27Riv7GDI8kW971TD8GLI8VPA8GfK8h2y7F/H8nHN8Ee+70q/8EK97jq870e87lC97E2/7hyy7XLN8i627UC67xSv7VLC7zG37T+97yW17WHF71XD8FXA7ySz7Ea98FLB70W97wCr7Bmy7Rmu6wmt7Aas7ASs7DK37RCv7AGr7CCz7QKr7D+67mfK8get7Auu7QKr7Du57jS57yu37hSv7QSr7Ais7Bax7SKz7US+8Ca07hmz7Ruw7CCy7Ti67j698Byz7Sq17Uq+71bD8E/D8Syz7R+07bhWU4gAAADadFJOUwBXpyXPnK5afPzl6AECBQoWAQcKBBf+D/4JIRb6NfIcHld85K0pO+/JDBL3Jpr9I+b27n0XnfZ3KlPpnSnni0zGI0bmkqzV/c3S3+XfID1DqsovaR1M2bT8ujYiSq/j4vL8xL36i4r0WmKR5K7DXo91wLPeMe/Q4wFXey3N4fZS6b/XWGTRlaWpSuI5VnHoqYP94w3O+565+3Vf5YbxO+Vr84ob8eDv3mSF8fvP2r1lpXyzocaOftnWsLGw39ysar1lJO54qvWZRp3yv7CDu6T8+dpz6Xe8WnX6T7MlhgAABnhJREFUeNrtm3dUFEccxycaE5Mcd3A0aQoIIlIexYIFFaQoKnbBFrtGo3mxJ/ZeXuwVS3rvvffee19yt7rZeDwpBxjFmgS9XWB2Z3f2jr0Z8t5+/9sp+z4M8/vNb+f3OwDG/15XflyLxoyra/JUXle7PRbopPFpjEaNLbrshBpsmVk6QRRrZWCuDTBHpcJN4aH6QJzWDlE/OioZbsuM0AXirFsQ4ADc9vf1ukD84R7EDXBbqQFhQBgQBoQBQRWirPyUoAs8NYjrTKKuOaEZovWSj+/SFaKhww2IVixbmhtjoQ3BMKxjytwA2hBXwr2Xb6EPwfCrs+lDMIzzwyz6EAxXUGSiDlG/Q/v704dgHFut9CEYtnMLgGD4XfH0IRj2JT/6EExQ53j6EIzjTSt9CKYyuAVAMGkZLQCCWxVJFGJmCYegcG4jCgE2DucRFKf9iEIA/6WI/wg3jywEAN8WyCnWdyAMAULbyyD4py2EIcA0h4zCFkEawrpVTnEraQgQ0llmqXuWk4YA4ILsCHmcPMRtNqmVpkQShwC5Uqd1NpE8RKcEqZUuJA8B3pIuxT93kIcIq5DMqupJHiJglvQQWUAeAmxYLdkU8ylAgNck06bTgPhSsjWnTqQAAWokh9gYGhBRkqUYYKEAcU81POYyDYhO5+Ex52hA+EyCT/Tj8XpDFGtIxM2D/VWNZogzJ12KwUBMPAlpP2qpY+AIy6kZYqysAw2hRcvD4Yk3a4Swd9IRAtztGcRZq2cQo5HvfEjiKDRCsM/LOu5sJ4FYKp98OAUZ0z/hbsgt7ImS98WzeMiNLsVJQ+fwjkLPYHHZjpSg09Qr4InJ9RMH35uybPJnZrOfGgTfLcT1vDsIn35Z6RpqTuLR+Q5fHj2vqqZuVM+uKn7ihPjd+D2WoWKka+Qhu0LSxbdScS5bnfeOirOaIQTnibiqjrQVroEd4pQyP4GqpQhBM7KHKnpMMS4ujFNlSC10DRv6A6cIgSnKcO7NUIJIEFNIb/MqL+BFgyu0KebAAiswi8nF7TejIfhjPoKBrFOmYPsLTrhfvnIiLqwcu68cufHoA8whHhxdNilOXt9FGDNQJRvY9RzewthBCqfokDCh8fNkpT/gOWGxdtvVUpK38xryrPODkRC2HWJrDwdynu0VIaMSfJ5pNgQ33YyMJ2YHCq2xB5DGlSTk+/yHcGoQYZ9oSjkHDbKiINgeDSdHd8Ss2WLvi6xqhhhrHaIpvB6Piqycc8UXLXbKr6vF8z4jTj1NHai1boodiwzvJjVG7naplxI/IEYewOTKVdy2VIfUY8zRr0rGPyX2rORwELxmiMxYVQjgXwLt5SX7xDuhPbiqAd+dN0kUV+ZgkRD2NSZVCNC76Q1UnnjKWodz7pcuTJj5wKxHKuwIiqsxnQqEdVfjsqb6iq39eQ/rJybETjtVJfcW49QhAOjV4CmfaVgeRzOKOPzmyC3/aCQGot+/giltFt1KVsfmVZIMq5XujbLfMBBgu+sTYlBDZcT9XDPLWSxbJPEjdywAAwGu3hRXvtvwXNz8mpq+EgMuj8RBPPhk/bG1pvEaUIfCnqGSuOtMBxwECO2Y36PJox7VRV/DR3TVr1gIkDEM6AzxwVr4JZfwELB0qbOaDL/kIhWIR+GX1FKB6Aq/5C8qEMCAMCAMiP8zRMHBNkryUYbIaeOWumEgONaupAWKEJ8m290Si4HwqFq5Fcs0RwaEAWFAGBB4iDMtAaKcPsRF8JiNOsSl+u/TZMoQi67cv8yxUYU4evU3p6b0h20aVLZQESKnnc1TdV8m3nCb0qOj22KlEtTsaOuRoqPTPfpFiHd+eGRAaJW1NaTvYIjqH6He0V6COFjzZ1NJbkPZUqg3ZaR3IIblazd5bkSIl5ZiVLhWBv4Xk9d2xU9a12G4v/e25r692tIX+T9700ASF2lhODHKu2bapURDOutZk5edxRtlWIheEd72WJavcId1aR/v+02fdeqbc20iCe8dkMSpbYgcMifXhqkqHmKVhQwE+Kidoqf8xh+QUpRDAWJTMCCnbmgTKetNMqCJmIKsqTjsRxICBH6B2JRJPoSDu/E7ZRAJPQFphUo/16oXUwh0R8Cbs302BQYQ/B7kv0cAKrLmNfpvLtMCKFG8IFJwA30BLW0U62bb02MAYLMr7+8oAjR135XNyfc1U4Xw2VK/LQYGALrql8BUHgG01ad2m45v+w9AoxSPR9237wAAAABJRU5ErkJggg==" parent="1" vertex="1">
          <mxGeometry x="270" y="180" width="35.2" height="40" as="geometry" />
        </mxCell>
        <mxCell id="66uHyciYdJMsds9IyZAx-33" style="edgeStyle=orthogonalEdgeStyle;rounded=0;orthogonalLoop=1;jettySize=auto;html=1;entryX=0;entryY=0.5;entryDx=0;entryDy=0;fontSize=11;" edge="1" parent="1" source="aeQlH4hGAaqMEiJJV8NS-27" target="66uHyciYdJMsds9IyZAx-32">
          <mxGeometry relative="1" as="geometry" />
        </mxCell>
        <mxCell id="aeQlH4hGAaqMEiJJV8NS-27" value="" style="shape=image;verticalLabelPosition=bottom;verticalAlign=top;imageAspect=0;aspect=fixed;image=data:image/png,iVBORw0KGgoAAAANSUhEUgAAAIQAAACWCAMAAAAohNAFAAAABGdBTUEAALGPC/xhBQAAAAFzUkdCAK7OHOkAAAAJcEhZcwAADsMAAA7DAcdvqGQAAAMAUExURUdwTEa77Ua77kXA8Ua77Ua77QCr63TO80W77ji47SKu6wCr7AD//0Lc9ELA/13H8xav7wBN/yuy4CW36Ue64US/9AOr6yOz7gyu7Ge+5BOu7WTJ8wes62/L8gar6yex7WfJ8h2w7Ei87hau63HN82LJ81LB8Aes6y+37i+17xyz7Bew7S636hSu7Aas60/C8zC37ges7BCu7FHA73nU9Cm17g6u7B6x7Ciz7GDH8iK07lnF8Da77xuy7Rav7FbC7yi17iy07ie07VDC8Ee97ia07hCu7A+u7BSv7BWv7Ais7CWv7COy7FfC8hiv6zS27Qus60S+72/L8Ca07lTC7iSx7T257lXD8Tu67j+67yGy7H3T92DG7w+t7FvF8Uy+8DC47hiy7FDC7wWr6yi17WfJ8iy17Sq27VnC7xev62nK8jy770m97w2s60G87ii07hCs60a77UG77xSw7CSx6i+27TG27UO77gAAADi47XvR9DK57j277jW67hGw7SGz7A2t7CCz7Qmr627L8ky+7gis6yaz7RKu6y237ja47SCw7E/B7Sm07UC87gms7Bev7DG37g6v7Ca17ljE/2nL8iy37UC77mrL8hKw7S637VfD8Ams6xiw6yWy7UC57Sqy7BCt60vA8FTC8FS87EO87xSu6zW67nfP8zW37Ua972TK8hyx7Ea97kC87kq+7haw7V7F8SCw7Aeq6zG27Rmv6xGs6yi07h6x7TK27Riv7GDI8kW971TD8GLI8VPA8GfK8h2y7F/H8nHN8Ee+70q/8EK97jq870e87lC97E2/7hyy7XLN8i627UC67xSv7VLC7zG37T+97yW17WHF71XD8FXA7ySz7Ea98FLB70W97wCr7Bmy7Rmu6wmt7Aas7ASs7DK37RCv7AGr7CCz7QKr7D+67mfK8get7Auu7QKr7Du57jS57yu37hSv7QSr7Ais7Bax7SKz7US+8Ca07hmz7Ruw7CCy7Ti67j698Byz7Sq17Uq+71bD8E/D8Syz7R+07bhWU4gAAADadFJOUwBXpyXPnK5afPzl6AECBQoWAQcKBBf+D/4JIRb6NfIcHld85K0pO+/JDBL3Jpr9I+b27n0XnfZ3KlPpnSnni0zGI0bmkqzV/c3S3+XfID1DqsovaR1M2bT8ujYiSq/j4vL8xL36i4r0WmKR5K7DXo91wLPeMe/Q4wFXey3N4fZS6b/XWGTRlaWpSuI5VnHoqYP94w3O+565+3Vf5YbxO+Vr84ob8eDv3mSF8fvP2r1lpXyzocaOftnWsLGw39ysar1lJO54qvWZRp3yv7CDu6T8+dpz6Xe8WnX6T7MlhgAABnhJREFUeNrtm3dUFEccxycaE5Mcd3A0aQoIIlIexYIFFaQoKnbBFrtGo3mxJ/ZeXuwVS3rvvffee19yt7rZeDwpBxjFmgS9XWB2Z3f2jr0Z8t5+/9sp+z4M8/vNb+f3OwDG/15XflyLxoyra/JUXle7PRbopPFpjEaNLbrshBpsmVk6QRRrZWCuDTBHpcJN4aH6QJzWDlE/OioZbsuM0AXirFsQ4ADc9vf1ukD84R7EDXBbqQFhQBgQBoQBQRWirPyUoAs8NYjrTKKuOaEZovWSj+/SFaKhww2IVixbmhtjoQ3BMKxjytwA2hBXwr2Xb6EPwfCrs+lDMIzzwyz6EAxXUGSiDlG/Q/v704dgHFut9CEYtnMLgGD4XfH0IRj2JT/6EExQ53j6EIzjTSt9CKYyuAVAMGkZLQCCWxVJFGJmCYegcG4jCgE2DucRFKf9iEIA/6WI/wg3jywEAN8WyCnWdyAMAULbyyD4py2EIcA0h4zCFkEawrpVTnEraQgQ0llmqXuWk4YA4ILsCHmcPMRtNqmVpkQShwC5Uqd1NpE8RKcEqZUuJA8B3pIuxT93kIcIq5DMqupJHiJglvQQWUAeAmxYLdkU8ylAgNck06bTgPhSsjWnTqQAAWokh9gYGhBRkqUYYKEAcU81POYyDYhO5+Ex52hA+EyCT/Tj8XpDFGtIxM2D/VWNZogzJ12KwUBMPAlpP2qpY+AIy6kZYqysAw2hRcvD4Yk3a4Swd9IRAtztGcRZq2cQo5HvfEjiKDRCsM/LOu5sJ4FYKp98OAUZ0z/hbsgt7ImS98WzeMiNLsVJQ+fwjkLPYHHZjpSg09Qr4InJ9RMH35uybPJnZrOfGgTfLcT1vDsIn35Z6RpqTuLR+Q5fHj2vqqZuVM+uKn7ihPjd+D2WoWKka+Qhu0LSxbdScS5bnfeOirOaIQTnibiqjrQVroEd4pQyP4GqpQhBM7KHKnpMMS4ujFNlSC10DRv6A6cIgSnKcO7NUIJIEFNIb/MqL+BFgyu0KebAAiswi8nF7TejIfhjPoKBrFOmYPsLTrhfvnIiLqwcu68cufHoA8whHhxdNilOXt9FGDNQJRvY9RzewthBCqfokDCh8fNkpT/gOWGxdtvVUpK38xryrPODkRC2HWJrDwdynu0VIaMSfJ5pNgQ33YyMJ2YHCq2xB5DGlSTk+/yHcGoQYZ9oSjkHDbKiINgeDSdHd8Ss2WLvi6xqhhhrHaIpvB6Piqycc8UXLXbKr6vF8z4jTj1NHai1boodiwzvJjVG7naplxI/IEYewOTKVdy2VIfUY8zRr0rGPyX2rORwELxmiMxYVQjgXwLt5SX7xDuhPbiqAd+dN0kUV+ZgkRD2NSZVCNC76Q1UnnjKWodz7pcuTJj5wKxHKuwIiqsxnQqEdVfjsqb6iq39eQ/rJybETjtVJfcW49QhAOjV4CmfaVgeRzOKOPzmyC3/aCQGot+/giltFt1KVsfmVZIMq5XujbLfMBBgu+sTYlBDZcT9XDPLWSxbJPEjdywAAwGu3hRXvtvwXNz8mpq+EgMuj8RBPPhk/bG1pvEaUIfCnqGSuOtMBxwECO2Y36PJox7VRV/DR3TVr1gIkDEM6AzxwVr4JZfwELB0qbOaDL/kIhWIR+GX1FKB6Aq/5C8qEMCAMCAMiP8zRMHBNkryUYbIaeOWumEgONaupAWKEJ8m290Si4HwqFq5Fcs0RwaEAWFAGBB4iDMtAaKcPsRF8JiNOsSl+u/TZMoQi67cv8yxUYU4evU3p6b0h20aVLZQESKnnc1TdV8m3nCb0qOj22KlEtTsaOuRoqPTPfpFiHd+eGRAaJW1NaTvYIjqH6He0V6COFjzZ1NJbkPZUqg3ZaR3IIblazd5bkSIl5ZiVLhWBv4Xk9d2xU9a12G4v/e25r692tIX+T9700ASF2lhODHKu2bapURDOutZk5edxRtlWIheEd72WJavcId1aR/v+02fdeqbc20iCe8dkMSpbYgcMifXhqkqHmKVhQwE+Kidoqf8xh+QUpRDAWJTMCCnbmgTKetNMqCJmIKsqTjsRxICBH6B2JRJPoSDu/E7ZRAJPQFphUo/16oXUwh0R8Cbs302BQYQ/B7kv0cAKrLmNfpvLtMCKFG8IFJwA30BLW0U62bb02MAYLMr7+8oAjR135XNyfc1U4Xw2VK/LQYGALrql8BUHgG01ad2m45v+w9AoxSPR9237wAAAABJRU5ErkJggg==" parent="1" vertex="1">
          <mxGeometry x="270" y="260" width="35.2" height="40" as="geometry" />
        </mxCell>
        <mxCell id="aeQlH4hGAaqMEiJJV8NS-30" value="AboutMe Subscription&lt;br&gt;" style="text;html=1;strokeColor=none;fillColor=none;align=center;verticalAlign=middle;whiteSpace=wrap;rounded=0;" parent="1" vertex="1">
          <mxGeometry x="220" y="140" width="120" height="20" as="geometry" />
        </mxCell>
        <mxCell id="aeQlH4hGAaqMEiJJV8NS-31" value="Tracker 2 Subscription" style="text;html=1;strokeColor=none;fillColor=none;align=center;verticalAlign=middle;whiteSpace=wrap;rounded=0;" parent="1" vertex="1">
          <mxGeometry x="220" y="220" width="130" height="20" as="geometry" />
        </mxCell>
        <mxCell id="aeQlH4hGAaqMEiJJV8NS-32" value="Application Insights" style="text;html=1;strokeColor=none;fillColor=none;align=center;verticalAlign=middle;whiteSpace=wrap;rounded=0;" parent="1" vertex="1">
          <mxGeometry x="220" y="390" width="120" height="20" as="geometry" />
        </mxCell>
        <mxCell id="66uHyciYdJMsds9IyZAx-30" value="" style="shape=image;verticalLabelPosition=bottom;verticalAlign=top;imageAspect=0;aspect=fixed;image=data:image/png,iVBORw0KGgoAAAANSUhEUgAAAgAAAAIACAYAAAD0eNT6AAAABGdBTUEAALGPC/xhBQAAAAFzUkdCAK7OHOkAAAAgY0hSTQAAeiYAAICEAAD6AAAAgOgAAHUwAADqYAAAOpgAABdwnLpRPAAAAAZiS0dEAP8A/wD/oL2nkwAAAAlwSFlzAABcRgAAXEYBFJRDQQAALzJJREFUeNrt3T2WK+lxrWEaMGFyCBrGHYAmooHcYWgaMo9xDBoyZNC8Jg2ZNNug0U7fFexOHnQ1UJUA8id+HuNd4pKoOlVA5hc7InbE96dffvnlTwAAYBY+BKAQf/vHL7/8199//h3/928/+I//949f/s//bEv8zNt/Y+E///fH7xC/l+8HIAAAPMlff/rlDwH93//6awD+t//+6Zc/fa9D/L73xAOxABAAwEhuA/ySqV+/1wruWxJ/f4icW4FAHAAEAFC6RC/Ib1NFIA4AAgBIWbaPPrhAfxx//stP/6oaEAUAAQAcGuyr9eS7c/3+o1pAFAAEAPAyP/38o4wf2abMvh6X30RBCLb4LuM79WwDBABwN+DL7vv7CggCgACAgC/gD+e2QuC9AAEANO7hR0k/Dn3BD48EweIj8M6AAAAaZPl6+HjFQxDPThg/tQtAAAAFZvDjwA7jniCGLYlnKp4tEwYgAIBkpX29fBzdKiAGQAAAJ2T6gj6yTBbEsxhC1LsJAgDYsbwv6CO7GFAZAAEAbGDk09NH1TYBAyEIAOBJFvf+RSBBk2kCLQIQAIC+PrQIiAEQAMCS7QsQmDZWaCUxCADI9oHBNxlqEYAAwIiZfdk+8HlVwFkBAgCtyvx28APrvQIxQeDsAAGA0iN8yvzAa/z5L7+aBvkEQACgVH/fBTzAtj4B0wMgAJA28JvdB/aFYRAEANIFfoczcOymQYZBEAAQ+AFCwLkEAgACPzBRCGgNgACAwA8M3iVACIAAgMAPDDYLmhoAAYCX5/i5+gFCAAQABgV+c/wAIQACAMNW9trcB/Tk8psQsFkQBADs6m+6Pja+y3vE4R/VnTWEmezRz9EWqv+MGB0EAeB2vn8e9A7F3ONdt8E7Du5M98jHM7T8TnH3wyIg4vddfvcIOL5Lo4MgAMDgh5sd73EIhwhbAucSTLsKzvjbbgUCcZDDH6AtQABAnx87lVyXIB+fv6xrnTjw7Bz7jLqCmABA43l+5f7jgz3n9fvCIAITUaAtAAIALxDBSLlfsCcKoC0AAkC5Hy+MUAn2uZ91gmB7j4q2AAGAoiY/h9h7hHiKz9HIVL3nfxEEBPA29wsQvAQAimRCnNXvZfmR9TjwCAKoBhAAkPXL8tHMEBvBjClWNYAA8CHI+mX5GCycF0Mho6xqAAEAWX/DoL9gxAlrWgUuw1INIAAg6y8e9O+N7jm08MxkgfdMNYAAgKw/O99+WlXGjb6/GWe8Iga8Z/YGEAA4bQEKF/P9bP+V8qUDC696BryHbhkkAHAYcejoS26ftXi28I4g5xdQDSAAoOSfONv/jNjs5znDFi0CY4W/v1OA14YAgJJ/uqD/ESYmbLljIEQl4+CvBkEtAQIAL5b8LwL/Yf+Ogwq8AlptBABOPzimlxIvJ2UrdgRAe0BLgACAkn/SEb691wI7pLC3afBiSsDzQADgY5ZwlfGnuBuAgxl8AvvBeEsA4IZ4ITiHc6049VyCT2Dfd4zQJgCM+A0b8bv8ZgqKg49xCfhh+p1WEYi/l++GABhbBpyk/K+/BdXbHnt2Y5RSJY5OCKa1BkzgEAD6/c1Vfhxq98p9IQayG6IcTjhLCFz5AkAA6Pd3Xgma/fOQoYAQsEKYAIB+/xMGn2d6e9lbIXYEIMPZcWEOBAFQ8wWORRjdX94I5K9kyxFcLwX+NjsCcLZvaEIS4V0jAJj9ihl5HvX511LhYLMjAFkWCnVPKEwIEAA2+xXp222h1iOwVvislCiRaXTwakIABEDO4N/55YwMZGuFHi+7y00A3iITAgRA6TG/S+PS3J7X51Y5zIgAaAt43wgA/KEsZ0ynfytAZgJtAe03AgDtZ/yfHeub0goI9qyGANoCRAABUICOL9yZ13dW+TwZlcCEfLz/iAggANKo7ew77Ssq7UqtgItFQVANMJJLAAj+HS7tyVLWrrAgyLZAqAYQAQSA4N8i68+2gauSr8IGM6gGeOcIAMFf1r8hlcabZCWoMKbc6cphIoAAEPzfMNRkf3kqXBvMpATVACKAABD8bdiyX+Gfz4l3BqoBRAABIPi7aGMDqn3+tpfB2eZsIwC8IMb7ho0G2hYIi8xM5BAAgn+aWfUOW+sqbQm0LRBaAkQAASD4n94b6/QyVMxUbAtEFaKP3uFiIZ4AAmB88D/iAh+jgVYGox8dpgSM5RIAYx/+zv3nUPZXZUlg95bAlQggAAT/WoFmQrZZ0Q8Q/VVlSVQT29XXCLtFkAAY4YSd1veqKNb0JmcFzxCqC3G+LERQilbWLdcNk4CPPzveleXfDmPq8juteRY7LA6ym4MAaB38u/b7u40GKkv2efZuA3u8f0uwrbwZNIhguYiFW5HQ4Yz07BIA5TfNmTf/QaVbA5Ulaz5fS5CP76zbrXrPCtfgQgQQAJ16yRf9fgJOWXJ8oI/nKAJ9ZMGTA/2aqZarhIkAkD2a7+cHkJFUDfZL2V5Qf/0Mqvq7W9A1XADEIXBl9mvVk616mMtI9jXiCfZEgAVdBECL0Ra94177AYiA/QK+Mj4R8FUrY3IVVabI6W8/gLKkgI+xImByNVWvWK/YSKeVwSXH7wT8nMG0oqcqEsKJiZXAoDzclqpVnullyc+y/C7Xcncmtl1eJVgEgNKwa3wtCXJvwDvvqyy/7vN7lWgRABz/ZvyNeepNPhv0r4IoEaAFRwBMzQRlgEyBU1YGC/pEQLbfeYrwHhEAqvUNBX/Gz+4iIJ7v+E6iXyxQ9hcB1b7nKXd1OPgF/zFUNpB12P2wBH09/Zmrg6uJgAlruu2HF/yZAomAXT/zeA8FfVQUAd1Ngcxfgv+4cbLKZecqo0pLtn8R+PBBBFQTg51NgTI9wd9kABEg2wcRMPB81vc3dmIygAiQ7YMIGGgK1Pc/+SUIBGRCsVp/Mg7D+Pdl+5jiCei4KVBp9+TgHweoYEwEVBEB4aEws4+pewK6VWv1/U8UAC74cTNklRsElzK/oIXJIqDbkiCZ3EmXZbjkJ9dkQPVS9l4iIDKe6gIJNc7EKtXbeB8IAH3/t4O/+9+1jzKaSbn5keFs1HojAFod3PcOVBMAJgOyiIDF2Ke/j0xnZFY6jAbq+5/8YJv/z0UEwOoi4NlnSuAHETBzNFDf/+QHesKFE56rnItLBH4QAbPvC1CuPfFBtgPAZMAZIkDgBxFQawqHAChY+v/K1GIHgMmAvQ/Q25ElgR9EQI62GwHQvER7+f71WEuncZKukwHXBgdo/B0CP2wLNBpYXgBUKf1fBvSPTAbkfwbjYAoRIPijcjvrohVAAFQp/a89bG0BtGdiz4zk9l2J/+yyHmgF7Cu4q20JVPo/cZkFAWA8cI+D8pGBkQgAEWAqoKQAqFCKfbZXZQ0w78mWVacI/JcVhygRACJAK6CMAKhQ+n/FqEIA1CMUfsZy/zPPnxW/yFy9uqXiyuBKFwbJvE40qRAANUdQs4iAODBfDeZEAPaoQAVxXsfZFkTl9pYtFp/Fz8luaq3S3lX6P/ESCxcBWUH96vO2xaIit/zh2QC/BPctA3rXuFDhnhcH7Yk9KQLAoqBXxvouw3qqOPY8iwrXbZBnzH1dqGdf9c55feLhSQDUFwFHlSKf7fOrBGBNv30J9FU32WX05FRqBaQ+XC/JS2Lv/n4EQI9tgZcDDuojBIbA2Ld8f5vVd7qArEKVOHMVhfHv4L4/AdBzW+AeIiAO7WuhihbyTIXE+RnPZbXFNK+K8OzVlqyii/HvxIOSALAt8MysXyWgx6782+zeoq6cZJ34UtI5MUsiABxCHw/zyNyujZ5x7CPSpgf8e2QWr1l3A1ByO+z4JwBsC6yU9RMB+Q17S0m/U/++sim3iyGQ8Y8AwIki4HJCr/+ZkUMB+JxzZlIPf1L7ONu0BePfgaY/mwBtC9xqk99RIkAl4Ngsv+o4njiyvn1DABRTbtdhxhDs62VZsv5LkWyUCNi3ly/oz/KRZar8pvnSMn9hey1gcR3wvIMoe9ZPBOzv2I8AoLRfez9Hlw2Bsv8VQXr6hRHYZmXw1mt8jz60iIDXJzsY+BjKM579KbKkrNc7xoG3pzghAOYYkzoY6ipWL84s70emL+hrBTwShhlaP1TaFysc96wAZDOEYJ/nezHTXb/3MKtdBfiHn01838r7WgFrN32OFgCZs/8lO98zcyMAZk0CEAF9gz4jn6mAimOBsv8vdjfvfdGLF7Rn1vFI2Fb2ARABP/wQRva0AjpUASz9+eT2pr0vmYi/3ws6z3hEBNQkDmvrd10Y1Om2QGWZT4x5R0wnMAn1cfs/0y4iAmpl+/r6WgEdK8Gy/0/mM49oUSgj9nD5X1/0gPyJCEjr4pftawV0rwJQYp9saDri93TI1D5Q3n1G1qwMJgKO3cFPlLsrYEoVQC/mE0f+EWqRAKjbU9wqg+8iAuLzuBb9vc3sawVMrAIc/uFnPezuqf4j2hTuA5hT8icC8m3ok+3P9OtcVAGOFwDxwVdZy3jU72ob4KySPxFwfpnfsh5kHUE/ugowvvTy6GKGo1oVGbZBYV3J/4iWEBGwX3alzI/shsCjqwDjyy6PrmY8yixiGdDMkj8RcOx9Hp5jVDEEHvm8js7+P1vFe2SJyMuoVEgEWNqD48n4nh2ZFI7O/j8zAB0pWPQja+zyJwLyiwDGPnS4LOgo8TrWcPFV7/3Iw1emMrPfTwRsO79PSGNCdbqUAMh4499lRdZ95Ja2Rz4E9O/3EwHvO/oZ+9AtRh21JXZk9r9m9O7IDNAooNEgGwOfn+EX+LEVkYRNvClQ9v+Aa8NyD86Z7ycCthEBF6V+7EjGscC9n/VxGdXazXtHLyfxAp4X/CtdyjNRBAj8mDoWuHd1eJSierT0515Q6NjvQV6zHxHw+AAU+DG1CnDZuQowSk2tzf7PWFlsEoDZ79nMoLMIEPihCrD/fTFjFizEQbPWNHTGjYWMgLMNP0SAwA9VgHcq12kEQMZLf57JsM9Qge4EmDvzqx0g8EMV4IwqwIhD9tnVimc8AIyA/Tf77Rk8L4Wz/8WEGd+P0T6oAhy3HnjE6N+z/fWzFKAMiNP/nUpAJRFw/f7T3e+ECIAqwHE+sfYfXIiRKn+DjYD7tKMqOv1fFQEVjI1fbQQkAqAKcIxPrP2H9krv5CwBwAi4/Zjf9fuM4F9BBMTZsLY6GCKBCIAqwO9HArd+JzY/cDu4J8/64o+8BnLCy3sZFvzPvoL3s/fwlcTgmckdYEIVYGszYGvz36sf1pnKjw/AmN9WIuDsw+vyoM9PBEAVIEeSuGmv9dIg+z/7S7cQyJhfBxEQ//ZWZmAiAKoA+2yNbbv3/51++pkCgA9A8N86YzjyANvr3yMCcBadYttuAiCTSnp3f/KZAoAPwIx/RRGwRbmfCEDW8yXTaPuWZsCW5r93FdLZf49DTvCvJAKOrDIQAVBd3G5kvOWH866R7uxVxvYBCP57b93bc5kPEYCO+0Quyd7lNAIgU3lki536ZwsAPoB1wX/Kgp+MImBLk9+rf4eJGUyuAmxhBmw3JrGFi/5sAeBeAMH/jDW8a6drsqxVJgJw9GKxbmbAVqpoSwNdx73PVvviVgQ82z45O+snAnA2mVqOr6y531QARCaWqS+y5ZakawN1J/hjCxGwtXeACIDFQDkSxTYfxrujf9nGGo0DCv5HvTefiYAqFwwRAZi4GOjdRLFNOWTrjDlDxuNAE/yPEgEfW3nZs/5HImDLLWlA9sVA72y8fUsAnG2U23M9YhZvg3FAwf/oCZrLzf+s2tYgAjBpJPCdNkALFbRHuTyDANhipLG66zab6az7iGCHdcpEACaZAd+pfpcuke+ZKWcQOJfBbYA4wK+C8qGHyFJKzLb7nAgAM+Dnz/qrbYDy5f8t9yL/kvBK2YltAMH/2MPjXgmxw5XKF+O0GGIGfPU5Lx0c9xyXy6LwotIi+GOvZ+uzClO8AxciAEjfBn81Dpbvf+z1cmeqckxpAwj++XZmdPhOiAB0NwO+2gYovfzn3RGIr7gUO6wFf+wxKtdlEsNUDTqbAV8RuaXND3tvy8ty6HVvAxj1O97oN/X+BSIAXc2Ar8TD0rv/93b5ZlJ3XR3Ngv95Rr+p1y8TAdjyYrJMFfHdBcA1USlz0vWPHdsAgv/5Rr8O16J6n+Ca4NcSxbLljiNe4EzTDt3uBnClb+13pMOuACIA3doAzz7TZZXOEc74bjc/Cf6Mfl0FMhEAbYDn/WJMcV98sdl2tQv++Ord2HMypuOuAFdvo1Mb4Jn3/6kxrYmqPVOwqr4aOB7MajfMyWZnjHASAehSLX6mUlyy53dkEMxmeKpcsuzgIO/s8p9u6HxnTBLaAJeCYrbc4X20GS6b2emVUQ8lst79/ixVoQ7tnTjniABUPuOeiRHlxv+OzoCzGQErmgE7OMZlrHN2BRABqB4r1pqAy/X/j16Ik80IWM0M2MEpnnG3ffZlNtUrPlHJIAJQtQ2wNlEulcGdNQufsaxZwQyYsXpixE/lp2J7BTXIYnJeOylXqv9/llM3YzaT3bXcYTxMaVoFiAhAVdG75qwo1f8/q/ed8RB79SbEyB7jc4wHNQilGFxWlp6X/34Eo+VnxM+7/V3c7Gf6o5MYrFR1wfnrzSt5xcr0/1+977jbl/pMUIjvLsRLVAuOKE2FKFkrJlBnxM+ugF+/ByIAlVrGa5KGMiWNs0veGX0AH6sA8Z8jWMRnJQM34ufyJyIAc1vGa3wAZfr/Z7ues7qaQ6DFZ2PJjn6/VdDHTGB0uZMDvc3P8ay+LQCyZJJnZ0Ic7WDwtCuACEClccCvKlYl+v8ZrsJNsw/gmwDZmezz/XYFzPyuUHPt+Vc+AP3/4j4AMPsZmyICYPz1laVxJRR6lpfMPnsYM7MroNOIJnpPjn11L0CJjDeLE/pQH4BS/wjCqWvlbP1dAa4TRsX4mb7nnaH/n9HcAZf5dCOqIJGx+D7BB3BMBT296z2bstYGgLKxXQFuEkSHHTrpf/lsxijjgDBCZkxQWwdVtuh+VkVPX77IeN+5NgCY/VTbXCeMCnt0Lp/E0Ye/eIZeXKb+vzYArPU9Z0Lg4juH64F3WQiUeoQhq7NWGwDMYce+b1dVH/ABbN5KTx3gshqltAFgPIw50CVCqJIsPjqHUpe4M7802gDg9D9eeGcpqTJ/otIK+UcbAdMaAC/fc5totAFgRSzxTQSgwkKgRxsBGQDfUHZXgQ4OeXcIEIcoIFjvJdRpSxYVeqfaANDrZQ7UHkKFuy7uJSZplxdUUMlZPitwe09etlLVHMggaiHQ2aIzbW+7ymHqimCY92YONCKK7EbAe4IzZVk7ynrKO7D2Fc8cslVbcu4PYAQ8y1eXUgDEoVrp4LETYCYObuZAq4NR5WbAy/cVAiCDUqnWG/uXaPomKKbmm/4tc6BWEuYK04/P1x9+0UtSswKTBzi40d0cGCPYR/if4t8IoRTE8/yRaG0u/3fm1j57Yz5+lykDWbU56ix3J8B0CupfK3zd8AyMs2kJ8vFZvLPjJQRVVL7iZ8XP1LKoFyM+PlcmADY4ZEwCWPAD+zqyPG9xfsbffMS5FKIiBIEqQY2rgT9WL9P1KS6FJgAsA7LgB3VKsJfGFafIMOMsOnOLawiO+H35GPJeDfzRu5QumGVfAaz3L/ijri8gw5rzLT0nIWwytjkilqiY5Z+wSzeqUMVdrfQv+KNmL7bi0qCP52IE1wrnT3zWhECeCvvHS4GMAA68jARfjwYK/pYGZdw7EcG0ooAhBPIsjbs1b6YzKVR4SCIwWP4j84eMDM+LmKkegYwm+3T7iiscvFX3jkPwR58bBSu/YxPHaTOOAqb75bLPlmZRcbCJDdsdzPw857QFpr1v2RbtpQpsFUYAHRR9sxLB39Ig70LPzYfix32fXSqDQvYRQNl/b5T+wRdwTuI3pSWQbdIu1YOf/RZA2X9/g5IgCL4AE2BTdgGk+sUyPwCyf1UAuEwIRED1CtNtpd0SINk/XPMLvgDv4JBdAHcFQIbRtqzXrMr+Z5kB3XIGvgAioHMs+YMAyLAjO+sSIBf+uPIXfAF8AURAl/tjliTnx05g/deHZUBb/+btAxD0sLsv4Jt3rWpVuPoyoGXkOZUAyDiHnWV/M4hR8AVMpNsdApnOt1SqxNpfKD+CLwAf9wR0EuSZ7txJIwCuCQVAln4NtAHAFzB9bbBtgNv7nNI4EzMeuFS+NoBAh019Afr+4/0AmSbuCADlfwwxIIEvQCvAOuDbFmcao1u2Eg/3PzqVHaFiqDVnrDytAMi2h93yH2SdTAFfgD0dhOJmAiDTL0SlwQgSqs96ax/uRyytq7ytkwAoIADs/odxQLzTQpRE8OdkFQBLxT1NtpvpC42X10sGPgBYJJbXEFi1CpDJc5dGAGTq6+j/4/agEcjgLFEFaCsAMvSrMgkAbl7YBwCjxCYCCICBZiu9O7gdEDaJMul2rQot4okAoNrBCAiJREmyjY8TAA0EgAVAqH7I4HwjcYyreX+YAQmAQgIgy82IMAkA5j/0a9FlaA0t5mYCQN8ObgaE8r8W3bAkkwCg3PHEywJYJKYNQAA0FgAWd8CdANBGNA1AAAz8Au0AgF0AkERYCkQADBQAendwKRCcISZ1CAACACAAYI8Ioy4BMKHESgCAAMA7XL0vp1DFCJhl0kwFgACAdcBgAOTTsQiIACAAQADAGLEqHQFAAAAEAAgA72hvARAOSgKAAAABACOANgIOEwAZgl6WA5YAABMg7BEhAAiAgQLACwyLgCCBIAAIgIECQAkPVgGDACAACICBqxyZeOAyIBAABEDnJHO54jxN2TuLAPir64DxgT//hQAAAUAA9GkzEwAPiG1SXiZUXTMKAoAAIADWflbpfqEMXLxMKHiwwOHuPSUSnxYAGXoSmb68yPi8UMhWnYL+Luq/pwTAJz0JXxDsAIBNgOi6rCvD4r1FLKUbS1DGgxFAVIWJmFCvcF307wRAhoc2k9PaSwwTAGAiJtS7CoClWpLqCstMLzEjIIIo1wls4CHKzbXQro4Mz8dSLUmlWjMpOC8xGADBQ0Sod5wy+50A+Od/sG/dSwx3AICHyAhg+xbRcq6lLEtw80L/HyYB0M0AmMVftlTbUwmATGMcfACwAAjOjvzEZ/3TzzUqdVnE4b8q/xlHE7QBYK4Ylckw6z2FTDtkKiyKuq1sptxO5MtCBqpkFXDQM+ryh7yyc4cAUMpD8awCzF6MuiZEXpmYSKtMLG2A8j8q4+wg1DM+E7eJdqqSVcZlDhy9M5eKKP/D2ZGfSBorrerOYLa/bZmke1izHbzx+4RpwsvG/Q84O3KO61ZpA1ySVTfTzSdm/CIt9tBTBJwduUcBs7ftsqzcv92ZkM60knGhQ3xxzIBzSooCF5wddat3Wdt3GZPs1P0J7k14/uBuADxrDMzoC8gyGnorkFI7FKk3HN1LZP7DHlUAXoDjjbzZqskZhOBHo33qGUXbvSD7By8AOrzTGeLHxxZn6i1FqgCQ/cNEADr4AjK02D8m2OnmVrNf7KCfJ1MA7AWwL6DiZsiPLfb0LkWuXsj+wRCIyr6ALLH149+ffk7RS4zpzxt6tQIylIJV+2ZWfz4m1yk3FWXfxKYKYOsfwEvEF1DNBPrxby5hVHDdJ/bym1TaIw5TAdjWF3BUuzlD1ThanR9/r5SjChkvBTIW2JBvv4pN/X9oJfIFTJsAuCsAsijTCpmZBR8cwsA7fgBJRH9fQNYJgLsCIItZoYoxy2hPn0zAJUBgCpzLXtXALJ6Pe5clpb2xqNJctlKeG8UAIoAvILPf497fdfcXvnJne4FNBghOcIZIBNokiPeqG2V2FlcY7bl6eVrdKMYcCCLgWJd6Jk/EVqOCGb7TexMADwVAZsWS3Q9gP4ByIPCOCJjYUrw14sY5ek34e1U2AD4arU89415xQ5v9AMaEgC36xlOSiXvmuwi6Ga6nf/cMyGISf9TWTO1arNqLZQo0JgRs0VbsPGZ8WfFeZRJCr5wBWQyAjwTMw7LFJUkfturLa77X+lBAS+Dx2b62vRb/vSzeiPi9n2kJZPnuHv3OqY0L2a8G/mpJkKBpaRCwlb+oi0HwlcpuJiEUVZm14iWzAfBTAZDlw67af+UF4AsA9qgGXAoH/nfFc6a2yFctgSxJ4Gd366TvXVTtvWoB2BcA7FVdrCQE4izccpomUzXgs+2BWZLAz2Jo+vWFFW4GzOqhQL6eILC1EMi4f+Tym0Dec4w2y7jgo3HhClX0Tz/ga5Jya8V+neA4a4GJfQE4M+GIbDPD2FwEw8g4j/JuhQjKUG29N9GQxbPxWYLy6YebZQ6z2uHqrm+jgsBZo4OReR4ZfJagf+Y5HQLokqglkKWC/pkB8EsBwAfwGlmEE/rcKAa8UhmIamQIgi3PpPhZ8TPjZ2dqf0XQzXD2RtDN5FF4WQBkKWVX8gHo/8MKYWSuEMS5HklVsIiDe8T/bfnvxf9PlWdaBXZ98lxij3GlfQBPi6ZvHlI3igHYWui4XfHrceUSiwwq7QOgPqElANiiWCFxLrPKsMrMtf4/7vUELQ4CzqvKdr5T4Z1V+mVG2qISof8/lCZtEouDANWATOb5Ujvts5tQzP9jy0tQAPRcHpQlXq760LL4ALKPA+r/Y+1yKwZB4LwNit1Xta9doFfqSsPs1wPr/8P1wkCdC9u6VgPWjs6XKm1nHgfMMjJZcWZ+8riOnQGAasBZ1fJywS2rm1r//3mFunyX08d1VAMA1YAz/HLlyttZndTTA9ja28HiRXsU6KZ7KFQDgHOrAR3auM9coFfO4Ja1DWDr1P2AtuwMX/udZbnUQzUAmEnEusuA/v9TAiDL7UYZ2wD6/7+qznjwlr3h7wSwSaM6qgFAzlXCVasBz0wYPfWhXBNlSNkelg7z6Wv4eEHIu8HeLu/n7hgHoBrwGc/c0Fiyz52tDdChd53pWs/bnpzWiuVBgIuF9hmVf9opWbHMwQBY97plEwKqAYBzaJ9leU9nZIJWPwNghYtqbFlUDQBUA7Zdl1822GVpA1Q3AF4TL1diDjQpAKgG7HdhXulMLEMboPoCoGo31DEH/v6Fd80wcN5ZlOma4VfO8tKO9wxtgOql6YoBJBS4exdUA4CzybRG+JWzvHzP+2z3euU90pXK/7YvumEQyDalVHH739sCINPBe7YzunI5ulr53+bAdVWxjCOdQMcdAdXP8vKLb6IHwwA4p/xfoReXZWRQWwCYkfy9epaP/uMnGwCrl/8tDWISBGx/fW8irkX54ywzYGUDYIfyv6VB2gLAdP/RO2d5GwV0xgFX2QDYOTPkC8jTFohzIp61+E7i34/Das0dE5YdIXOicWlylrfpgZxhBqzad740K//bF/CcZ2Yv8RfPVAT6JchvcUgu4mCvS6eAypXfd1u5bT6IV7YgdRkB6bT7f+uAVLlKs/czsEWWHe9BBP2jPucQBHHuaGmA+e/9Vm6rIHhkWbuyAXDavLh7BLZfIhTP/9l90BAdTI6YbPx+9/l/+wPJtJHtSGNbppsRO1z9e8SLa1TwcRlxrT8gnvtsrZX4Xo09Yprva4uqd6vs6kgzYFW3+bP3RXfb3GWF8Gtjg/G/z+6pIASw9/mRyfy3he+t3YdyVBWgam/ZnfJaAmtE4iIEwidQTTTtaXSEc6Pq1b+7CIBswfAoh3tVh7nxKlMCz1QEqvsbmAWxlaE4Uwtxq0puS2PE3llu1RXAZ65NtjgIZ/kbVAPQLcZtZeRuORMfv8ueVYBMS5Cmb/+zOGhjvvWddvCso0PFd0uvW9v+yJ6qv+oIoExIS2C6t4FBENXP+y33uLRdjLPnYqCqJjKHn5YAX8NPfAEobfjeMpHzQQ0ZATx6U6JqAIgAuPUv9zmuVFJ8+ZEeqGoAiADMyP63Nri3vyBnj7G3q/6/agBaiABtMVTJ/vdYdNe+PL51FaDqJUAOOtUAMAaibva/RxV3xC15W1YBKk4A6P+rBkB7DHU33O5VzR6hnLasAlS8BMgBpxoAK7JRt5K9VxI3Zk5+K/VUcQRQ/9/tgvCeoG72v9cV7mN25W9VBaiY/XE7qwaAKRA1z/g9N9vuul61o8KvNgIYEwteatWArit+tcuwtc/nMuiZHHN70lZ9lGomsL12IUA1QCsAnP+1K7ij7k/e4uW+ymjAG9C+FeBZNvc/IYHbPSu6NHq5K14DLJs5rxrghsG67GW6guz/7NG/wwRAVtPcq0Gx4jXAez9A+NxNnPFQwflXisONf2uWVO39d48cqXj15a62BIgBMM/hYoGQ3QDIS8b384jq7djSyisvd7UlQEcoSKxvC8Qzpy3ACwDZf5Znb6y54pWLFaotAWIAzNkWMC3AQwPZf4bnbrTB4lmHZbWD2+E1uC1g7t8YLUomddGiPurvH11meTZIVjN0MQDWOICuAq1NmjilGncd7j0ZX2p5ptdSycjFAKgtACOBqFXRPXr6ZLzZ4hnFVWnBCwNgzUUk1VZNT8C7xPjXdfLEsoXfVNeaMh8DII4gMk7bBHMZhu0E6DWRk7Gae8ZzZt3iyoAZAoEBEEePDfIHeJ/Q3/h3VtJm5eJK01w1AcAASAhARQ35F9OduXnSpQsr7wOvtAXwwgDY1ihokdC5I4HRniGu7fvvsnXSF7Hyi6gkAGwwMzGA/d+x+B7iXOAPYPyreu+EqxfvZM/3FH6lNcCWlxACOP6di+RBdYDxr9KYqXLMyrGfSgJAv3LW6KAbB/MlEXGGhCBQITDzn7lae/rhVeUmsEr3ALjFzA4B5GwZqBIo/WeaLqHMVl4WVKncamRprggQbGstGFp8BNYNzyv9Z/BqGctY2QqoJABkGDId1ON64yWI75KQ75tgZjmnLWZYadCo1GfVc5y7QVAg7dk+WDwF8R3zFaxLLDML4ixGbWWaFao8HqYq/VWXABEAmFMxWNoIS9VgWvUvYkf83fH3x+cQn8flZrxO9l9AAGQvX8ZDVeUmQDsACABgObduBcJta6GKUFgy+Y9B/quELHPClmlKy5amJ9S2EUAQAOgqFO4JhoWl9bAF8bM+/vzbwP5uspU5WVt78dxIARCq1KpTAgAEAPDq9Fbm0v+ZS3/SC4BqbnsPGEwBALlaoNqzhQVAmDrchW4HAOwBALoE/6zj2UqZzbADYPbok3cAUyciMrePs7Zm0x5mVVz3dgAg1QvtHcBAMleNz7ztr6wAUM40AgjCGahe+s/sy7LGkQBAI9wMCJl/7ptlCYAGGwI9bMhIpVsrgXdH/i7Jf7/sniyjTY3Isl8a3hdgevZfYSeLG50sAUKz3ejeBej7n//7VTBklznU7AYgALCOKhdXAV3XslfZx6K02Yjo/wqA4ANA576/RGygANAKIABgIRAIAKX/oQIgDrarl8A9ALAPAIK/0v8sAWBNsHsAoA0AwV/pf6gAsOyEAMA646yrtQGl/3YCIFoBDrc/8rd/uAcAPDOA5KuxANAKIADgPg1A6X+oAJDh/BFBD9plgNL/CAHgroDfm2QEPGiXAUr/IwTAUuZ0wLkJECplgL0rwwSAkScCAF9XAazSRhm+5f8du9y8qtdJAMAtgbg52N2lgK9uIexiuJblEADQCsAdQ1e0F2PaKD43ogAd963IchplLoIc3Kr5uon2rz99ndURBUb+Op0JVqASABjWCmCa3Tar+ygK3FfS94ytPPI3QgDEFzRRmRMAIALyZHVxDsXnfCsMjCzX5dp00Vpb1/OVAAC0y74gzMNnfPZBVCvj39dK0PcnAGQ5BACs0z44+Gcr6d6Kg1uBoK2g708A8AMQACACmgb/tX6DpbWwiISlxRAweer7EwADR58IABDKvYP/q2LhtqKwsAiGBRWG+2Oh3S9YGzH6NKHHRgCACJhdzt3aR7WIh0d8FBWfUc0AuXYslAAo8jB3d+ASANii/9w5E+ywu10VlumPAHBpEAGA3d6TbmI5+uJTDvRs1deKwX9SlcjoEwEAtDi4J/f7tV7rjoUSAMpR7gKAasDGi1vCKe971HJ99S4IAqApHU2BBAD2NAheC5m3QuTL+onGqTf8EQArylPd+pwEAPZ+Z7ILgQj8Ew9xJlKOfwJguCmQAMCRQiDLwpnrb4F/6gFu8yrHPwFgXfA//w4HEY5+f8I0dZbgjR6/Ur8dEkZDCQCrUAkAnGj6Wm69u+486RIHtjI/U7VxPwKAgv2AbAhZ2mu31+BeXgz28f8f72ZUGjzbRkWN+xEARMAnyIyQXRh8tlpWH9+Yn90QBIBy1rN8Y2YBwOlv1p8AeIuzTE1bGQGJAACqpDNv9yMANuhtVRYBzC0A9Pst+iEABi8KChOVBx7Au/3+6ptTr4MX/RAAg0WAW9AAvGPazLLwSVuUAOB2tewCwEH9/st3wZ8AoIJLu15vWwLcrwC+Snqqe6AEfwKACHjQEtALA9BxxE/wJwCIAC0BAMNc/oI/AUAE2IYF4MkzrcvV6II/AcAZa0oAwKCsX/AnAEwHvLk4SDUAkPUL/gQABooA1QDAeJ/gTwBgqAhQDQCM9wn+BAAGi4D4e4wLAsb7BH8CACsMNd1EgGoAwOhntz8BgMEiQDUAqJn1d5lWch4RAGVEQPWbsz6rBrhdEMjv8O96BkXwdwYRAOlFQDezzW3pzRZBQLnf4jICAJ/Q+WUMJc6AA+QZ7bs2PWt4kQiAsvzn//7c9qVcVLmSHHBen7+j7+hj8PddEwClX9JL4xf08ltbgEIHzPRvSSRQvm8CoIUxp6MjV1sAOLbP322Tnxl/AsDCoEaEA9nLCyj3m/EnADBkQuCeP8CLDLxfPZxyZhjzIwCM6zAKAiqG/5h1TnD6EwDjRnemvNwWCQEC/yPsFiEATAgQAoBS/6Cz4MrsRwB48WeYAz+6fAkB4NckYFrgt9OfAMBgXwAhAIH/57Y7+631JQDw4ubAy8ADwdQAJr3j0yp++v0EALQE7BHA2Arf9MCv308AwL6Ap3qEcWgqFaL65r7uW0DXiHrVPQIARgVfyhz4BFCtihfP7HX4u2u+nwDABofJ9Azi1jCojAhlfiV/EACjDpepjuF7hCAKMaCsiAxu/ngWL97L35X8VewIAGgJHHLY8ArgjG19sn0ufwIApgS0CDCkxK8S97gqpyJHAMDioBQTBFoEYOhj9AMBoBpADBADeKrEH6Vs79bXWb+KGwEA1YBS5kGHFh6Z+QR9WT8BANWAIfsFiIG5WX709Dn4n39v4nPzDBEAUA1oZSCMg834Uv9+PqH8+n0d3g8CAKoBI3wDBEF9QbyU9pn4ZP0gAFQD8LIgiGCi75m/lx8GPuN62/X6iWACAIWrAQ7D/QSB6YJzn+2lj6/itf0zzh9DAKBRZuROgf08BCGyiIJjgj1Bu++zbJsfAQBtARAFgj2THwgAaAtgq9LqIgwi05oqDuJvjr89An18DkuwN5Kn3A8CANoCxMHf6wqEJcDH3xFEdhl/Gzd+vnI/YysBgOFtAZlXnZGsCKRBBNUlwN4Khnu8Erw/smTrH1myd1Ul7n4QAChako2A4nAEel+fzY8CAgAP2wJGqgB9fhAAIAQAFG4Z6fODAMBLRN+XEADc2AcCAIOFgIkBgMEPBACGTgxEOZEQAAR+EAAYLATMdAMCPwgAEAIABH4QAJgoBJgFgf239wn8IACQdnzQRjhgW8J3EyJb4AcBgBKbBd08CLy/wCcmcIzzgQBAOSJjCSHAJwA8dzWvzX0gAMAnAAzq79vVDwIAfALAkDK/db0gADCyPWCxEKaO8SnzgwCAqsDff2YaBDc/QABgslfABURg6gMIABglNEGA0iN8sn0QAMCbLYLIogQWVDD0CfogAICdWgQhBi4CDpIEfeN7IACAg8XAYh7UJoCgDxAAGD5JYKwQe5b3BX0QAEABA6FpArzr3mfkAwEAFBYDkbnxDWBtaT+qSTbzgQAACAI0XswTAV+WDwIAGOodCEHgfoIZF+6E8NPLBwgA4KGZkCDoU9KPDF/ABwgA4OmWQQQQoiA/8f0sPXwlfYAAAIiCZlxvgr3sHiAAgFSiwAjitll99O1l9gABAJQhAlYErhAHy/RBBDUTCD+MefF5LOa8+JwEeoAAAFqzrDNeJhFuBUKX1sLytyxZ/JLJm7UHCAAATwiFW7GwtBs+skf7IX7m7b9xG9BvM3fZO0AAAACApPx/1LOtpjWqedcAAAAASUVORK5CYII=" vertex="1" parent="1">
          <mxGeometry x="360" y="100" width="40" height="40" as="geometry" />
        </mxCell>
        <mxCell id="66uHyciYdJMsds9IyZAx-31" value="" style="shape=image;verticalLabelPosition=bottom;verticalAlign=top;imageAspect=0;aspect=fixed;image=data:image/png,iVBORw0KGgoAAAANSUhEUgAAAgAAAAIACAYAAAD0eNT6AAAABGdBTUEAALGPC/xhBQAAAAFzUkdCAK7OHOkAAAAgY0hSTQAAeiYAAICEAAD6AAAAgOgAAHUwAADqYAAAOpgAABdwnLpRPAAAAAZiS0dEAP8A/wD/oL2nkwAAAAlwSFlzAABcRgAAXEYBFJRDQQAALzJJREFUeNrt3T2WK+lxrWEaMGFyCBrGHYAmooHcYWgaMo9xDBoyZNC8Jg2ZNNug0U7fFexOHnQ1UJUA8id+HuNd4pKoOlVA5hc7InbE96dffvnlTwAAYBY+BKAQf/vHL7/8199//h3/928/+I//949f/s//bEv8zNt/Y+E///fH7xC/l+8HIAAAPMlff/rlDwH93//6awD+t//+6Zc/fa9D/L73xAOxABAAwEhuA/ySqV+/1wruWxJ/f4icW4FAHAAEAFC6RC/Ib1NFIA4AAgBIWbaPPrhAfxx//stP/6oaEAUAAQAcGuyr9eS7c/3+o1pAFAAEAPAyP/38o4wf2abMvh6X30RBCLb4LuM79WwDBABwN+DL7vv7CggCgACAgC/gD+e2QuC9AAEANO7hR0k/Dn3BD48EweIj8M6AAAAaZPl6+HjFQxDPThg/tQtAAAAFZvDjwA7jniCGLYlnKp4tEwYgAIBkpX29fBzdKiAGQAAAJ2T6gj6yTBbEsxhC1LsJAgDYsbwv6CO7GFAZAAEAbGDk09NH1TYBAyEIAOBJFvf+RSBBk2kCLQIQAIC+PrQIiAEQAMCS7QsQmDZWaCUxCADI9oHBNxlqEYAAwIiZfdk+8HlVwFkBAgCtyvx28APrvQIxQeDsAAGA0iN8yvzAa/z5L7+aBvkEQACgVH/fBTzAtj4B0wMgAJA28JvdB/aFYRAEANIFfoczcOymQYZBEAAQ+AFCwLkEAgACPzBRCGgNgACAwA8M3iVACIAAgMAPDDYLmhoAAYCX5/i5+gFCAAQABgV+c/wAIQACAMNW9trcB/Tk8psQsFkQBADs6m+6Pja+y3vE4R/VnTWEmezRz9EWqv+MGB0EAeB2vn8e9A7F3ONdt8E7Du5M98jHM7T8TnH3wyIg4vddfvcIOL5Lo4MgAMDgh5sd73EIhwhbAucSTLsKzvjbbgUCcZDDH6AtQABAnx87lVyXIB+fv6xrnTjw7Bz7jLqCmABA43l+5f7jgz3n9fvCIAITUaAtAAIALxDBSLlfsCcKoC0AAkC5Hy+MUAn2uZ91gmB7j4q2AAGAoiY/h9h7hHiKz9HIVL3nfxEEBPA29wsQvAQAimRCnNXvZfmR9TjwCAKoBhAAkPXL8tHMEBvBjClWNYAA8CHI+mX5GCycF0Mho6xqAAEAWX/DoL9gxAlrWgUuw1INIAAg6y8e9O+N7jm08MxkgfdMNYAAgKw/O99+WlXGjb6/GWe8Iga8Z/YGEAA4bQEKF/P9bP+V8qUDC696BryHbhkkAHAYcejoS26ftXi28I4g5xdQDSAAoOSfONv/jNjs5znDFi0CY4W/v1OA14YAgJJ/uqD/ESYmbLljIEQl4+CvBkEtAQIAL5b8LwL/Yf+Ogwq8AlptBABOPzimlxIvJ2UrdgRAe0BLgACAkn/SEb691wI7pLC3afBiSsDzQADgY5ZwlfGnuBuAgxl8AvvBeEsA4IZ4ITiHc6049VyCT2Dfd4zQJgCM+A0b8bv8ZgqKg49xCfhh+p1WEYi/l++GABhbBpyk/K+/BdXbHnt2Y5RSJY5OCKa1BkzgEAD6/c1Vfhxq98p9IQayG6IcTjhLCFz5AkAA6Pd3Xgma/fOQoYAQsEKYAIB+/xMGn2d6e9lbIXYEIMPZcWEOBAFQ8wWORRjdX94I5K9kyxFcLwX+NjsCcLZvaEIS4V0jAJj9ihl5HvX511LhYLMjAFkWCnVPKEwIEAA2+xXp222h1iOwVvislCiRaXTwakIABEDO4N/55YwMZGuFHi+7y00A3iITAgRA6TG/S+PS3J7X51Y5zIgAaAt43wgA/KEsZ0ynfytAZgJtAe03AgDtZ/yfHeub0goI9qyGANoCRAABUICOL9yZ13dW+TwZlcCEfLz/iAggANKo7ew77Ssq7UqtgItFQVANMJJLAAj+HS7tyVLWrrAgyLZAqAYQAQSA4N8i68+2gauSr8IGM6gGeOcIAMFf1r8hlcabZCWoMKbc6cphIoAAEPzfMNRkf3kqXBvMpATVACKAABD8bdiyX+Gfz4l3BqoBRAABIPi7aGMDqn3+tpfB2eZsIwC8IMb7ho0G2hYIi8xM5BAAgn+aWfUOW+sqbQm0LRBaAkQAASD4n94b6/QyVMxUbAtEFaKP3uFiIZ4AAmB88D/iAh+jgVYGox8dpgSM5RIAYx/+zv3nUPZXZUlg95bAlQggAAT/WoFmQrZZ0Q8Q/VVlSVQT29XXCLtFkAAY4YSd1veqKNb0JmcFzxCqC3G+LERQilbWLdcNk4CPPzveleXfDmPq8juteRY7LA6ym4MAaB38u/b7u40GKkv2efZuA3u8f0uwrbwZNIhguYiFW5HQ4Yz07BIA5TfNmTf/QaVbA5Ulaz5fS5CP76zbrXrPCtfgQgQQAJ16yRf9fgJOWXJ8oI/nKAJ9ZMGTA/2aqZarhIkAkD2a7+cHkJFUDfZL2V5Qf/0Mqvq7W9A1XADEIXBl9mvVk616mMtI9jXiCfZEgAVdBECL0Ra94177AYiA/QK+Mj4R8FUrY3IVVabI6W8/gLKkgI+xImByNVWvWK/YSKeVwSXH7wT8nMG0oqcqEsKJiZXAoDzclqpVnullyc+y/C7Xcncmtl1eJVgEgNKwa3wtCXJvwDvvqyy/7vN7lWgRABz/ZvyNeepNPhv0r4IoEaAFRwBMzQRlgEyBU1YGC/pEQLbfeYrwHhEAqvUNBX/Gz+4iIJ7v+E6iXyxQ9hcB1b7nKXd1OPgF/zFUNpB12P2wBH09/Zmrg6uJgAlruu2HF/yZAomAXT/zeA8FfVQUAd1Ngcxfgv+4cbLKZecqo0pLtn8R+PBBBFQTg51NgTI9wd9kABEg2wcRMPB81vc3dmIygAiQ7YMIGGgK1Pc/+SUIBGRCsVp/Mg7D+Pdl+5jiCei4KVBp9+TgHweoYEwEVBEB4aEws4+pewK6VWv1/U8UAC74cTNklRsElzK/oIXJIqDbkiCZ3EmXZbjkJ9dkQPVS9l4iIDKe6gIJNc7EKtXbeB8IAH3/t4O/+9+1jzKaSbn5keFs1HojAFod3PcOVBMAJgOyiIDF2Ke/j0xnZFY6jAbq+5/8YJv/z0UEwOoi4NlnSuAHETBzNFDf/+QHesKFE56rnItLBH4QAbPvC1CuPfFBtgPAZMAZIkDgBxFQawqHAChY+v/K1GIHgMmAvQ/Q25ElgR9EQI62GwHQvER7+f71WEuncZKukwHXBgdo/B0CP2wLNBpYXgBUKf1fBvSPTAbkfwbjYAoRIPijcjvrohVAAFQp/a89bG0BtGdiz4zk9l2J/+yyHmgF7Cu4q20JVPo/cZkFAWA8cI+D8pGBkQgAEWAqoKQAqFCKfbZXZQ0w78mWVacI/JcVhygRACJAK6CMAKhQ+n/FqEIA1CMUfsZy/zPPnxW/yFy9uqXiyuBKFwbJvE40qRAANUdQs4iAODBfDeZEAPaoQAVxXsfZFkTl9pYtFp/Fz8luaq3S3lX6P/ESCxcBWUH96vO2xaIit/zh2QC/BPctA3rXuFDhnhcH7Yk9KQLAoqBXxvouw3qqOPY8iwrXbZBnzH1dqGdf9c55feLhSQDUFwFHlSKf7fOrBGBNv30J9FU32WX05FRqBaQ+XC/JS2Lv/n4EQI9tgZcDDuojBIbA2Ld8f5vVd7qArEKVOHMVhfHv4L4/AdBzW+AeIiAO7WuhihbyTIXE+RnPZbXFNK+K8OzVlqyii/HvxIOSALAt8MysXyWgx6782+zeoq6cZJ34UtI5MUsiABxCHw/zyNyujZ5x7CPSpgf8e2QWr1l3A1ByO+z4JwBsC6yU9RMB+Q17S0m/U/++sim3iyGQ8Y8AwIki4HJCr/+ZkUMB+JxzZlIPf1L7ONu0BePfgaY/mwBtC9xqk99RIkAl4Ngsv+o4njiyvn1DABRTbtdhxhDs62VZsv5LkWyUCNi3ly/oz/KRZar8pvnSMn9hey1gcR3wvIMoe9ZPBOzv2I8AoLRfez9Hlw2Bsv8VQXr6hRHYZmXw1mt8jz60iIDXJzsY+BjKM579KbKkrNc7xoG3pzghAOYYkzoY6ipWL84s70emL+hrBTwShhlaP1TaFysc96wAZDOEYJ/nezHTXb/3MKtdBfiHn01838r7WgFrN32OFgCZs/8lO98zcyMAZk0CEAF9gz4jn6mAimOBsv8vdjfvfdGLF7Rn1vFI2Fb2ARABP/wQRva0AjpUASz9+eT2pr0vmYi/3ws6z3hEBNQkDmvrd10Y1Om2QGWZT4x5R0wnMAn1cfs/0y4iAmpl+/r6WgEdK8Gy/0/mM49oUSgj9nD5X1/0gPyJCEjr4pftawV0rwJQYp9saDri93TI1D5Q3n1G1qwMJgKO3cFPlLsrYEoVQC/mE0f+EWqRAKjbU9wqg+8iAuLzuBb9vc3sawVMrAIc/uFnPezuqf4j2hTuA5hT8icC8m3ok+3P9OtcVAGOFwDxwVdZy3jU72ob4KySPxFwfpnfsh5kHUE/ugowvvTy6GKGo1oVGbZBYV3J/4iWEBGwX3alzI/shsCjqwDjyy6PrmY8yixiGdDMkj8RcOx9Hp5jVDEEHvm8js7+P1vFe2SJyMuoVEgEWNqD48n4nh2ZFI7O/j8zAB0pWPQja+zyJwLyiwDGPnS4LOgo8TrWcPFV7/3Iw1emMrPfTwRsO79PSGNCdbqUAMh4499lRdZ95Ja2Rz4E9O/3EwHvO/oZ+9AtRh21JXZk9r9m9O7IDNAooNEgGwOfn+EX+LEVkYRNvClQ9v+Aa8NyD86Z7ycCthEBF6V+7EjGscC9n/VxGdXazXtHLyfxAp4X/CtdyjNRBAj8mDoWuHd1eJSierT0515Q6NjvQV6zHxHw+AAU+DG1CnDZuQowSk2tzf7PWFlsEoDZ79nMoLMIEPihCrD/fTFjFizEQbPWNHTGjYWMgLMNP0SAwA9VgHcq12kEQMZLf57JsM9Qge4EmDvzqx0g8EMV4IwqwIhD9tnVimc8AIyA/Tf77Rk8L4Wz/8WEGd+P0T6oAhy3HnjE6N+z/fWzFKAMiNP/nUpAJRFw/f7T3e+ECIAqwHE+sfYfXIiRKn+DjYD7tKMqOv1fFQEVjI1fbQQkAqAKcIxPrP2H9krv5CwBwAi4/Zjf9fuM4F9BBMTZsLY6GCKBCIAqwO9HArd+JzY/cDu4J8/64o+8BnLCy3sZFvzPvoL3s/fwlcTgmckdYEIVYGszYGvz36sf1pnKjw/AmN9WIuDsw+vyoM9PBEAVIEeSuGmv9dIg+z/7S7cQyJhfBxEQ//ZWZmAiAKoA+2yNbbv3/51++pkCgA9A8N86YzjyANvr3yMCcBadYttuAiCTSnp3f/KZAoAPwIx/RRGwRbmfCEDW8yXTaPuWZsCW5r93FdLZf49DTvCvJAKOrDIQAVBd3G5kvOWH866R7uxVxvYBCP57b93bc5kPEYCO+0Quyd7lNAIgU3lki536ZwsAPoB1wX/Kgp+MImBLk9+rf4eJGUyuAmxhBmw3JrGFi/5sAeBeAMH/jDW8a6drsqxVJgJw9GKxbmbAVqpoSwNdx73PVvviVgQ82z45O+snAnA2mVqOr6y531QARCaWqS+y5ZakawN1J/hjCxGwtXeACIDFQDkSxTYfxrujf9nGGo0DCv5HvTefiYAqFwwRAZi4GOjdRLFNOWTrjDlDxuNAE/yPEgEfW3nZs/5HImDLLWlA9sVA72y8fUsAnG2U23M9YhZvg3FAwf/oCZrLzf+s2tYgAjBpJPCdNkALFbRHuTyDANhipLG66zab6az7iGCHdcpEACaZAd+pfpcuke+ZKWcQOJfBbYA4wK+C8qGHyFJKzLb7nAgAM+Dnz/qrbYDy5f8t9yL/kvBK2YltAMH/2MPjXgmxw5XKF+O0GGIGfPU5Lx0c9xyXy6LwotIi+GOvZ+uzClO8AxciAEjfBn81Dpbvf+z1cmeqckxpAwj++XZmdPhOiAB0NwO+2gYovfzn3RGIr7gUO6wFf+wxKtdlEsNUDTqbAV8RuaXND3tvy8ty6HVvAxj1O97oN/X+BSIAXc2Ar8TD0rv/93b5ZlJ3XR3Ngv95Rr+p1y8TAdjyYrJMFfHdBcA1USlz0vWPHdsAgv/5Rr8O16J6n+Ca4NcSxbLljiNe4EzTDt3uBnClb+13pMOuACIA3doAzz7TZZXOEc74bjc/Cf6Mfl0FMhEAbYDn/WJMcV98sdl2tQv++Ord2HMypuOuAFdvo1Mb4Jn3/6kxrYmqPVOwqr4aOB7MajfMyWZnjHASAehSLX6mUlyy53dkEMxmeKpcsuzgIO/s8p9u6HxnTBLaAJeCYrbc4X20GS6b2emVUQ8lst79/ixVoQ7tnTjniABUPuOeiRHlxv+OzoCzGQErmgE7OMZlrHN2BRABqB4r1pqAy/X/j16Ik80IWM0M2MEpnnG3ffZlNtUrPlHJIAJQtQ2wNlEulcGdNQufsaxZwQyYsXpixE/lp2J7BTXIYnJeOylXqv9/llM3YzaT3bXcYTxMaVoFiAhAVdG75qwo1f8/q/ed8RB79SbEyB7jc4wHNQilGFxWlp6X/34Eo+VnxM+7/V3c7Gf6o5MYrFR1wfnrzSt5xcr0/1+977jbl/pMUIjvLsRLVAuOKE2FKFkrJlBnxM+ugF+/ByIAlVrGa5KGMiWNs0veGX0AH6sA8Z8jWMRnJQM34ufyJyIAc1vGa3wAZfr/Z7ues7qaQ6DFZ2PJjn6/VdDHTGB0uZMDvc3P8ay+LQCyZJJnZ0Ic7WDwtCuACEClccCvKlYl+v8ZrsJNsw/gmwDZmezz/XYFzPyuUHPt+Vc+AP3/4j4AMPsZmyICYPz1laVxJRR6lpfMPnsYM7MroNOIJnpPjn11L0CJjDeLE/pQH4BS/wjCqWvlbP1dAa4TRsX4mb7nnaH/n9HcAZf5dCOqIJGx+D7BB3BMBT296z2bstYGgLKxXQFuEkSHHTrpf/lsxijjgDBCZkxQWwdVtuh+VkVPX77IeN+5NgCY/VTbXCeMCnt0Lp/E0Ye/eIZeXKb+vzYArPU9Z0Lg4juH64F3WQiUeoQhq7NWGwDMYce+b1dVH/ABbN5KTx3gshqltAFgPIw50CVCqJIsPjqHUpe4M7802gDg9D9eeGcpqTJ/otIK+UcbAdMaAC/fc5totAFgRSzxTQSgwkKgRxsBGQDfUHZXgQ4OeXcIEIcoIFjvJdRpSxYVeqfaANDrZQ7UHkKFuy7uJSZplxdUUMlZPitwe09etlLVHMggaiHQ2aIzbW+7ymHqimCY92YONCKK7EbAe4IzZVk7ynrKO7D2Fc8cslVbcu4PYAQ8y1eXUgDEoVrp4LETYCYObuZAq4NR5WbAy/cVAiCDUqnWG/uXaPomKKbmm/4tc6BWEuYK04/P1x9+0UtSswKTBzi40d0cGCPYR/if4t8IoRTE8/yRaG0u/3fm1j57Yz5+lykDWbU56ix3J8B0CupfK3zd8AyMs2kJ8vFZvLPjJQRVVL7iZ8XP1LKoFyM+PlcmADY4ZEwCWPAD+zqyPG9xfsbffMS5FKIiBIEqQY2rgT9WL9P1KS6FJgAsA7LgB3VKsJfGFafIMOMsOnOLawiO+H35GPJeDfzRu5QumGVfAaz3L/ijri8gw5rzLT0nIWwytjkilqiY5Z+wSzeqUMVdrfQv+KNmL7bi0qCP52IE1wrnT3zWhECeCvvHS4GMAA68jARfjwYK/pYGZdw7EcG0ooAhBPIsjbs1b6YzKVR4SCIwWP4j84eMDM+LmKkegYwm+3T7iiscvFX3jkPwR58bBSu/YxPHaTOOAqb75bLPlmZRcbCJDdsdzPw857QFpr1v2RbtpQpsFUYAHRR9sxLB39Ig70LPzYfix32fXSqDQvYRQNl/b5T+wRdwTuI3pSWQbdIu1YOf/RZA2X9/g5IgCL4AE2BTdgGk+sUyPwCyf1UAuEwIRED1CtNtpd0SINk/XPMLvgDv4JBdAHcFQIbRtqzXrMr+Z5kB3XIGvgAioHMs+YMAyLAjO+sSIBf+uPIXfAF8AURAl/tjliTnx05g/deHZUBb/+btAxD0sLsv4Jt3rWpVuPoyoGXkOZUAyDiHnWV/M4hR8AVMpNsdApnOt1SqxNpfKD+CLwAf9wR0EuSZ7txJIwCuCQVAln4NtAHAFzB9bbBtgNv7nNI4EzMeuFS+NoBAh019Afr+4/0AmSbuCADlfwwxIIEvQCvAOuDbFmcao1u2Eg/3PzqVHaFiqDVnrDytAMi2h93yH2SdTAFfgD0dhOJmAiDTL0SlwQgSqs96ax/uRyytq7ytkwAoIADs/odxQLzTQpRE8OdkFQBLxT1NtpvpC42X10sGPgBYJJbXEFi1CpDJc5dGAGTq6+j/4/agEcjgLFEFaCsAMvSrMgkAbl7YBwCjxCYCCICBZiu9O7gdEDaJMul2rQot4okAoNrBCAiJREmyjY8TAA0EgAVAqH7I4HwjcYyreX+YAQmAQgIgy82IMAkA5j/0a9FlaA0t5mYCQN8ObgaE8r8W3bAkkwCg3PHEywJYJKYNQAA0FgAWd8CdANBGNA1AAAz8Au0AgF0AkERYCkQADBQAendwKRCcISZ1CAACACAAYI8Ioy4BMKHESgCAAMA7XL0vp1DFCJhl0kwFgACAdcBgAOTTsQiIACAAQADAGLEqHQFAAAAEAAgA72hvARAOSgKAAAABACOANgIOEwAZgl6WA5YAABMg7BEhAAiAgQLACwyLgCCBIAAIgIECQAkPVgGDACAACICBqxyZeOAyIBAABEDnJHO54jxN2TuLAPir64DxgT//hQAAAUAA9GkzEwAPiG1SXiZUXTMKAoAAIADWflbpfqEMXLxMKHiwwOHuPSUSnxYAGXoSmb68yPi8UMhWnYL+Luq/pwTAJz0JXxDsAIBNgOi6rCvD4r1FLKUbS1DGgxFAVIWJmFCvcF307wRAhoc2k9PaSwwTAGAiJtS7CoClWpLqCstMLzEjIIIo1wls4CHKzbXQro4Mz8dSLUmlWjMpOC8xGADBQ0Sod5wy+50A+Od/sG/dSwx3AICHyAhg+xbRcq6lLEtw80L/HyYB0M0AmMVftlTbUwmATGMcfACwAAjOjvzEZ/3TzzUqdVnE4b8q/xlHE7QBYK4Ylckw6z2FTDtkKiyKuq1sptxO5MtCBqpkFXDQM+ryh7yyc4cAUMpD8awCzF6MuiZEXpmYSKtMLG2A8j8q4+wg1DM+E7eJdqqSVcZlDhy9M5eKKP/D2ZGfSBorrerOYLa/bZmke1izHbzx+4RpwsvG/Q84O3KO61ZpA1ySVTfTzSdm/CIt9tBTBJwduUcBs7ftsqzcv92ZkM60knGhQ3xxzIBzSooCF5wddat3Wdt3GZPs1P0J7k14/uBuADxrDMzoC8gyGnorkFI7FKk3HN1LZP7DHlUAXoDjjbzZqskZhOBHo33qGUXbvSD7By8AOrzTGeLHxxZn6i1FqgCQ/cNEADr4AjK02D8m2OnmVrNf7KCfJ1MA7AWwL6DiZsiPLfb0LkWuXsj+wRCIyr6ALLH149+ffk7RS4zpzxt6tQIylIJV+2ZWfz4m1yk3FWXfxKYKYOsfwEvEF1DNBPrxby5hVHDdJ/bym1TaIw5TAdjWF3BUuzlD1ThanR9/r5SjChkvBTIW2JBvv4pN/X9oJfIFTJsAuCsAsijTCpmZBR8cwsA7fgBJRH9fQNYJgLsCIItZoYoxy2hPn0zAJUBgCpzLXtXALJ6Pe5clpb2xqNJctlKeG8UAIoAvILPf497fdfcXvnJne4FNBghOcIZIBNokiPeqG2V2FlcY7bl6eVrdKMYcCCLgWJd6Jk/EVqOCGb7TexMADwVAZsWS3Q9gP4ByIPCOCJjYUrw14sY5ek34e1U2AD4arU89415xQ5v9AMaEgC36xlOSiXvmuwi6Ga6nf/cMyGISf9TWTO1arNqLZQo0JgRs0VbsPGZ8WfFeZRJCr5wBWQyAjwTMw7LFJUkfturLa77X+lBAS+Dx2b62vRb/vSzeiPi9n2kJZPnuHv3OqY0L2a8G/mpJkKBpaRCwlb+oi0HwlcpuJiEUVZm14iWzAfBTAZDlw67af+UF4AsA9qgGXAoH/nfFc6a2yFctgSxJ4Gd366TvXVTtvWoB2BcA7FVdrCQE4izccpomUzXgs+2BWZLAz2Jo+vWFFW4GzOqhQL6eILC1EMi4f+Tym0Dec4w2y7jgo3HhClX0Tz/ga5Jya8V+neA4a4GJfQE4M+GIbDPD2FwEw8g4j/JuhQjKUG29N9GQxbPxWYLy6YebZQ6z2uHqrm+jgsBZo4OReR4ZfJagf+Y5HQLokqglkKWC/pkB8EsBwAfwGlmEE/rcKAa8UhmIamQIgi3PpPhZ8TPjZ2dqf0XQzXD2RtDN5FF4WQBkKWVX8gHo/8MKYWSuEMS5HklVsIiDe8T/bfnvxf9PlWdaBXZ98lxij3GlfQBPi6ZvHlI3igHYWui4XfHrceUSiwwq7QOgPqElANiiWCFxLrPKsMrMtf4/7vUELQ4CzqvKdr5T4Z1V+mVG2qISof8/lCZtEouDANWATOb5Ujvts5tQzP9jy0tQAPRcHpQlXq760LL4ALKPA+r/Y+1yKwZB4LwNit1Xta9doFfqSsPs1wPr/8P1wkCdC9u6VgPWjs6XKm1nHgfMMjJZcWZ+8riOnQGAasBZ1fJywS2rm1r//3mFunyX08d1VAMA1YAz/HLlyttZndTTA9ja28HiRXsU6KZ7KFQDgHOrAR3auM9coFfO4Ja1DWDr1P2AtuwMX/udZbnUQzUAmEnEusuA/v9TAiDL7UYZ2wD6/7+qznjwlr3h7wSwSaM6qgFAzlXCVasBz0wYPfWhXBNlSNkelg7z6Wv4eEHIu8HeLu/n7hgHoBrwGc/c0Fiyz52tDdChd53pWs/bnpzWiuVBgIuF9hmVf9opWbHMwQBY97plEwKqAYBzaJ9leU9nZIJWPwNghYtqbFlUDQBUA7Zdl1822GVpA1Q3AF4TL1diDjQpAKgG7HdhXulMLEMboPoCoGo31DEH/v6Fd80wcN5ZlOma4VfO8tKO9wxtgOql6YoBJBS4exdUA4CzybRG+JWzvHzP+2z3euU90pXK/7YvumEQyDalVHH739sCINPBe7YzunI5ulr53+bAdVWxjCOdQMcdAdXP8vKLb6IHwwA4p/xfoReXZWRQWwCYkfy9epaP/uMnGwCrl/8tDWISBGx/fW8irkX54ywzYGUDYIfyv6VB2gLAdP/RO2d5GwV0xgFX2QDYOTPkC8jTFohzIp61+E7i34/Das0dE5YdIXOicWlylrfpgZxhBqzad740K//bF/CcZ2Yv8RfPVAT6JchvcUgu4mCvS6eAypXfd1u5bT6IV7YgdRkB6bT7f+uAVLlKs/czsEWWHe9BBP2jPucQBHHuaGmA+e/9Vm6rIHhkWbuyAXDavLh7BLZfIhTP/9l90BAdTI6YbPx+9/l/+wPJtJHtSGNbppsRO1z9e8SLa1TwcRlxrT8gnvtsrZX4Xo09Yprva4uqd6vs6kgzYFW3+bP3RXfb3GWF8Gtjg/G/z+6pIASw9/mRyfy3he+t3YdyVBWgam/ZnfJaAmtE4iIEwidQTTTtaXSEc6Pq1b+7CIBswfAoh3tVh7nxKlMCz1QEqvsbmAWxlaE4Uwtxq0puS2PE3llu1RXAZ65NtjgIZ/kbVAPQLcZtZeRuORMfv8ueVYBMS5Cmb/+zOGhjvvWddvCso0PFd0uvW9v+yJ6qv+oIoExIS2C6t4FBENXP+y33uLRdjLPnYqCqJjKHn5YAX8NPfAEobfjeMpHzQQ0ZATx6U6JqAIgAuPUv9zmuVFJ8+ZEeqGoAiADMyP63Nri3vyBnj7G3q/6/agBaiABtMVTJ/vdYdNe+PL51FaDqJUAOOtUAMAaibva/RxV3xC15W1YBKk4A6P+rBkB7DHU33O5VzR6hnLasAlS8BMgBpxoAK7JRt5K9VxI3Zk5+K/VUcQRQ/9/tgvCeoG72v9cV7mN25W9VBaiY/XE7qwaAKRA1z/g9N9vuul61o8KvNgIYEwteatWArit+tcuwtc/nMuiZHHN70lZ9lGomsL12IUA1QCsAnP+1K7ij7k/e4uW+ymjAG9C+FeBZNvc/IYHbPSu6NHq5K14DLJs5rxrghsG67GW6guz/7NG/wwRAVtPcq0Gx4jXAez9A+NxNnPFQwflXisONf2uWVO39d48cqXj15a62BIgBMM/hYoGQ3QDIS8b384jq7djSyisvd7UlQEcoSKxvC8Qzpy3ACwDZf5Znb6y54pWLFaotAWIAzNkWMC3AQwPZf4bnbrTB4lmHZbWD2+E1uC1g7t8YLUomddGiPurvH11meTZIVjN0MQDWOICuAq1NmjilGncd7j0ZX2p5ptdSycjFAKgtACOBqFXRPXr6ZLzZ4hnFVWnBCwNgzUUk1VZNT8C7xPjXdfLEsoXfVNeaMh8DII4gMk7bBHMZhu0E6DWRk7Gae8ZzZt3iyoAZAoEBEEePDfIHeJ/Q3/h3VtJm5eJK01w1AcAASAhARQ35F9OduXnSpQsr7wOvtAXwwgDY1ihokdC5I4HRniGu7fvvsnXSF7Hyi6gkAGwwMzGA/d+x+B7iXOAPYPyreu+EqxfvZM/3FH6lNcCWlxACOP6di+RBdYDxr9KYqXLMyrGfSgJAv3LW6KAbB/MlEXGGhCBQITDzn7lae/rhVeUmsEr3ALjFzA4B5GwZqBIo/WeaLqHMVl4WVKncamRprggQbGstGFp8BNYNzyv9Z/BqGctY2QqoJABkGDId1ON64yWI75KQ75tgZjmnLWZYadCo1GfVc5y7QVAg7dk+WDwF8R3zFaxLLDML4ixGbWWaFao8HqYq/VWXABEAmFMxWNoIS9VgWvUvYkf83fH3x+cQn8flZrxO9l9AAGQvX8ZDVeUmQDsACABgObduBcJta6GKUFgy+Y9B/quELHPClmlKy5amJ9S2EUAQAOgqFO4JhoWl9bAF8bM+/vzbwP5uspU5WVt78dxIARCq1KpTAgAEAPDq9Fbm0v+ZS3/SC4BqbnsPGEwBALlaoNqzhQVAmDrchW4HAOwBALoE/6zj2UqZzbADYPbok3cAUyciMrePs7Zm0x5mVVz3dgAg1QvtHcBAMleNz7ztr6wAUM40AgjCGahe+s/sy7LGkQBAI9wMCJl/7ptlCYAGGwI9bMhIpVsrgXdH/i7Jf7/sniyjTY3Isl8a3hdgevZfYSeLG50sAUKz3ejeBej7n//7VTBklznU7AYgALCOKhdXAV3XslfZx6K02Yjo/wqA4ANA576/RGygANAKIABgIRAIAKX/oQIgDrarl8A9ALAPAIK/0v8sAWBNsHsAoA0AwV/pf6gAsOyEAMA646yrtQGl/3YCIFoBDrc/8rd/uAcAPDOA5KuxANAKIADgPg1A6X+oAJDh/BFBD9plgNL/CAHgroDfm2QEPGiXAUr/IwTAUuZ0wLkJECplgL0rwwSAkScCAF9XAazSRhm+5f8du9y8qtdJAMAtgbg52N2lgK9uIexiuJblEADQCsAdQ1e0F2PaKD43ogAd963IchplLoIc3Kr5uon2rz99ndURBUb+Op0JVqASABjWCmCa3Tar+ygK3FfS94ytPPI3QgDEFzRRmRMAIALyZHVxDsXnfCsMjCzX5dp00Vpb1/OVAAC0y74gzMNnfPZBVCvj39dK0PcnAGQ5BACs0z44+Gcr6d6Kg1uBoK2g708A8AMQACACmgb/tX6DpbWwiISlxRAweer7EwADR58IABDKvYP/q2LhtqKwsAiGBRWG+2Oh3S9YGzH6NKHHRgCACJhdzt3aR7WIh0d8FBWfUc0AuXYslAAo8jB3d+ASANii/9w5E+ywu10VlumPAHBpEAGA3d6TbmI5+uJTDvRs1deKwX9SlcjoEwEAtDi4J/f7tV7rjoUSAMpR7gKAasDGi1vCKe971HJ99S4IAqApHU2BBAD2NAheC5m3QuTL+onGqTf8EQArylPd+pwEAPZ+Z7ILgQj8Ew9xJlKOfwJguCmQAMCRQiDLwpnrb4F/6gFu8yrHPwFgXfA//w4HEY5+f8I0dZbgjR6/Ur8dEkZDCQCrUAkAnGj6Wm69u+486RIHtjI/U7VxPwKAgv2AbAhZ2mu31+BeXgz28f8f72ZUGjzbRkWN+xEARMAnyIyQXRh8tlpWH9+Yn90QBIBy1rN8Y2YBwOlv1p8AeIuzTE1bGQGJAACqpDNv9yMANuhtVRYBzC0A9Pst+iEABi8KChOVBx7Au/3+6ptTr4MX/RAAg0WAW9AAvGPazLLwSVuUAOB2tewCwEH9/st3wZ8AoIJLu15vWwLcrwC+Snqqe6AEfwKACHjQEtALA9BxxE/wJwCIAC0BAMNc/oI/AUAE2IYF4MkzrcvV6II/AcAZa0oAwKCsX/AnAEwHvLk4SDUAkPUL/gQABooA1QDAeJ/gTwBgqAhQDQCM9wn+BAAGi4D4e4wLAsb7BH8CACsMNd1EgGoAwOhntz8BgMEiQDUAqJn1d5lWch4RAGVEQPWbsz6rBrhdEMjv8O96BkXwdwYRAOlFQDezzW3pzRZBQLnf4jICAJ/Q+WUMJc6AA+QZ7bs2PWt4kQiAsvzn//7c9qVcVLmSHHBen7+j7+hj8PddEwClX9JL4xf08ltbgEIHzPRvSSRQvm8CoIUxp6MjV1sAOLbP322Tnxl/AsDCoEaEA9nLCyj3m/EnADBkQuCeP8CLDLxfPZxyZhjzIwCM6zAKAiqG/5h1TnD6EwDjRnemvNwWCQEC/yPsFiEATAgQAoBS/6Cz4MrsRwB48WeYAz+6fAkB4NckYFrgt9OfAMBgXwAhAIH/57Y7+631JQDw4ubAy8ADwdQAJr3j0yp++v0EALQE7BHA2Arf9MCv308AwL6Ap3qEcWgqFaL65r7uW0DXiHrVPQIARgVfyhz4BFCtihfP7HX4u2u+nwDABofJ9Azi1jCojAhlfiV/EACjDpepjuF7hCAKMaCsiAxu/ngWL97L35X8VewIAGgJHHLY8ArgjG19sn0ufwIApgS0CDCkxK8S97gqpyJHAMDioBQTBFoEYOhj9AMBoBpADBADeKrEH6Vs79bXWb+KGwEA1YBS5kGHFh6Z+QR9WT8BANWAIfsFiIG5WX709Dn4n39v4nPzDBEAUA1oZSCMg834Uv9+PqH8+n0d3g8CAKoBI3wDBEF9QbyU9pn4ZP0gAFQD8LIgiGCi75m/lx8GPuN62/X6iWACAIWrAQ7D/QSB6YJzn+2lj6/itf0zzh9DAKBRZuROgf08BCGyiIJjgj1Bu++zbJsfAQBtARAFgj2THwgAaAtgq9LqIgwi05oqDuJvjr89An18DkuwN5Kn3A8CANoCxMHf6wqEJcDH3xFEdhl/Gzd+vnI/YysBgOFtAZlXnZGsCKRBBNUlwN4Khnu8Erw/smTrH1myd1Ul7n4QAChako2A4nAEel+fzY8CAgAP2wJGqgB9fhAAIAQAFG4Z6fODAMBLRN+XEADc2AcCAIOFgIkBgMEPBACGTgxEOZEQAAR+EAAYLATMdAMCPwgAEAIABH4QAJgoBJgFgf239wn8IACQdnzQRjhgW8J3EyJb4AcBgBKbBd08CLy/wCcmcIzzgQBAOSJjCSHAJwA8dzWvzX0gAMAnAAzq79vVDwIAfALAkDK/db0gADCyPWCxEKaO8SnzgwCAqsDff2YaBDc/QABgslfABURg6gMIABglNEGA0iN8sn0QAMCbLYLIogQWVDD0CfogAICdWgQhBi4CDpIEfeN7IACAg8XAYh7UJoCgDxAAGD5JYKwQe5b3BX0QAEABA6FpArzr3mfkAwEAFBYDkbnxDWBtaT+qSTbzgQAACAI0XswTAV+WDwIAGOodCEHgfoIZF+6E8NPLBwgA4KGZkCDoU9KPDF/ABwgA4OmWQQQQoiA/8f0sPXwlfYAAAIiCZlxvgr3sHiAAgFSiwAjitll99O1l9gABAJQhAlYErhAHy/RBBDUTCD+MefF5LOa8+JwEeoAAAFqzrDNeJhFuBUKX1sLytyxZ/JLJm7UHCAAATwiFW7GwtBs+skf7IX7m7b9xG9BvM3fZO0AAAACApPx/1LOtpjWqedcAAAAASUVORK5CYII=" vertex="1" parent="1">
          <mxGeometry x="360" y="180" width="40" height="40" as="geometry" />
        </mxCell>
        <mxCell id="66uHyciYdJMsds9IyZAx-32" value="" style="shape=image;verticalLabelPosition=bottom;verticalAlign=top;imageAspect=0;aspect=fixed;image=data:image/png,iVBORw0KGgoAAAANSUhEUgAAAgAAAAIACAYAAAD0eNT6AAAABGdBTUEAALGPC/xhBQAAAAFzUkdCAK7OHOkAAAAgY0hSTQAAeiYAAICEAAD6AAAAgOgAAHUwAADqYAAAOpgAABdwnLpRPAAAAAZiS0dEAP8A/wD/oL2nkwAAAAlwSFlzAABcRgAAXEYBFJRDQQAALzJJREFUeNrt3T2WK+lxrWEaMGFyCBrGHYAmooHcYWgaMo9xDBoyZNC8Jg2ZNNug0U7fFexOHnQ1UJUA8id+HuNd4pKoOlVA5hc7InbE96dffvnlTwAAYBY+BKAQf/vHL7/8199//h3/928/+I//949f/s//bEv8zNt/Y+E///fH7xC/l+8HIAAAPMlff/rlDwH93//6awD+t//+6Zc/fa9D/L73xAOxABAAwEhuA/ySqV+/1wruWxJ/f4icW4FAHAAEAFC6RC/Ib1NFIA4AAgBIWbaPPrhAfxx//stP/6oaEAUAAQAcGuyr9eS7c/3+o1pAFAAEAPAyP/38o4wf2abMvh6X30RBCLb4LuM79WwDBABwN+DL7vv7CggCgACAgC/gD+e2QuC9AAEANO7hR0k/Dn3BD48EweIj8M6AAAAaZPl6+HjFQxDPThg/tQtAAAAFZvDjwA7jniCGLYlnKp4tEwYgAIBkpX29fBzdKiAGQAAAJ2T6gj6yTBbEsxhC1LsJAgDYsbwv6CO7GFAZAAEAbGDk09NH1TYBAyEIAOBJFvf+RSBBk2kCLQIQAIC+PrQIiAEQAMCS7QsQmDZWaCUxCADI9oHBNxlqEYAAwIiZfdk+8HlVwFkBAgCtyvx28APrvQIxQeDsAAGA0iN8yvzAa/z5L7+aBvkEQACgVH/fBTzAtj4B0wMgAJA28JvdB/aFYRAEANIFfoczcOymQYZBEAAQ+AFCwLkEAgACPzBRCGgNgACAwA8M3iVACIAAgMAPDDYLmhoAAYCX5/i5+gFCAAQABgV+c/wAIQACAMNW9trcB/Tk8psQsFkQBADs6m+6Pja+y3vE4R/VnTWEmezRz9EWqv+MGB0EAeB2vn8e9A7F3ONdt8E7Du5M98jHM7T8TnH3wyIg4vddfvcIOL5Lo4MgAMDgh5sd73EIhwhbAucSTLsKzvjbbgUCcZDDH6AtQABAnx87lVyXIB+fv6xrnTjw7Bz7jLqCmABA43l+5f7jgz3n9fvCIAITUaAtAAIALxDBSLlfsCcKoC0AAkC5Hy+MUAn2uZ91gmB7j4q2AAGAoiY/h9h7hHiKz9HIVL3nfxEEBPA29wsQvAQAimRCnNXvZfmR9TjwCAKoBhAAkPXL8tHMEBvBjClWNYAA8CHI+mX5GCycF0Mho6xqAAEAWX/DoL9gxAlrWgUuw1INIAAg6y8e9O+N7jm08MxkgfdMNYAAgKw/O99+WlXGjb6/GWe8Iga8Z/YGEAA4bQEKF/P9bP+V8qUDC696BryHbhkkAHAYcejoS26ftXi28I4g5xdQDSAAoOSfONv/jNjs5znDFi0CY4W/v1OA14YAgJJ/uqD/ESYmbLljIEQl4+CvBkEtAQIAL5b8LwL/Yf+Ogwq8AlptBABOPzimlxIvJ2UrdgRAe0BLgACAkn/SEb691wI7pLC3afBiSsDzQADgY5ZwlfGnuBuAgxl8AvvBeEsA4IZ4ITiHc6049VyCT2Dfd4zQJgCM+A0b8bv8ZgqKg49xCfhh+p1WEYi/l++GABhbBpyk/K+/BdXbHnt2Y5RSJY5OCKa1BkzgEAD6/c1Vfhxq98p9IQayG6IcTjhLCFz5AkAA6Pd3Xgma/fOQoYAQsEKYAIB+/xMGn2d6e9lbIXYEIMPZcWEOBAFQ8wWORRjdX94I5K9kyxFcLwX+NjsCcLZvaEIS4V0jAJj9ihl5HvX511LhYLMjAFkWCnVPKEwIEAA2+xXp222h1iOwVvislCiRaXTwakIABEDO4N/55YwMZGuFHi+7y00A3iITAgRA6TG/S+PS3J7X51Y5zIgAaAt43wgA/KEsZ0ynfytAZgJtAe03AgDtZ/yfHeub0goI9qyGANoCRAABUICOL9yZ13dW+TwZlcCEfLz/iAggANKo7ew77Ssq7UqtgItFQVANMJJLAAj+HS7tyVLWrrAgyLZAqAYQAQSA4N8i68+2gauSr8IGM6gGeOcIAMFf1r8hlcabZCWoMKbc6cphIoAAEPzfMNRkf3kqXBvMpATVACKAABD8bdiyX+Gfz4l3BqoBRAABIPi7aGMDqn3+tpfB2eZsIwC8IMb7ho0G2hYIi8xM5BAAgn+aWfUOW+sqbQm0LRBaAkQAASD4n94b6/QyVMxUbAtEFaKP3uFiIZ4AAmB88D/iAh+jgVYGox8dpgSM5RIAYx/+zv3nUPZXZUlg95bAlQggAAT/WoFmQrZZ0Q8Q/VVlSVQT29XXCLtFkAAY4YSd1veqKNb0JmcFzxCqC3G+LERQilbWLdcNk4CPPzveleXfDmPq8juteRY7LA6ym4MAaB38u/b7u40GKkv2efZuA3u8f0uwrbwZNIhguYiFW5HQ4Yz07BIA5TfNmTf/QaVbA5Ulaz5fS5CP76zbrXrPCtfgQgQQAJ16yRf9fgJOWXJ8oI/nKAJ9ZMGTA/2aqZarhIkAkD2a7+cHkJFUDfZL2V5Qf/0Mqvq7W9A1XADEIXBl9mvVk616mMtI9jXiCfZEgAVdBECL0Ra94177AYiA/QK+Mj4R8FUrY3IVVabI6W8/gLKkgI+xImByNVWvWK/YSKeVwSXH7wT8nMG0oqcqEsKJiZXAoDzclqpVnullyc+y/C7Xcncmtl1eJVgEgNKwa3wtCXJvwDvvqyy/7vN7lWgRABz/ZvyNeepNPhv0r4IoEaAFRwBMzQRlgEyBU1YGC/pEQLbfeYrwHhEAqvUNBX/Gz+4iIJ7v+E6iXyxQ9hcB1b7nKXd1OPgF/zFUNpB12P2wBH09/Zmrg6uJgAlruu2HF/yZAomAXT/zeA8FfVQUAd1Ngcxfgv+4cbLKZecqo0pLtn8R+PBBBFQTg51NgTI9wd9kABEg2wcRMPB81vc3dmIygAiQ7YMIGGgK1Pc/+SUIBGRCsVp/Mg7D+Pdl+5jiCei4KVBp9+TgHweoYEwEVBEB4aEws4+pewK6VWv1/U8UAC74cTNklRsElzK/oIXJIqDbkiCZ3EmXZbjkJ9dkQPVS9l4iIDKe6gIJNc7EKtXbeB8IAH3/t4O/+9+1jzKaSbn5keFs1HojAFod3PcOVBMAJgOyiIDF2Ke/j0xnZFY6jAbq+5/8YJv/z0UEwOoi4NlnSuAHETBzNFDf/+QHesKFE56rnItLBH4QAbPvC1CuPfFBtgPAZMAZIkDgBxFQawqHAChY+v/K1GIHgMmAvQ/Q25ElgR9EQI62GwHQvER7+f71WEuncZKukwHXBgdo/B0CP2wLNBpYXgBUKf1fBvSPTAbkfwbjYAoRIPijcjvrohVAAFQp/a89bG0BtGdiz4zk9l2J/+yyHmgF7Cu4q20JVPo/cZkFAWA8cI+D8pGBkQgAEWAqoKQAqFCKfbZXZQ0w78mWVacI/JcVhygRACJAK6CMAKhQ+n/FqEIA1CMUfsZy/zPPnxW/yFy9uqXiyuBKFwbJvE40qRAANUdQs4iAODBfDeZEAPaoQAVxXsfZFkTl9pYtFp/Fz8luaq3S3lX6P/ESCxcBWUH96vO2xaIit/zh2QC/BPctA3rXuFDhnhcH7Yk9KQLAoqBXxvouw3qqOPY8iwrXbZBnzH1dqGdf9c55feLhSQDUFwFHlSKf7fOrBGBNv30J9FU32WX05FRqBaQ+XC/JS2Lv/n4EQI9tgZcDDuojBIbA2Ld8f5vVd7qArEKVOHMVhfHv4L4/AdBzW+AeIiAO7WuhihbyTIXE+RnPZbXFNK+K8OzVlqyii/HvxIOSALAt8MysXyWgx6782+zeoq6cZJ34UtI5MUsiABxCHw/zyNyujZ5x7CPSpgf8e2QWr1l3A1ByO+z4JwBsC6yU9RMB+Q17S0m/U/++sim3iyGQ8Y8AwIki4HJCr/+ZkUMB+JxzZlIPf1L7ONu0BePfgaY/mwBtC9xqk99RIkAl4Ngsv+o4njiyvn1DABRTbtdhxhDs62VZsv5LkWyUCNi3ly/oz/KRZar8pvnSMn9hey1gcR3wvIMoe9ZPBOzv2I8AoLRfez9Hlw2Bsv8VQXr6hRHYZmXw1mt8jz60iIDXJzsY+BjKM579KbKkrNc7xoG3pzghAOYYkzoY6ipWL84s70emL+hrBTwShhlaP1TaFysc96wAZDOEYJ/nezHTXb/3MKtdBfiHn01838r7WgFrN32OFgCZs/8lO98zcyMAZk0CEAF9gz4jn6mAimOBsv8vdjfvfdGLF7Rn1vFI2Fb2ARABP/wQRva0AjpUASz9+eT2pr0vmYi/3ws6z3hEBNQkDmvrd10Y1Om2QGWZT4x5R0wnMAn1cfs/0y4iAmpl+/r6WgEdK8Gy/0/mM49oUSgj9nD5X1/0gPyJCEjr4pftawV0rwJQYp9saDri93TI1D5Q3n1G1qwMJgKO3cFPlLsrYEoVQC/mE0f+EWqRAKjbU9wqg+8iAuLzuBb9vc3sawVMrAIc/uFnPezuqf4j2hTuA5hT8icC8m3ok+3P9OtcVAGOFwDxwVdZy3jU72ob4KySPxFwfpnfsh5kHUE/ugowvvTy6GKGo1oVGbZBYV3J/4iWEBGwX3alzI/shsCjqwDjyy6PrmY8yixiGdDMkj8RcOx9Hp5jVDEEHvm8js7+P1vFe2SJyMuoVEgEWNqD48n4nh2ZFI7O/j8zAB0pWPQja+zyJwLyiwDGPnS4LOgo8TrWcPFV7/3Iw1emMrPfTwRsO79PSGNCdbqUAMh4499lRdZ95Ja2Rz4E9O/3EwHvO/oZ+9AtRh21JXZk9r9m9O7IDNAooNEgGwOfn+EX+LEVkYRNvClQ9v+Aa8NyD86Z7ycCthEBF6V+7EjGscC9n/VxGdXazXtHLyfxAp4X/CtdyjNRBAj8mDoWuHd1eJSierT0515Q6NjvQV6zHxHw+AAU+DG1CnDZuQowSk2tzf7PWFlsEoDZ79nMoLMIEPihCrD/fTFjFizEQbPWNHTGjYWMgLMNP0SAwA9VgHcq12kEQMZLf57JsM9Qge4EmDvzqx0g8EMV4IwqwIhD9tnVimc8AIyA/Tf77Rk8L4Wz/8WEGd+P0T6oAhy3HnjE6N+z/fWzFKAMiNP/nUpAJRFw/f7T3e+ECIAqwHE+sfYfXIiRKn+DjYD7tKMqOv1fFQEVjI1fbQQkAqAKcIxPrP2H9krv5CwBwAi4/Zjf9fuM4F9BBMTZsLY6GCKBCIAqwO9HArd+JzY/cDu4J8/64o+8BnLCy3sZFvzPvoL3s/fwlcTgmckdYEIVYGszYGvz36sf1pnKjw/AmN9WIuDsw+vyoM9PBEAVIEeSuGmv9dIg+z/7S7cQyJhfBxEQ//ZWZmAiAKoA+2yNbbv3/51++pkCgA9A8N86YzjyANvr3yMCcBadYttuAiCTSnp3f/KZAoAPwIx/RRGwRbmfCEDW8yXTaPuWZsCW5r93FdLZf49DTvCvJAKOrDIQAVBd3G5kvOWH866R7uxVxvYBCP57b93bc5kPEYCO+0Quyd7lNAIgU3lki536ZwsAPoB1wX/Kgp+MImBLk9+rf4eJGUyuAmxhBmw3JrGFi/5sAeBeAMH/jDW8a6drsqxVJgJw9GKxbmbAVqpoSwNdx73PVvviVgQ82z45O+snAnA2mVqOr6y531QARCaWqS+y5ZakawN1J/hjCxGwtXeACIDFQDkSxTYfxrujf9nGGo0DCv5HvTefiYAqFwwRAZi4GOjdRLFNOWTrjDlDxuNAE/yPEgEfW3nZs/5HImDLLWlA9sVA72y8fUsAnG2U23M9YhZvg3FAwf/oCZrLzf+s2tYgAjBpJPCdNkALFbRHuTyDANhipLG66zab6az7iGCHdcpEACaZAd+pfpcuke+ZKWcQOJfBbYA4wK+C8qGHyFJKzLb7nAgAM+Dnz/qrbYDy5f8t9yL/kvBK2YltAMH/2MPjXgmxw5XKF+O0GGIGfPU5Lx0c9xyXy6LwotIi+GOvZ+uzClO8AxciAEjfBn81Dpbvf+z1cmeqckxpAwj++XZmdPhOiAB0NwO+2gYovfzn3RGIr7gUO6wFf+wxKtdlEsNUDTqbAV8RuaXND3tvy8ty6HVvAxj1O97oN/X+BSIAXc2Ar8TD0rv/93b5ZlJ3XR3Ngv95Rr+p1y8TAdjyYrJMFfHdBcA1USlz0vWPHdsAgv/5Rr8O16J6n+Ca4NcSxbLljiNe4EzTDt3uBnClb+13pMOuACIA3doAzz7TZZXOEc74bjc/Cf6Mfl0FMhEAbYDn/WJMcV98sdl2tQv++Ord2HMypuOuAFdvo1Mb4Jn3/6kxrYmqPVOwqr4aOB7MajfMyWZnjHASAehSLX6mUlyy53dkEMxmeKpcsuzgIO/s8p9u6HxnTBLaAJeCYrbc4X20GS6b2emVUQ8lst79/ixVoQ7tnTjniABUPuOeiRHlxv+OzoCzGQErmgE7OMZlrHN2BRABqB4r1pqAy/X/j16Ik80IWM0M2MEpnnG3ffZlNtUrPlHJIAJQtQ2wNlEulcGdNQufsaxZwQyYsXpixE/lp2J7BTXIYnJeOylXqv9/llM3YzaT3bXcYTxMaVoFiAhAVdG75qwo1f8/q/ed8RB79SbEyB7jc4wHNQilGFxWlp6X/34Eo+VnxM+7/V3c7Gf6o5MYrFR1wfnrzSt5xcr0/1+977jbl/pMUIjvLsRLVAuOKE2FKFkrJlBnxM+ugF+/ByIAlVrGa5KGMiWNs0veGX0AH6sA8Z8jWMRnJQM34ufyJyIAc1vGa3wAZfr/Z7ues7qaQ6DFZ2PJjn6/VdDHTGB0uZMDvc3P8ay+LQCyZJJnZ0Ic7WDwtCuACEClccCvKlYl+v8ZrsJNsw/gmwDZmezz/XYFzPyuUHPt+Vc+AP3/4j4AMPsZmyICYPz1laVxJRR6lpfMPnsYM7MroNOIJnpPjn11L0CJjDeLE/pQH4BS/wjCqWvlbP1dAa4TRsX4mb7nnaH/n9HcAZf5dCOqIJGx+D7BB3BMBT296z2bstYGgLKxXQFuEkSHHTrpf/lsxijjgDBCZkxQWwdVtuh+VkVPX77IeN+5NgCY/VTbXCeMCnt0Lp/E0Ye/eIZeXKb+vzYArPU9Z0Lg4juH64F3WQiUeoQhq7NWGwDMYce+b1dVH/ABbN5KTx3gshqltAFgPIw50CVCqJIsPjqHUpe4M7802gDg9D9eeGcpqTJ/otIK+UcbAdMaAC/fc5totAFgRSzxTQSgwkKgRxsBGQDfUHZXgQ4OeXcIEIcoIFjvJdRpSxYVeqfaANDrZQ7UHkKFuy7uJSZplxdUUMlZPitwe09etlLVHMggaiHQ2aIzbW+7ymHqimCY92YONCKK7EbAe4IzZVk7ynrKO7D2Fc8cslVbcu4PYAQ8y1eXUgDEoVrp4LETYCYObuZAq4NR5WbAy/cVAiCDUqnWG/uXaPomKKbmm/4tc6BWEuYK04/P1x9+0UtSswKTBzi40d0cGCPYR/if4t8IoRTE8/yRaG0u/3fm1j57Yz5+lykDWbU56ix3J8B0CupfK3zd8AyMs2kJ8vFZvLPjJQRVVL7iZ8XP1LKoFyM+PlcmADY4ZEwCWPAD+zqyPG9xfsbffMS5FKIiBIEqQY2rgT9WL9P1KS6FJgAsA7LgB3VKsJfGFafIMOMsOnOLawiO+H35GPJeDfzRu5QumGVfAaz3L/ijri8gw5rzLT0nIWwytjkilqiY5Z+wSzeqUMVdrfQv+KNmL7bi0qCP52IE1wrnT3zWhECeCvvHS4GMAA68jARfjwYK/pYGZdw7EcG0ooAhBPIsjbs1b6YzKVR4SCIwWP4j84eMDM+LmKkegYwm+3T7iiscvFX3jkPwR58bBSu/YxPHaTOOAqb75bLPlmZRcbCJDdsdzPw857QFpr1v2RbtpQpsFUYAHRR9sxLB39Ig70LPzYfix32fXSqDQvYRQNl/b5T+wRdwTuI3pSWQbdIu1YOf/RZA2X9/g5IgCL4AE2BTdgGk+sUyPwCyf1UAuEwIRED1CtNtpd0SINk/XPMLvgDv4JBdAHcFQIbRtqzXrMr+Z5kB3XIGvgAioHMs+YMAyLAjO+sSIBf+uPIXfAF8AURAl/tjliTnx05g/deHZUBb/+btAxD0sLsv4Jt3rWpVuPoyoGXkOZUAyDiHnWV/M4hR8AVMpNsdApnOt1SqxNpfKD+CLwAf9wR0EuSZ7txJIwCuCQVAln4NtAHAFzB9bbBtgNv7nNI4EzMeuFS+NoBAh019Afr+4/0AmSbuCADlfwwxIIEvQCvAOuDbFmcao1u2Eg/3PzqVHaFiqDVnrDytAMi2h93yH2SdTAFfgD0dhOJmAiDTL0SlwQgSqs96ax/uRyytq7ytkwAoIADs/odxQLzTQpRE8OdkFQBLxT1NtpvpC42X10sGPgBYJJbXEFi1CpDJc5dGAGTq6+j/4/agEcjgLFEFaCsAMvSrMgkAbl7YBwCjxCYCCICBZiu9O7gdEDaJMul2rQot4okAoNrBCAiJREmyjY8TAA0EgAVAqH7I4HwjcYyreX+YAQmAQgIgy82IMAkA5j/0a9FlaA0t5mYCQN8ObgaE8r8W3bAkkwCg3PHEywJYJKYNQAA0FgAWd8CdANBGNA1AAAz8Au0AgF0AkERYCkQADBQAendwKRCcISZ1CAACACAAYI8Ioy4BMKHESgCAAMA7XL0vp1DFCJhl0kwFgACAdcBgAOTTsQiIACAAQADAGLEqHQFAAAAEAAgA72hvARAOSgKAAAABACOANgIOEwAZgl6WA5YAABMg7BEhAAiAgQLACwyLgCCBIAAIgIECQAkPVgGDACAACICBqxyZeOAyIBAABEDnJHO54jxN2TuLAPir64DxgT//hQAAAUAA9GkzEwAPiG1SXiZUXTMKAoAAIADWflbpfqEMXLxMKHiwwOHuPSUSnxYAGXoSmb68yPi8UMhWnYL+Luq/pwTAJz0JXxDsAIBNgOi6rCvD4r1FLKUbS1DGgxFAVIWJmFCvcF307wRAhoc2k9PaSwwTAGAiJtS7CoClWpLqCstMLzEjIIIo1wls4CHKzbXQro4Mz8dSLUmlWjMpOC8xGADBQ0Sod5wy+50A+Od/sG/dSwx3AICHyAhg+xbRcq6lLEtw80L/HyYB0M0AmMVftlTbUwmATGMcfACwAAjOjvzEZ/3TzzUqdVnE4b8q/xlHE7QBYK4Ylckw6z2FTDtkKiyKuq1sptxO5MtCBqpkFXDQM+ryh7yyc4cAUMpD8awCzF6MuiZEXpmYSKtMLG2A8j8q4+wg1DM+E7eJdqqSVcZlDhy9M5eKKP/D2ZGfSBorrerOYLa/bZmke1izHbzx+4RpwsvG/Q84O3KO61ZpA1ySVTfTzSdm/CIt9tBTBJwduUcBs7ftsqzcv92ZkM60knGhQ3xxzIBzSooCF5wddat3Wdt3GZPs1P0J7k14/uBuADxrDMzoC8gyGnorkFI7FKk3HN1LZP7DHlUAXoDjjbzZqskZhOBHo33qGUXbvSD7By8AOrzTGeLHxxZn6i1FqgCQ/cNEADr4AjK02D8m2OnmVrNf7KCfJ1MA7AWwL6DiZsiPLfb0LkWuXsj+wRCIyr6ALLH149+ffk7RS4zpzxt6tQIylIJV+2ZWfz4m1yk3FWXfxKYKYOsfwEvEF1DNBPrxby5hVHDdJ/bym1TaIw5TAdjWF3BUuzlD1ThanR9/r5SjChkvBTIW2JBvv4pN/X9oJfIFTJsAuCsAsijTCpmZBR8cwsA7fgBJRH9fQNYJgLsCIItZoYoxy2hPn0zAJUBgCpzLXtXALJ6Pe5clpb2xqNJctlKeG8UAIoAvILPf497fdfcXvnJne4FNBghOcIZIBNokiPeqG2V2FlcY7bl6eVrdKMYcCCLgWJd6Jk/EVqOCGb7TexMADwVAZsWS3Q9gP4ByIPCOCJjYUrw14sY5ek34e1U2AD4arU89415xQ5v9AMaEgC36xlOSiXvmuwi6Ga6nf/cMyGISf9TWTO1arNqLZQo0JgRs0VbsPGZ8WfFeZRJCr5wBWQyAjwTMw7LFJUkfturLa77X+lBAS+Dx2b62vRb/vSzeiPi9n2kJZPnuHv3OqY0L2a8G/mpJkKBpaRCwlb+oi0HwlcpuJiEUVZm14iWzAfBTAZDlw67af+UF4AsA9qgGXAoH/nfFc6a2yFctgSxJ4Gd366TvXVTtvWoB2BcA7FVdrCQE4izccpomUzXgs+2BWZLAz2Jo+vWFFW4GzOqhQL6eILC1EMi4f+Tym0Dec4w2y7jgo3HhClX0Tz/ga5Jya8V+neA4a4GJfQE4M+GIbDPD2FwEw8g4j/JuhQjKUG29N9GQxbPxWYLy6YebZQ6z2uHqrm+jgsBZo4OReR4ZfJagf+Y5HQLokqglkKWC/pkB8EsBwAfwGlmEE/rcKAa8UhmIamQIgi3PpPhZ8TPjZ2dqf0XQzXD2RtDN5FF4WQBkKWVX8gHo/8MKYWSuEMS5HklVsIiDe8T/bfnvxf9PlWdaBXZ98lxij3GlfQBPi6ZvHlI3igHYWui4XfHrceUSiwwq7QOgPqElANiiWCFxLrPKsMrMtf4/7vUELQ4CzqvKdr5T4Z1V+mVG2qISof8/lCZtEouDANWATOb5Ujvts5tQzP9jy0tQAPRcHpQlXq760LL4ALKPA+r/Y+1yKwZB4LwNit1Xta9doFfqSsPs1wPr/8P1wkCdC9u6VgPWjs6XKm1nHgfMMjJZcWZ+8riOnQGAasBZ1fJywS2rm1r//3mFunyX08d1VAMA1YAz/HLlyttZndTTA9ja28HiRXsU6KZ7KFQDgHOrAR3auM9coFfO4Ja1DWDr1P2AtuwMX/udZbnUQzUAmEnEusuA/v9TAiDL7UYZ2wD6/7+qznjwlr3h7wSwSaM6qgFAzlXCVasBz0wYPfWhXBNlSNkelg7z6Wv4eEHIu8HeLu/n7hgHoBrwGc/c0Fiyz52tDdChd53pWs/bnpzWiuVBgIuF9hmVf9opWbHMwQBY97plEwKqAYBzaJ9leU9nZIJWPwNghYtqbFlUDQBUA7Zdl1822GVpA1Q3AF4TL1diDjQpAKgG7HdhXulMLEMboPoCoGo31DEH/v6Fd80wcN5ZlOma4VfO8tKO9wxtgOql6YoBJBS4exdUA4CzybRG+JWzvHzP+2z3euU90pXK/7YvumEQyDalVHH739sCINPBe7YzunI5ulr53+bAdVWxjCOdQMcdAdXP8vKLb6IHwwA4p/xfoReXZWRQWwCYkfy9epaP/uMnGwCrl/8tDWISBGx/fW8irkX54ywzYGUDYIfyv6VB2gLAdP/RO2d5GwV0xgFX2QDYOTPkC8jTFohzIp61+E7i34/Das0dE5YdIXOicWlylrfpgZxhBqzad740K//bF/CcZ2Yv8RfPVAT6JchvcUgu4mCvS6eAypXfd1u5bT6IV7YgdRkB6bT7f+uAVLlKs/czsEWWHe9BBP2jPucQBHHuaGmA+e/9Vm6rIHhkWbuyAXDavLh7BLZfIhTP/9l90BAdTI6YbPx+9/l/+wPJtJHtSGNbppsRO1z9e8SLa1TwcRlxrT8gnvtsrZX4Xo09Yprva4uqd6vs6kgzYFW3+bP3RXfb3GWF8Gtjg/G/z+6pIASw9/mRyfy3he+t3YdyVBWgam/ZnfJaAmtE4iIEwidQTTTtaXSEc6Pq1b+7CIBswfAoh3tVh7nxKlMCz1QEqvsbmAWxlaE4Uwtxq0puS2PE3llu1RXAZ65NtjgIZ/kbVAPQLcZtZeRuORMfv8ueVYBMS5Cmb/+zOGhjvvWddvCso0PFd0uvW9v+yJ6qv+oIoExIS2C6t4FBENXP+y33uLRdjLPnYqCqJjKHn5YAX8NPfAEobfjeMpHzQQ0ZATx6U6JqAIgAuPUv9zmuVFJ8+ZEeqGoAiADMyP63Nri3vyBnj7G3q/6/agBaiABtMVTJ/vdYdNe+PL51FaDqJUAOOtUAMAaibva/RxV3xC15W1YBKk4A6P+rBkB7DHU33O5VzR6hnLasAlS8BMgBpxoAK7JRt5K9VxI3Zk5+K/VUcQRQ/9/tgvCeoG72v9cV7mN25W9VBaiY/XE7qwaAKRA1z/g9N9vuul61o8KvNgIYEwteatWArit+tcuwtc/nMuiZHHN70lZ9lGomsL12IUA1QCsAnP+1K7ij7k/e4uW+ymjAG9C+FeBZNvc/IYHbPSu6NHq5K14DLJs5rxrghsG67GW6guz/7NG/wwRAVtPcq0Gx4jXAez9A+NxNnPFQwflXisONf2uWVO39d48cqXj15a62BIgBMM/hYoGQ3QDIS8b384jq7djSyisvd7UlQEcoSKxvC8Qzpy3ACwDZf5Znb6y54pWLFaotAWIAzNkWMC3AQwPZf4bnbrTB4lmHZbWD2+E1uC1g7t8YLUomddGiPurvH11meTZIVjN0MQDWOICuAq1NmjilGncd7j0ZX2p5ptdSycjFAKgtACOBqFXRPXr6ZLzZ4hnFVWnBCwNgzUUk1VZNT8C7xPjXdfLEsoXfVNeaMh8DII4gMk7bBHMZhu0E6DWRk7Gae8ZzZt3iyoAZAoEBEEePDfIHeJ/Q3/h3VtJm5eJK01w1AcAASAhARQ35F9OduXnSpQsr7wOvtAXwwgDY1ihokdC5I4HRniGu7fvvsnXSF7Hyi6gkAGwwMzGA/d+x+B7iXOAPYPyreu+EqxfvZM/3FH6lNcCWlxACOP6di+RBdYDxr9KYqXLMyrGfSgJAv3LW6KAbB/MlEXGGhCBQITDzn7lae/rhVeUmsEr3ALjFzA4B5GwZqBIo/WeaLqHMVl4WVKncamRprggQbGstGFp8BNYNzyv9Z/BqGctY2QqoJABkGDId1ON64yWI75KQ75tgZjmnLWZYadCo1GfVc5y7QVAg7dk+WDwF8R3zFaxLLDML4ixGbWWaFao8HqYq/VWXABEAmFMxWNoIS9VgWvUvYkf83fH3x+cQn8flZrxO9l9AAGQvX8ZDVeUmQDsACABgObduBcJta6GKUFgy+Y9B/quELHPClmlKy5amJ9S2EUAQAOgqFO4JhoWl9bAF8bM+/vzbwP5uspU5WVt78dxIARCq1KpTAgAEAPDq9Fbm0v+ZS3/SC4BqbnsPGEwBALlaoNqzhQVAmDrchW4HAOwBALoE/6zj2UqZzbADYPbok3cAUyciMrePs7Zm0x5mVVz3dgAg1QvtHcBAMleNz7ztr6wAUM40AgjCGahe+s/sy7LGkQBAI9wMCJl/7ptlCYAGGwI9bMhIpVsrgXdH/i7Jf7/sniyjTY3Isl8a3hdgevZfYSeLG50sAUKz3ejeBej7n//7VTBklznU7AYgALCOKhdXAV3XslfZx6K02Yjo/wqA4ANA576/RGygANAKIABgIRAIAKX/oQIgDrarl8A9ALAPAIK/0v8sAWBNsHsAoA0AwV/pf6gAsOyEAMA646yrtQGl/3YCIFoBDrc/8rd/uAcAPDOA5KuxANAKIADgPg1A6X+oAJDh/BFBD9plgNL/CAHgroDfm2QEPGiXAUr/IwTAUuZ0wLkJECplgL0rwwSAkScCAF9XAazSRhm+5f8du9y8qtdJAMAtgbg52N2lgK9uIexiuJblEADQCsAdQ1e0F2PaKD43ogAd963IchplLoIc3Kr5uon2rz99ndURBUb+Op0JVqASABjWCmCa3Tar+ygK3FfS94ytPPI3QgDEFzRRmRMAIALyZHVxDsXnfCsMjCzX5dp00Vpb1/OVAAC0y74gzMNnfPZBVCvj39dK0PcnAGQ5BACs0z44+Gcr6d6Kg1uBoK2g708A8AMQACACmgb/tX6DpbWwiISlxRAweer7EwADR58IABDKvYP/q2LhtqKwsAiGBRWG+2Oh3S9YGzH6NKHHRgCACJhdzt3aR7WIh0d8FBWfUc0AuXYslAAo8jB3d+ASANii/9w5E+ywu10VlumPAHBpEAGA3d6TbmI5+uJTDvRs1deKwX9SlcjoEwEAtDi4J/f7tV7rjoUSAMpR7gKAasDGi1vCKe971HJ99S4IAqApHU2BBAD2NAheC5m3QuTL+onGqTf8EQArylPd+pwEAPZ+Z7ILgQj8Ew9xJlKOfwJguCmQAMCRQiDLwpnrb4F/6gFu8yrHPwFgXfA//w4HEY5+f8I0dZbgjR6/Ur8dEkZDCQCrUAkAnGj6Wm69u+486RIHtjI/U7VxPwKAgv2AbAhZ2mu31+BeXgz28f8f72ZUGjzbRkWN+xEARMAnyIyQXRh8tlpWH9+Yn90QBIBy1rN8Y2YBwOlv1p8AeIuzTE1bGQGJAACqpDNv9yMANuhtVRYBzC0A9Pst+iEABi8KChOVBx7Au/3+6ptTr4MX/RAAg0WAW9AAvGPazLLwSVuUAOB2tewCwEH9/st3wZ8AoIJLu15vWwLcrwC+Snqqe6AEfwKACHjQEtALA9BxxE/wJwCIAC0BAMNc/oI/AUAE2IYF4MkzrcvV6II/AcAZa0oAwKCsX/AnAEwHvLk4SDUAkPUL/gQABooA1QDAeJ/gTwBgqAhQDQCM9wn+BAAGi4D4e4wLAsb7BH8CACsMNd1EgGoAwOhntz8BgMEiQDUAqJn1d5lWch4RAGVEQPWbsz6rBrhdEMjv8O96BkXwdwYRAOlFQDezzW3pzRZBQLnf4jICAJ/Q+WUMJc6AA+QZ7bs2PWt4kQiAsvzn//7c9qVcVLmSHHBen7+j7+hj8PddEwClX9JL4xf08ltbgEIHzPRvSSRQvm8CoIUxp6MjV1sAOLbP322Tnxl/AsDCoEaEA9nLCyj3m/EnADBkQuCeP8CLDLxfPZxyZhjzIwCM6zAKAiqG/5h1TnD6EwDjRnemvNwWCQEC/yPsFiEATAgQAoBS/6Cz4MrsRwB48WeYAz+6fAkB4NckYFrgt9OfAMBgXwAhAIH/57Y7+631JQDw4ubAy8ADwdQAJr3j0yp++v0EALQE7BHA2Arf9MCv308AwL6Ap3qEcWgqFaL65r7uW0DXiHrVPQIARgVfyhz4BFCtihfP7HX4u2u+nwDABofJ9Azi1jCojAhlfiV/EACjDpepjuF7hCAKMaCsiAxu/ngWL97L35X8VewIAGgJHHLY8ArgjG19sn0ufwIApgS0CDCkxK8S97gqpyJHAMDioBQTBFoEYOhj9AMBoBpADBADeKrEH6Vs79bXWb+KGwEA1YBS5kGHFh6Z+QR9WT8BANWAIfsFiIG5WX709Dn4n39v4nPzDBEAUA1oZSCMg834Uv9+PqH8+n0d3g8CAKoBI3wDBEF9QbyU9pn4ZP0gAFQD8LIgiGCi75m/lx8GPuN62/X6iWACAIWrAQ7D/QSB6YJzn+2lj6/itf0zzh9DAKBRZuROgf08BCGyiIJjgj1Bu++zbJsfAQBtARAFgj2THwgAaAtgq9LqIgwi05oqDuJvjr89An18DkuwN5Kn3A8CANoCxMHf6wqEJcDH3xFEdhl/Gzd+vnI/YysBgOFtAZlXnZGsCKRBBNUlwN4Khnu8Erw/smTrH1myd1Ul7n4QAChako2A4nAEel+fzY8CAgAP2wJGqgB9fhAAIAQAFG4Z6fODAMBLRN+XEADc2AcCAIOFgIkBgMEPBACGTgxEOZEQAAR+EAAYLATMdAMCPwgAEAIABH4QAJgoBJgFgf239wn8IACQdnzQRjhgW8J3EyJb4AcBgBKbBd08CLy/wCcmcIzzgQBAOSJjCSHAJwA8dzWvzX0gAMAnAAzq79vVDwIAfALAkDK/db0gADCyPWCxEKaO8SnzgwCAqsDff2YaBDc/QABgslfABURg6gMIABglNEGA0iN8sn0QAMCbLYLIogQWVDD0CfogAICdWgQhBi4CDpIEfeN7IACAg8XAYh7UJoCgDxAAGD5JYKwQe5b3BX0QAEABA6FpArzr3mfkAwEAFBYDkbnxDWBtaT+qSTbzgQAACAI0XswTAV+WDwIAGOodCEHgfoIZF+6E8NPLBwgA4KGZkCDoU9KPDF/ABwgA4OmWQQQQoiA/8f0sPXwlfYAAAIiCZlxvgr3sHiAAgFSiwAjitll99O1l9gABAJQhAlYErhAHy/RBBDUTCD+MefF5LOa8+JwEeoAAAFqzrDNeJhFuBUKX1sLytyxZ/JLJm7UHCAAATwiFW7GwtBs+skf7IX7m7b9xG9BvM3fZO0AAAACApPx/1LOtpjWqedcAAAAASUVORK5CYII=" vertex="1" parent="1">
          <mxGeometry x="360" y="260" width="40" height="40" as="geometry" />
        </mxCell>
        <mxCell id="66uHyciYdJMsds9IyZAx-49" style="edgeStyle=orthogonalEdgeStyle;rounded=0;orthogonalLoop=1;jettySize=auto;html=1;fontSize=11;" edge="1" parent="1" source="66uHyciYdJMsds9IyZAx-34">
          <mxGeometry relative="1" as="geometry">
            <mxPoint x="480" y="130" as="targetPoint" />
          </mxGeometry>
        </mxCell>
        <mxCell id="66uHyciYdJMsds9IyZAx-34" value="AboutMe &lt;br&gt;WebApp" style="text;html=1;strokeColor=none;fillColor=none;align=center;verticalAlign=middle;whiteSpace=wrap;rounded=0;" vertex="1" parent="1">
          <mxGeometry x="410" y="110" width="50" height="20" as="geometry" />
        </mxCell>
        <mxCell id="66uHyciYdJMsds9IyZAx-50" style="edgeStyle=orthogonalEdgeStyle;rounded=0;orthogonalLoop=1;jettySize=auto;html=1;fontSize=11;" edge="1" parent="1" source="66uHyciYdJMsds9IyZAx-35">
          <mxGeometry relative="1" as="geometry">
            <mxPoint x="480" y="200" as="targetPoint" />
          </mxGeometry>
        </mxCell>
        <mxCell id="66uHyciYdJMsds9IyZAx-35" value="Tracker2 &lt;br&gt;WebApp" style="text;html=1;strokeColor=none;fillColor=none;align=center;verticalAlign=middle;whiteSpace=wrap;rounded=0;" vertex="1" parent="1">
          <mxGeometry x="410" y="190" width="50" height="20" as="geometry" />
        </mxCell>
        <mxCell id="66uHyciYdJMsds9IyZAx-51" style="edgeStyle=orthogonalEdgeStyle;rounded=0;orthogonalLoop=1;jettySize=auto;html=1;fontSize=11;" edge="1" parent="1" source="66uHyciYdJMsds9IyZAx-37">
          <mxGeometry relative="1" as="geometry">
            <mxPoint x="480" y="280" as="targetPoint" />
          </mxGeometry>
        </mxCell>
        <mxCell id="66uHyciYdJMsds9IyZAx-37" value="Calendar&lt;br&gt;WebApp" style="text;html=1;strokeColor=none;fillColor=none;align=center;verticalAlign=middle;whiteSpace=wrap;rounded=0;" vertex="1" parent="1">
          <mxGeometry x="410" y="270" width="50" height="20" as="geometry" />
        </mxCell>
        <mxCell id="66uHyciYdJMsds9IyZAx-67" style="edgeStyle=orthogonalEdgeStyle;rounded=0;orthogonalLoop=1;jettySize=auto;html=1;fontSize=11;" edge="1" parent="1" source="66uHyciYdJMsds9IyZAx-38">
          <mxGeometry relative="1" as="geometry">
            <mxPoint x="120" y="190" as="targetPoint" />
          </mxGeometry>
        </mxCell>
        <mxCell id="66uHyciYdJMsds9IyZAx-38" value="" style="shape=image;verticalLabelPosition=bottom;verticalAlign=top;imageAspect=0;aspect=fixed;image=data:image/png,iVBORw0KGgoAAAANSUhEUgAAAgAAAAIACAYAAAD0eNT6AAAABGdBTUEAALGPC/xhBQAAAAFzUkdCAK7OHOkAAAAgY0hSTQAAeiYAAICEAAD6AAAAgOgAAHUwAADqYAAAOpgAABdwnLpRPAAAAAZiS0dEAP8A/wD/oL2nkwAAAAlwSFlzAABcRgAAXEYBFJRDQQAALzJJREFUeNrt3T2WK+lxrWEaMGFyCBrGHYAmooHcYWgaMo9xDBoyZNC8Jg2ZNNug0U7fFexOHnQ1UJUA8id+HuNd4pKoOlVA5hc7InbE96dffvnlTwAAYBY+BKAQf/vHL7/8199//h3/928/+I//949f/s//bEv8zNt/Y+E///fH7xC/l+8HIAAAPMlff/rlDwH93//6awD+t//+6Zc/fa9D/L73xAOxABAAwEhuA/ySqV+/1wruWxJ/f4icW4FAHAAEAFC6RC/Ib1NFIA4AAgBIWbaPPrhAfxx//stP/6oaEAUAAQAcGuyr9eS7c/3+o1pAFAAEAPAyP/38o4wf2abMvh6X30RBCLb4LuM79WwDBABwN+DL7vv7CggCgACAgC/gD+e2QuC9AAEANO7hR0k/Dn3BD48EweIj8M6AAAAaZPl6+HjFQxDPThg/tQtAAAAFZvDjwA7jniCGLYlnKp4tEwYgAIBkpX29fBzdKiAGQAAAJ2T6gj6yTBbEsxhC1LsJAgDYsbwv6CO7GFAZAAEAbGDk09NH1TYBAyEIAOBJFvf+RSBBk2kCLQIQAIC+PrQIiAEQAMCS7QsQmDZWaCUxCADI9oHBNxlqEYAAwIiZfdk+8HlVwFkBAgCtyvx28APrvQIxQeDsAAGA0iN8yvzAa/z5L7+aBvkEQACgVH/fBTzAtj4B0wMgAJA28JvdB/aFYRAEANIFfoczcOymQYZBEAAQ+AFCwLkEAgACPzBRCGgNgACAwA8M3iVACIAAgMAPDDYLmhoAAYCX5/i5+gFCAAQABgV+c/wAIQACAMNW9trcB/Tk8psQsFkQBADs6m+6Pja+y3vE4R/VnTWEmezRz9EWqv+MGB0EAeB2vn8e9A7F3ONdt8E7Du5M98jHM7T8TnH3wyIg4vddfvcIOL5Lo4MgAMDgh5sd73EIhwhbAucSTLsKzvjbbgUCcZDDH6AtQABAnx87lVyXIB+fv6xrnTjw7Bz7jLqCmABA43l+5f7jgz3n9fvCIAITUaAtAAIALxDBSLlfsCcKoC0AAkC5Hy+MUAn2uZ91gmB7j4q2AAGAoiY/h9h7hHiKz9HIVL3nfxEEBPA29wsQvAQAimRCnNXvZfmR9TjwCAKoBhAAkPXL8tHMEBvBjClWNYAA8CHI+mX5GCycF0Mho6xqAAEAWX/DoL9gxAlrWgUuw1INIAAg6y8e9O+N7jm08MxkgfdMNYAAgKw/O99+WlXGjb6/GWe8Iga8Z/YGEAA4bQEKF/P9bP+V8qUDC696BryHbhkkAHAYcejoS26ftXi28I4g5xdQDSAAoOSfONv/jNjs5znDFi0CY4W/v1OA14YAgJJ/uqD/ESYmbLljIEQl4+CvBkEtAQIAL5b8LwL/Yf+Ogwq8AlptBABOPzimlxIvJ2UrdgRAe0BLgACAkn/SEb691wI7pLC3afBiSsDzQADgY5ZwlfGnuBuAgxl8AvvBeEsA4IZ4ITiHc6049VyCT2Dfd4zQJgCM+A0b8bv8ZgqKg49xCfhh+p1WEYi/l++GABhbBpyk/K+/BdXbHnt2Y5RSJY5OCKa1BkzgEAD6/c1Vfhxq98p9IQayG6IcTjhLCFz5AkAA6Pd3Xgma/fOQoYAQsEKYAIB+/xMGn2d6e9lbIXYEIMPZcWEOBAFQ8wWORRjdX94I5K9kyxFcLwX+NjsCcLZvaEIS4V0jAJj9ihl5HvX511LhYLMjAFkWCnVPKEwIEAA2+xXp222h1iOwVvislCiRaXTwakIABEDO4N/55YwMZGuFHi+7y00A3iITAgRA6TG/S+PS3J7X51Y5zIgAaAt43wgA/KEsZ0ynfytAZgJtAe03AgDtZ/yfHeub0goI9qyGANoCRAABUICOL9yZ13dW+TwZlcCEfLz/iAggANKo7ew77Ssq7UqtgItFQVANMJJLAAj+HS7tyVLWrrAgyLZAqAYQAQSA4N8i68+2gauSr8IGM6gGeOcIAMFf1r8hlcabZCWoMKbc6cphIoAAEPzfMNRkf3kqXBvMpATVACKAABD8bdiyX+Gfz4l3BqoBRAABIPi7aGMDqn3+tpfB2eZsIwC8IMb7ho0G2hYIi8xM5BAAgn+aWfUOW+sqbQm0LRBaAkQAASD4n94b6/QyVMxUbAtEFaKP3uFiIZ4AAmB88D/iAh+jgVYGox8dpgSM5RIAYx/+zv3nUPZXZUlg95bAlQggAAT/WoFmQrZZ0Q8Q/VVlSVQT29XXCLtFkAAY4YSd1veqKNb0JmcFzxCqC3G+LERQilbWLdcNk4CPPzveleXfDmPq8juteRY7LA6ym4MAaB38u/b7u40GKkv2efZuA3u8f0uwrbwZNIhguYiFW5HQ4Yz07BIA5TfNmTf/QaVbA5Ulaz5fS5CP76zbrXrPCtfgQgQQAJ16yRf9fgJOWXJ8oI/nKAJ9ZMGTA/2aqZarhIkAkD2a7+cHkJFUDfZL2V5Qf/0Mqvq7W9A1XADEIXBl9mvVk616mMtI9jXiCfZEgAVdBECL0Ra94177AYiA/QK+Mj4R8FUrY3IVVabI6W8/gLKkgI+xImByNVWvWK/YSKeVwSXH7wT8nMG0oqcqEsKJiZXAoDzclqpVnullyc+y/C7Xcncmtl1eJVgEgNKwa3wtCXJvwDvvqyy/7vN7lWgRABz/ZvyNeepNPhv0r4IoEaAFRwBMzQRlgEyBU1YGC/pEQLbfeYrwHhEAqvUNBX/Gz+4iIJ7v+E6iXyxQ9hcB1b7nKXd1OPgF/zFUNpB12P2wBH09/Zmrg6uJgAlruu2HF/yZAomAXT/zeA8FfVQUAd1Ngcxfgv+4cbLKZecqo0pLtn8R+PBBBFQTg51NgTI9wd9kABEg2wcRMPB81vc3dmIygAiQ7YMIGGgK1Pc/+SUIBGRCsVp/Mg7D+Pdl+5jiCei4KVBp9+TgHweoYEwEVBEB4aEws4+pewK6VWv1/U8UAC74cTNklRsElzK/oIXJIqDbkiCZ3EmXZbjkJ9dkQPVS9l4iIDKe6gIJNc7EKtXbeB8IAH3/t4O/+9+1jzKaSbn5keFs1HojAFod3PcOVBMAJgOyiIDF2Ke/j0xnZFY6jAbq+5/8YJv/z0UEwOoi4NlnSuAHETBzNFDf/+QHesKFE56rnItLBH4QAbPvC1CuPfFBtgPAZMAZIkDgBxFQawqHAChY+v/K1GIHgMmAvQ/Q25ElgR9EQI62GwHQvER7+f71WEuncZKukwHXBgdo/B0CP2wLNBpYXgBUKf1fBvSPTAbkfwbjYAoRIPijcjvrohVAAFQp/a89bG0BtGdiz4zk9l2J/+yyHmgF7Cu4q20JVPo/cZkFAWA8cI+D8pGBkQgAEWAqoKQAqFCKfbZXZQ0w78mWVacI/JcVhygRACJAK6CMAKhQ+n/FqEIA1CMUfsZy/zPPnxW/yFy9uqXiyuBKFwbJvE40qRAANUdQs4iAODBfDeZEAPaoQAVxXsfZFkTl9pYtFp/Fz8luaq3S3lX6P/ESCxcBWUH96vO2xaIit/zh2QC/BPctA3rXuFDhnhcH7Yk9KQLAoqBXxvouw3qqOPY8iwrXbZBnzH1dqGdf9c55feLhSQDUFwFHlSKf7fOrBGBNv30J9FU32WX05FRqBaQ+XC/JS2Lv/n4EQI9tgZcDDuojBIbA2Ld8f5vVd7qArEKVOHMVhfHv4L4/AdBzW+AeIiAO7WuhihbyTIXE+RnPZbXFNK+K8OzVlqyii/HvxIOSALAt8MysXyWgx6782+zeoq6cZJ34UtI5MUsiABxCHw/zyNyujZ5x7CPSpgf8e2QWr1l3A1ByO+z4JwBsC6yU9RMB+Q17S0m/U/++sim3iyGQ8Y8AwIki4HJCr/+ZkUMB+JxzZlIPf1L7ONu0BePfgaY/mwBtC9xqk99RIkAl4Ngsv+o4njiyvn1DABRTbtdhxhDs62VZsv5LkWyUCNi3ly/oz/KRZar8pvnSMn9hey1gcR3wvIMoe9ZPBOzv2I8AoLRfez9Hlw2Bsv8VQXr6hRHYZmXw1mt8jz60iIDXJzsY+BjKM579KbKkrNc7xoG3pzghAOYYkzoY6ipWL84s70emL+hrBTwShhlaP1TaFysc96wAZDOEYJ/nezHTXb/3MKtdBfiHn01838r7WgFrN32OFgCZs/8lO98zcyMAZk0CEAF9gz4jn6mAimOBsv8vdjfvfdGLF7Rn1vFI2Fb2ARABP/wQRva0AjpUASz9+eT2pr0vmYi/3ws6z3hEBNQkDmvrd10Y1Om2QGWZT4x5R0wnMAn1cfs/0y4iAmpl+/r6WgEdK8Gy/0/mM49oUSgj9nD5X1/0gPyJCEjr4pftawV0rwJQYp9saDri93TI1D5Q3n1G1qwMJgKO3cFPlLsrYEoVQC/mE0f+EWqRAKjbU9wqg+8iAuLzuBb9vc3sawVMrAIc/uFnPezuqf4j2hTuA5hT8icC8m3ok+3P9OtcVAGOFwDxwVdZy3jU72ob4KySPxFwfpnfsh5kHUE/ugowvvTy6GKGo1oVGbZBYV3J/4iWEBGwX3alzI/shsCjqwDjyy6PrmY8yixiGdDMkj8RcOx9Hp5jVDEEHvm8js7+P1vFe2SJyMuoVEgEWNqD48n4nh2ZFI7O/j8zAB0pWPQja+zyJwLyiwDGPnS4LOgo8TrWcPFV7/3Iw1emMrPfTwRsO79PSGNCdbqUAMh4499lRdZ95Ja2Rz4E9O/3EwHvO/oZ+9AtRh21JXZk9r9m9O7IDNAooNEgGwOfn+EX+LEVkYRNvClQ9v+Aa8NyD86Z7ycCthEBF6V+7EjGscC9n/VxGdXazXtHLyfxAp4X/CtdyjNRBAj8mDoWuHd1eJSierT0515Q6NjvQV6zHxHw+AAU+DG1CnDZuQowSk2tzf7PWFlsEoDZ79nMoLMIEPihCrD/fTFjFizEQbPWNHTGjYWMgLMNP0SAwA9VgHcq12kEQMZLf57JsM9Qge4EmDvzqx0g8EMV4IwqwIhD9tnVimc8AIyA/Tf77Rk8L4Wz/8WEGd+P0T6oAhy3HnjE6N+z/fWzFKAMiNP/nUpAJRFw/f7T3e+ECIAqwHE+sfYfXIiRKn+DjYD7tKMqOv1fFQEVjI1fbQQkAqAKcIxPrP2H9krv5CwBwAi4/Zjf9fuM4F9BBMTZsLY6GCKBCIAqwO9HArd+JzY/cDu4J8/64o+8BnLCy3sZFvzPvoL3s/fwlcTgmckdYEIVYGszYGvz36sf1pnKjw/AmN9WIuDsw+vyoM9PBEAVIEeSuGmv9dIg+z/7S7cQyJhfBxEQ//ZWZmAiAKoA+2yNbbv3/51++pkCgA9A8N86YzjyANvr3yMCcBadYttuAiCTSnp3f/KZAoAPwIx/RRGwRbmfCEDW8yXTaPuWZsCW5r93FdLZf49DTvCvJAKOrDIQAVBd3G5kvOWH866R7uxVxvYBCP57b93bc5kPEYCO+0Quyd7lNAIgU3lki536ZwsAPoB1wX/Kgp+MImBLk9+rf4eJGUyuAmxhBmw3JrGFi/5sAeBeAMH/jDW8a6drsqxVJgJw9GKxbmbAVqpoSwNdx73PVvviVgQ82z45O+snAnA2mVqOr6y531QARCaWqS+y5ZakawN1J/hjCxGwtXeACIDFQDkSxTYfxrujf9nGGo0DCv5HvTefiYAqFwwRAZi4GOjdRLFNOWTrjDlDxuNAE/yPEgEfW3nZs/5HImDLLWlA9sVA72y8fUsAnG2U23M9YhZvg3FAwf/oCZrLzf+s2tYgAjBpJPCdNkALFbRHuTyDANhipLG66zab6az7iGCHdcpEACaZAd+pfpcuke+ZKWcQOJfBbYA4wK+C8qGHyFJKzLb7nAgAM+Dnz/qrbYDy5f8t9yL/kvBK2YltAMH/2MPjXgmxw5XKF+O0GGIGfPU5Lx0c9xyXy6LwotIi+GOvZ+uzClO8AxciAEjfBn81Dpbvf+z1cmeqckxpAwj++XZmdPhOiAB0NwO+2gYovfzn3RGIr7gUO6wFf+wxKtdlEsNUDTqbAV8RuaXND3tvy8ty6HVvAxj1O97oN/X+BSIAXc2Ar8TD0rv/93b5ZlJ3XR3Ngv95Rr+p1y8TAdjyYrJMFfHdBcA1USlz0vWPHdsAgv/5Rr8O16J6n+Ca4NcSxbLljiNe4EzTDt3uBnClb+13pMOuACIA3doAzz7TZZXOEc74bjc/Cf6Mfl0FMhEAbYDn/WJMcV98sdl2tQv++Ord2HMypuOuAFdvo1Mb4Jn3/6kxrYmqPVOwqr4aOB7MajfMyWZnjHASAehSLX6mUlyy53dkEMxmeKpcsuzgIO/s8p9u6HxnTBLaAJeCYrbc4X20GS6b2emVUQ8lst79/ixVoQ7tnTjniABUPuOeiRHlxv+OzoCzGQErmgE7OMZlrHN2BRABqB4r1pqAy/X/j16Ik80IWM0M2MEpnnG3ffZlNtUrPlHJIAJQtQ2wNlEulcGdNQufsaxZwQyYsXpixE/lp2J7BTXIYnJeOylXqv9/llM3YzaT3bXcYTxMaVoFiAhAVdG75qwo1f8/q/ed8RB79SbEyB7jc4wHNQilGFxWlp6X/34Eo+VnxM+7/V3c7Gf6o5MYrFR1wfnrzSt5xcr0/1+977jbl/pMUIjvLsRLVAuOKE2FKFkrJlBnxM+ugF+/ByIAlVrGa5KGMiWNs0veGX0AH6sA8Z8jWMRnJQM34ufyJyIAc1vGa3wAZfr/Z7ues7qaQ6DFZ2PJjn6/VdDHTGB0uZMDvc3P8ay+LQCyZJJnZ0Ic7WDwtCuACEClccCvKlYl+v8ZrsJNsw/gmwDZmezz/XYFzPyuUHPt+Vc+AP3/4j4AMPsZmyICYPz1laVxJRR6lpfMPnsYM7MroNOIJnpPjn11L0CJjDeLE/pQH4BS/wjCqWvlbP1dAa4TRsX4mb7nnaH/n9HcAZf5dCOqIJGx+D7BB3BMBT296z2bstYGgLKxXQFuEkSHHTrpf/lsxijjgDBCZkxQWwdVtuh+VkVPX77IeN+5NgCY/VTbXCeMCnt0Lp/E0Ye/eIZeXKb+vzYArPU9Z0Lg4juH64F3WQiUeoQhq7NWGwDMYce+b1dVH/ABbN5KTx3gshqltAFgPIw50CVCqJIsPjqHUpe4M7802gDg9D9eeGcpqTJ/otIK+UcbAdMaAC/fc5totAFgRSzxTQSgwkKgRxsBGQDfUHZXgQ4OeXcIEIcoIFjvJdRpSxYVeqfaANDrZQ7UHkKFuy7uJSZplxdUUMlZPitwe09etlLVHMggaiHQ2aIzbW+7ymHqimCY92YONCKK7EbAe4IzZVk7ynrKO7D2Fc8cslVbcu4PYAQ8y1eXUgDEoVrp4LETYCYObuZAq4NR5WbAy/cVAiCDUqnWG/uXaPomKKbmm/4tc6BWEuYK04/P1x9+0UtSswKTBzi40d0cGCPYR/if4t8IoRTE8/yRaG0u/3fm1j57Yz5+lykDWbU56ix3J8B0CupfK3zd8AyMs2kJ8vFZvLPjJQRVVL7iZ8XP1LKoFyM+PlcmADY4ZEwCWPAD+zqyPG9xfsbffMS5FKIiBIEqQY2rgT9WL9P1KS6FJgAsA7LgB3VKsJfGFafIMOMsOnOLawiO+H35GPJeDfzRu5QumGVfAaz3L/ijri8gw5rzLT0nIWwytjkilqiY5Z+wSzeqUMVdrfQv+KNmL7bi0qCP52IE1wrnT3zWhECeCvvHS4GMAA68jARfjwYK/pYGZdw7EcG0ooAhBPIsjbs1b6YzKVR4SCIwWP4j84eMDM+LmKkegYwm+3T7iiscvFX3jkPwR58bBSu/YxPHaTOOAqb75bLPlmZRcbCJDdsdzPw857QFpr1v2RbtpQpsFUYAHRR9sxLB39Ig70LPzYfix32fXSqDQvYRQNl/b5T+wRdwTuI3pSWQbdIu1YOf/RZA2X9/g5IgCL4AE2BTdgGk+sUyPwCyf1UAuEwIRED1CtNtpd0SINk/XPMLvgDv4JBdAHcFQIbRtqzXrMr+Z5kB3XIGvgAioHMs+YMAyLAjO+sSIBf+uPIXfAF8AURAl/tjliTnx05g/deHZUBb/+btAxD0sLsv4Jt3rWpVuPoyoGXkOZUAyDiHnWV/M4hR8AVMpNsdApnOt1SqxNpfKD+CLwAf9wR0EuSZ7txJIwCuCQVAln4NtAHAFzB9bbBtgNv7nNI4EzMeuFS+NoBAh019Afr+4/0AmSbuCADlfwwxIIEvQCvAOuDbFmcao1u2Eg/3PzqVHaFiqDVnrDytAMi2h93yH2SdTAFfgD0dhOJmAiDTL0SlwQgSqs96ax/uRyytq7ytkwAoIADs/odxQLzTQpRE8OdkFQBLxT1NtpvpC42X10sGPgBYJJbXEFi1CpDJc5dGAGTq6+j/4/agEcjgLFEFaCsAMvSrMgkAbl7YBwCjxCYCCICBZiu9O7gdEDaJMul2rQot4okAoNrBCAiJREmyjY8TAA0EgAVAqH7I4HwjcYyreX+YAQmAQgIgy82IMAkA5j/0a9FlaA0t5mYCQN8ObgaE8r8W3bAkkwCg3PHEywJYJKYNQAA0FgAWd8CdANBGNA1AAAz8Au0AgF0AkERYCkQADBQAendwKRCcISZ1CAACACAAYI8Ioy4BMKHESgCAAMA7XL0vp1DFCJhl0kwFgACAdcBgAOTTsQiIACAAQADAGLEqHQFAAAAEAAgA72hvARAOSgKAAAABACOANgIOEwAZgl6WA5YAABMg7BEhAAiAgQLACwyLgCCBIAAIgIECQAkPVgGDACAACICBqxyZeOAyIBAABEDnJHO54jxN2TuLAPir64DxgT//hQAAAUAA9GkzEwAPiG1SXiZUXTMKAoAAIADWflbpfqEMXLxMKHiwwOHuPSUSnxYAGXoSmb68yPi8UMhWnYL+Luq/pwTAJz0JXxDsAIBNgOi6rCvD4r1FLKUbS1DGgxFAVIWJmFCvcF307wRAhoc2k9PaSwwTAGAiJtS7CoClWpLqCstMLzEjIIIo1wls4CHKzbXQro4Mz8dSLUmlWjMpOC8xGADBQ0Sod5wy+50A+Od/sG/dSwx3AICHyAhg+xbRcq6lLEtw80L/HyYB0M0AmMVftlTbUwmATGMcfACwAAjOjvzEZ/3TzzUqdVnE4b8q/xlHE7QBYK4Ylckw6z2FTDtkKiyKuq1sptxO5MtCBqpkFXDQM+ryh7yyc4cAUMpD8awCzF6MuiZEXpmYSKtMLG2A8j8q4+wg1DM+E7eJdqqSVcZlDhy9M5eKKP/D2ZGfSBorrerOYLa/bZmke1izHbzx+4RpwsvG/Q84O3KO61ZpA1ySVTfTzSdm/CIt9tBTBJwduUcBs7ftsqzcv92ZkM60knGhQ3xxzIBzSooCF5wddat3Wdt3GZPs1P0J7k14/uBuADxrDMzoC8gyGnorkFI7FKk3HN1LZP7DHlUAXoDjjbzZqskZhOBHo33qGUXbvSD7By8AOrzTGeLHxxZn6i1FqgCQ/cNEADr4AjK02D8m2OnmVrNf7KCfJ1MA7AWwL6DiZsiPLfb0LkWuXsj+wRCIyr6ALLH149+ffk7RS4zpzxt6tQIylIJV+2ZWfz4m1yk3FWXfxKYKYOsfwEvEF1DNBPrxby5hVHDdJ/bym1TaIw5TAdjWF3BUuzlD1ThanR9/r5SjChkvBTIW2JBvv4pN/X9oJfIFTJsAuCsAsijTCpmZBR8cwsA7fgBJRH9fQNYJgLsCIItZoYoxy2hPn0zAJUBgCpzLXtXALJ6Pe5clpb2xqNJctlKeG8UAIoAvILPf497fdfcXvnJne4FNBghOcIZIBNokiPeqG2V2FlcY7bl6eVrdKMYcCCLgWJd6Jk/EVqOCGb7TexMADwVAZsWS3Q9gP4ByIPCOCJjYUrw14sY5ek34e1U2AD4arU89415xQ5v9AMaEgC36xlOSiXvmuwi6Ga6nf/cMyGISf9TWTO1arNqLZQo0JgRs0VbsPGZ8WfFeZRJCr5wBWQyAjwTMw7LFJUkfturLa77X+lBAS+Dx2b62vRb/vSzeiPi9n2kJZPnuHv3OqY0L2a8G/mpJkKBpaRCwlb+oi0HwlcpuJiEUVZm14iWzAfBTAZDlw67af+UF4AsA9qgGXAoH/nfFc6a2yFctgSxJ4Gd366TvXVTtvWoB2BcA7FVdrCQE4izccpomUzXgs+2BWZLAz2Jo+vWFFW4GzOqhQL6eILC1EMi4f+Tym0Dec4w2y7jgo3HhClX0Tz/ga5Jya8V+neA4a4GJfQE4M+GIbDPD2FwEw8g4j/JuhQjKUG29N9GQxbPxWYLy6YebZQ6z2uHqrm+jgsBZo4OReR4ZfJagf+Y5HQLokqglkKWC/pkB8EsBwAfwGlmEE/rcKAa8UhmIamQIgi3PpPhZ8TPjZ2dqf0XQzXD2RtDN5FF4WQBkKWVX8gHo/8MKYWSuEMS5HklVsIiDe8T/bfnvxf9PlWdaBXZ98lxij3GlfQBPi6ZvHlI3igHYWui4XfHrceUSiwwq7QOgPqElANiiWCFxLrPKsMrMtf4/7vUELQ4CzqvKdr5T4Z1V+mVG2qISof8/lCZtEouDANWATOb5Ujvts5tQzP9jy0tQAPRcHpQlXq760LL4ALKPA+r/Y+1yKwZB4LwNit1Xta9doFfqSsPs1wPr/8P1wkCdC9u6VgPWjs6XKm1nHgfMMjJZcWZ+8riOnQGAasBZ1fJywS2rm1r//3mFunyX08d1VAMA1YAz/HLlyttZndTTA9ja28HiRXsU6KZ7KFQDgHOrAR3auM9coFfO4Ja1DWDr1P2AtuwMX/udZbnUQzUAmEnEusuA/v9TAiDL7UYZ2wD6/7+qznjwlr3h7wSwSaM6qgFAzlXCVasBz0wYPfWhXBNlSNkelg7z6Wv4eEHIu8HeLu/n7hgHoBrwGc/c0Fiyz52tDdChd53pWs/bnpzWiuVBgIuF9hmVf9opWbHMwQBY97plEwKqAYBzaJ9leU9nZIJWPwNghYtqbFlUDQBUA7Zdl1822GVpA1Q3AF4TL1diDjQpAKgG7HdhXulMLEMboPoCoGo31DEH/v6Fd80wcN5ZlOma4VfO8tKO9wxtgOql6YoBJBS4exdUA4CzybRG+JWzvHzP+2z3euU90pXK/7YvumEQyDalVHH739sCINPBe7YzunI5ulr53+bAdVWxjCOdQMcdAdXP8vKLb6IHwwA4p/xfoReXZWRQWwCYkfy9epaP/uMnGwCrl/8tDWISBGx/fW8irkX54ywzYGUDYIfyv6VB2gLAdP/RO2d5GwV0xgFX2QDYOTPkC8jTFohzIp61+E7i34/Das0dE5YdIXOicWlylrfpgZxhBqzad740K//bF/CcZ2Yv8RfPVAT6JchvcUgu4mCvS6eAypXfd1u5bT6IV7YgdRkB6bT7f+uAVLlKs/czsEWWHe9BBP2jPucQBHHuaGmA+e/9Vm6rIHhkWbuyAXDavLh7BLZfIhTP/9l90BAdTI6YbPx+9/l/+wPJtJHtSGNbppsRO1z9e8SLa1TwcRlxrT8gnvtsrZX4Xo09Yprva4uqd6vs6kgzYFW3+bP3RXfb3GWF8Gtjg/G/z+6pIASw9/mRyfy3he+t3YdyVBWgam/ZnfJaAmtE4iIEwidQTTTtaXSEc6Pq1b+7CIBswfAoh3tVh7nxKlMCz1QEqvsbmAWxlaE4Uwtxq0puS2PE3llu1RXAZ65NtjgIZ/kbVAPQLcZtZeRuORMfv8ueVYBMS5Cmb/+zOGhjvvWddvCso0PFd0uvW9v+yJ6qv+oIoExIS2C6t4FBENXP+y33uLRdjLPnYqCqJjKHn5YAX8NPfAEobfjeMpHzQQ0ZATx6U6JqAIgAuPUv9zmuVFJ8+ZEeqGoAiADMyP63Nri3vyBnj7G3q/6/agBaiABtMVTJ/vdYdNe+PL51FaDqJUAOOtUAMAaibva/RxV3xC15W1YBKk4A6P+rBkB7DHU33O5VzR6hnLasAlS8BMgBpxoAK7JRt5K9VxI3Zk5+K/VUcQRQ/9/tgvCeoG72v9cV7mN25W9VBaiY/XE7qwaAKRA1z/g9N9vuul61o8KvNgIYEwteatWArit+tcuwtc/nMuiZHHN70lZ9lGomsL12IUA1QCsAnP+1K7ij7k/e4uW+ymjAG9C+FeBZNvc/IYHbPSu6NHq5K14DLJs5rxrghsG67GW6guz/7NG/wwRAVtPcq0Gx4jXAez9A+NxNnPFQwflXisONf2uWVO39d48cqXj15a62BIgBMM/hYoGQ3QDIS8b384jq7djSyisvd7UlQEcoSKxvC8Qzpy3ACwDZf5Znb6y54pWLFaotAWIAzNkWMC3AQwPZf4bnbrTB4lmHZbWD2+E1uC1g7t8YLUomddGiPurvH11meTZIVjN0MQDWOICuAq1NmjilGncd7j0ZX2p5ptdSycjFAKgtACOBqFXRPXr6ZLzZ4hnFVWnBCwNgzUUk1VZNT8C7xPjXdfLEsoXfVNeaMh8DII4gMk7bBHMZhu0E6DWRk7Gae8ZzZt3iyoAZAoEBEEePDfIHeJ/Q3/h3VtJm5eJK01w1AcAASAhARQ35F9OduXnSpQsr7wOvtAXwwgDY1ihokdC5I4HRniGu7fvvsnXSF7Hyi6gkAGwwMzGA/d+x+B7iXOAPYPyreu+EqxfvZM/3FH6lNcCWlxACOP6di+RBdYDxr9KYqXLMyrGfSgJAv3LW6KAbB/MlEXGGhCBQITDzn7lae/rhVeUmsEr3ALjFzA4B5GwZqBIo/WeaLqHMVl4WVKncamRprggQbGstGFp8BNYNzyv9Z/BqGctY2QqoJABkGDId1ON64yWI75KQ75tgZjmnLWZYadCo1GfVc5y7QVAg7dk+WDwF8R3zFaxLLDML4ixGbWWaFao8HqYq/VWXABEAmFMxWNoIS9VgWvUvYkf83fH3x+cQn8flZrxO9l9AAGQvX8ZDVeUmQDsACABgObduBcJta6GKUFgy+Y9B/quELHPClmlKy5amJ9S2EUAQAOgqFO4JhoWl9bAF8bM+/vzbwP5uspU5WVt78dxIARCq1KpTAgAEAPDq9Fbm0v+ZS3/SC4BqbnsPGEwBALlaoNqzhQVAmDrchW4HAOwBALoE/6zj2UqZzbADYPbok3cAUyciMrePs7Zm0x5mVVz3dgAg1QvtHcBAMleNz7ztr6wAUM40AgjCGahe+s/sy7LGkQBAI9wMCJl/7ptlCYAGGwI9bMhIpVsrgXdH/i7Jf7/sniyjTY3Isl8a3hdgevZfYSeLG50sAUKz3ejeBej7n//7VTBklznU7AYgALCOKhdXAV3XslfZx6K02Yjo/wqA4ANA576/RGygANAKIABgIRAIAKX/oQIgDrarl8A9ALAPAIK/0v8sAWBNsHsAoA0AwV/pf6gAsOyEAMA646yrtQGl/3YCIFoBDrc/8rd/uAcAPDOA5KuxANAKIADgPg1A6X+oAJDh/BFBD9plgNL/CAHgroDfm2QEPGiXAUr/IwTAUuZ0wLkJECplgL0rwwSAkScCAF9XAazSRhm+5f8du9y8qtdJAMAtgbg52N2lgK9uIexiuJblEADQCsAdQ1e0F2PaKD43ogAd963IchplLoIc3Kr5uon2rz99ndURBUb+Op0JVqASABjWCmCa3Tar+ygK3FfS94ytPPI3QgDEFzRRmRMAIALyZHVxDsXnfCsMjCzX5dp00Vpb1/OVAAC0y74gzMNnfPZBVCvj39dK0PcnAGQ5BACs0z44+Gcr6d6Kg1uBoK2g708A8AMQACACmgb/tX6DpbWwiISlxRAweer7EwADR58IABDKvYP/q2LhtqKwsAiGBRWG+2Oh3S9YGzH6NKHHRgCACJhdzt3aR7WIh0d8FBWfUc0AuXYslAAo8jB3d+ASANii/9w5E+ywu10VlumPAHBpEAGA3d6TbmI5+uJTDvRs1deKwX9SlcjoEwEAtDi4J/f7tV7rjoUSAMpR7gKAasDGi1vCKe971HJ99S4IAqApHU2BBAD2NAheC5m3QuTL+onGqTf8EQArylPd+pwEAPZ+Z7ILgQj8Ew9xJlKOfwJguCmQAMCRQiDLwpnrb4F/6gFu8yrHPwFgXfA//w4HEY5+f8I0dZbgjR6/Ur8dEkZDCQCrUAkAnGj6Wm69u+486RIHtjI/U7VxPwKAgv2AbAhZ2mu31+BeXgz28f8f72ZUGjzbRkWN+xEARMAnyIyQXRh8tlpWH9+Yn90QBIBy1rN8Y2YBwOlv1p8AeIuzTE1bGQGJAACqpDNv9yMANuhtVRYBzC0A9Pst+iEABi8KChOVBx7Au/3+6ptTr4MX/RAAg0WAW9AAvGPazLLwSVuUAOB2tewCwEH9/st3wZ8AoIJLu15vWwLcrwC+Snqqe6AEfwKACHjQEtALA9BxxE/wJwCIAC0BAMNc/oI/AUAE2IYF4MkzrcvV6II/AcAZa0oAwKCsX/AnAEwHvLk4SDUAkPUL/gQABooA1QDAeJ/gTwBgqAhQDQCM9wn+BAAGi4D4e4wLAsb7BH8CACsMNd1EgGoAwOhntz8BgMEiQDUAqJn1d5lWch4RAGVEQPWbsz6rBrhdEMjv8O96BkXwdwYRAOlFQDezzW3pzRZBQLnf4jICAJ/Q+WUMJc6AA+QZ7bs2PWt4kQiAsvzn//7c9qVcVLmSHHBen7+j7+hj8PddEwClX9JL4xf08ltbgEIHzPRvSSRQvm8CoIUxp6MjV1sAOLbP322Tnxl/AsDCoEaEA9nLCyj3m/EnADBkQuCeP8CLDLxfPZxyZhjzIwCM6zAKAiqG/5h1TnD6EwDjRnemvNwWCQEC/yPsFiEATAgQAoBS/6Cz4MrsRwB48WeYAz+6fAkB4NckYFrgt9OfAMBgXwAhAIH/57Y7+631JQDw4ubAy8ADwdQAJr3j0yp++v0EALQE7BHA2Arf9MCv308AwL6Ap3qEcWgqFaL65r7uW0DXiHrVPQIARgVfyhz4BFCtihfP7HX4u2u+nwDABofJ9Azi1jCojAhlfiV/EACjDpepjuF7hCAKMaCsiAxu/ngWL97L35X8VewIAGgJHHLY8ArgjG19sn0ufwIApgS0CDCkxK8S97gqpyJHAMDioBQTBFoEYOhj9AMBoBpADBADeKrEH6Vs79bXWb+KGwEA1YBS5kGHFh6Z+QR9WT8BANWAIfsFiIG5WX709Dn4n39v4nPzDBEAUA1oZSCMg834Uv9+PqH8+n0d3g8CAKoBI3wDBEF9QbyU9pn4ZP0gAFQD8LIgiGCi75m/lx8GPuN62/X6iWACAIWrAQ7D/QSB6YJzn+2lj6/itf0zzh9DAKBRZuROgf08BCGyiIJjgj1Bu++zbJsfAQBtARAFgj2THwgAaAtgq9LqIgwi05oqDuJvjr89An18DkuwN5Kn3A8CANoCxMHf6wqEJcDH3xFEdhl/Gzd+vnI/YysBgOFtAZlXnZGsCKRBBNUlwN4Khnu8Erw/smTrH1myd1Ul7n4QAChako2A4nAEel+fzY8CAgAP2wJGqgB9fhAAIAQAFG4Z6fODAMBLRN+XEADc2AcCAIOFgIkBgMEPBACGTgxEOZEQAAR+EAAYLATMdAMCPwgAEAIABH4QAJgoBJgFgf239wn8IACQdnzQRjhgW8J3EyJb4AcBgBKbBd08CLy/wCcmcIzzgQBAOSJjCSHAJwA8dzWvzX0gAMAnAAzq79vVDwIAfALAkDK/db0gADCyPWCxEKaO8SnzgwCAqsDff2YaBDc/QABgslfABURg6gMIABglNEGA0iN8sn0QAMCbLYLIogQWVDD0CfogAICdWgQhBi4CDpIEfeN7IACAg8XAYh7UJoCgDxAAGD5JYKwQe5b3BX0QAEABA6FpArzr3mfkAwEAFBYDkbnxDWBtaT+qSTbzgQAACAI0XswTAV+WDwIAGOodCEHgfoIZF+6E8NPLBwgA4KGZkCDoU9KPDF/ABwgA4OmWQQQQoiA/8f0sPXwlfYAAAIiCZlxvgr3sHiAAgFSiwAjitll99O1l9gABAJQhAlYErhAHy/RBBDUTCD+MefF5LOa8+JwEeoAAAFqzrDNeJhFuBUKX1sLytyxZ/JLJm7UHCAAATwiFW7GwtBs+skf7IX7m7b9xG9BvM3fZO0AAAACApPx/1LOtpjWqedcAAAAASUVORK5CYII=" vertex="1" parent="1">
          <mxGeometry x="20" y="170" width="40" height="40" as="geometry" />
        </mxCell>
        <mxCell id="66uHyciYdJMsds9IyZAx-40" value="" style="shape=image;verticalLabelPosition=bottom;verticalAlign=top;imageAspect=0;aspect=fixed;image=data:image/png,iVBORw0KGgoAAAANSUhEUgAAAgAAAAIACAMAAADDpiTIAAAAA3NCSVQICAjb4U/gAAAAG1BMVEVHcEwAedbn8vzA3/Z+u+s9mOKg0PIbh9xcp+e+lH7BAAAAAXRSTlMAQObYZgAAAF96VFh0UmF3IHByb2ZpbGUgdHlwZSBBUFAxAAAImeNKT81LLcpMVigoyk/LzEnlUgADYxMuE0sTS6NEAwMDCwMIMDQwMDYEkkZAtjlUKNEABZiYm6UBoblZspkpiM8FAE+6FWgbLdiMAAAQO0lEQVR4nO2d62LjKAxGZx0n9vs/8W7a6bZpAHORQIJzfmc8NfqsK9h//gAsxu0/9g/ur+z74zb6jwMF/jP446+5j38uOJ8quKGDGdhu+3m/X1k8yvHhE/bbNvo+oJgP01db/l0JyMAPoqZ/4X4iA+Nsj/MyxjdynA9EYJIOxkcEVulo/C/uhAMrbA+lmJ8jgtE3D49zkPU/OXb8wEBu3T1/gDsJwRi23YD1PzkfoxdjOQxZ/wNCQVe2sYE/DBroxc2i+T9AAh24jSr6sjiRgC7Dav5sTnoDaljL/CIgAR2cmP/JHQnI83Bj/id3OgOy2E79QuAFBDFZ919CRSDEto82ZSW0hkTwFfxfOYgDrfgL/q/ccQItuPX+PyAO1HNz7P2/OSgJK5ng8f+EOFDD5jz6/wQnUM5jtNFkoSlQxkyP/ycHCijAc+0fhTCQi8/O7zWEgTy2GR//D2gM5jBH8R9hH7269pks+/8NLYE0s4b/b6gGUsxX/QUgEYgydfj/hnowwpTVfwhSwSDTzH6uOUevtUWmT/9+QjHwxlL2RwFvLGZ/ysFX5i//A1AO/s8S5f87KOAvi9qf2dBfVrU/CvhkXfuTCT5Z2f4oYHX7o4D16v/fLN4RWqj/H2NpBUy+/SePhRVwG732Nlh2Njjv9t9CFlUA9v+fJfcIrV4AvrBiS3D5AvAnC7YDKABfuI+2R28oAH+x2EZREsA31koDSADfWSkNIAEIsFBHkA5gkGX6QSQAEVbpB9EBiLFGIkgFGGWJbgABIMEK3QAqwBTzVwJUgEmmDwJUgBfMXgkQAC6YfC5IBXDJ1O0gKoAMZm4GkAFmMHEQ2EavrQ/mbQbQA85jVhdACZjJpM0AMsBs5mwGUAJmM6ULIAMsYEYXQAZYwIQuAAdQxHwugB5QEdO5ABxAIbO5ABxAIZO5AHoAxczlAugBFDOXC8ABlDOTC8ABVDCTC2AjWA3z7AxhDFjFPJvD6AJXMc3WIJpAlcySBtIEqmSWNJAasJY5YgApYDVzbA8lBazmGG07CRgDNDBDK4AuYAMztAKIAC34TwNpAjThPw0kAjThvxXAHKgN7zGACNCI9xhAG7gR73UAEaAV3zGACNCM714Qc4BmfCcBpADN+C4ESQHa8ZwEkAII4HlfECmAAJ6TAFIAATxvCiAFkMBvEkAKIILfJIBJoAh+u8GkACL4TQJIAWRwmwSwHVQGr+MAckAhvGaBtIGE8NoKoggQwmsZQBEghNeBICcCpBhtyUooAqRwWgeOXrZ58FkGUAWK4bMMoAgQw2cZQBEghs8ygCJAjtG2rIJRkBwuywAEIIdLAdAGkMPlPBAByOGyETB60WYCASyOx04QjUBBEMDieGwFIgBBPAqADWGCIIDF8TgMYBgoCAJYHASwOB4FwHYAQRDA4ngUAPtBBPEoALYDCOLxhDgCEAQBrM5oa1bAfhBJRluzAgQgyWhrVtBdAPdz329PHvt+l/7fj/u+P7QunsFoa1bQdZWO8/e2ye0hl4Scj1+7cre9d4bTzWxy9FuiYw9vmt0eEr2IN+t/XbyrBlRNpUOv9dlTe+a3R5sjOsLW/3vxvZ+XEzePPn0EcF4emWiw0pEU15+nBARvJYmUVTrSoxV8zzkwUW2lK/N/XLxTx7vZHP3RX5kjd7d8lZWufcsntx6uzmMnUF0A94IDc+WbEwqOYnSIAx6HQdrLkvuEfnIrywSOosN4+ntfPApAeVVKj0psJZ76KDyNWyivcjzuCtYVQPlhuQIFlASX4otX4VEAmtvCyzz0F7lZSc1qKyuAo2GvVB6XzzNSXbzVVYDH08GKAqh9HracUF0a/4suXgsviPhJfUDMEGWt/XVjnstXxGj5xPIU7ZvrzLThWVNMe+v/qIEodYLqH9EnV92JpmCr1vrw2AZQW47GfCjtlxrLLS2n57EK1IqJrWuR/qsaY61WGuCxCtQqA5rz4VRkal5opbDnsQr8o/OWqHZnmHhK29KLJ0q1r8siQCciJpdi2/fz/ty9mfxVPDdJOoDtuR204eINeBwGP1FYjISJXjZove0R/fnD2MVT9eXP7YX3xE4RlXaQzyJAoy6O++i3bT+JaXFMmPFI+3vad8SFqOECfOaAGgExmgGE9n5G7Rn5u6LqCrX5o+MojSzAaQ6o0AyOrUT4sYs+OOG/K6ausFePKkAh83GaAyoURZGViK15TAFhvUTUFd3sEfm9fAzwmgLIr0VkJeL/TcymwR+H1ZXI6iLHUZpv8zdeUwD5xljYnimZRfx0yKjhCJDK6iNJg3gMcDkL/kQ4CQif0Ur9i4jPCMWmsLqSUSx8dfEY4DYFkE4Cwuud/j/C7jNUoAaX+cKHBUUj7ff8pgDSnYCgk75Y7rCbDniNcLftwp2HbVN/h0HcFoF/pBOi4NN85WTCy/f+u6C6LgUcDM/CSYDjCCC8FiFbXrZeww/p+99Vpa6wbHoEPi+IJkShR+E64AYf0ncbBdV1efFg4JDNAv0WgU9EY0BIANeLnflohwSQkcKE5CUrANcRQLYQDC3FtbsNutD3f1ZpyUrd5OM7Asg+DaHrZyQZeY7DqgB8RwDZGBC6foaHCdno3bR17iVoH1EBOI8AonVAaC0yLl8vgIyLawvAewQQXY3Kh1RVAHkXr8dzF+gTwRhgUQDKVUD7NtXxyLVFKhMuVQFUijIX7yngE7nZSGg1MhyMpgCCIVo57XGHWCsg2He9Xm1NAQSfULneh/8U8IlYSAz2Xa9jgKYAQv9KMOvxnwI+kdsqH1zuy6srCiDoAOTqnhlSwCdiLqBuvfUEEDaQXAowQwr4RMwn5o52X9ETQNBDy0WAWRyAoAsIb++5CAJqAghvI5WLALM4AMGHIrwkFwrQEkDkKKFYF2AeByC3KJGyKP2iTiUBROwvFwHmcQCCzaDIQ5F8SZ+OAGIHycQiwEwOQM4FRM/vJdIMDQHE31QvVgPM5AAEXUD0lEzcCSgIIP6CABxABOUs4Mkt8nGYkABu+2/yBXBPvCNEruk1RxPwG7HcKLkwH5/1+0390brQxW593hAzxxTgJ1JLY9o1yjkAxwdCI4itjWXfKOYAfL4ZMo3Y4th9OOS2Plh2c9VIFUhmg4BcAJirBPxCrEJqeV24InL2NyvxRsS65DYjpNwY2HKa08LcLlJuL/B8JeAXcpNSe88I+4BymHezjOBZAHvilkPwTbqmMkHJT0jbTHCkEDwoZshTSr4h2tBtqSD5+hQrHSHRD8dauSktRF+nnnhtez9SWxEqbmn07agjeng+8dr2bvcj+jJMU5mNErLv0IpvzemCrPknnQH8QvqbGvdxUfMm/VrgmSvAb8S/qnKkPhCjRmwDUgNzV4DfKHxi9Ti7Pjzb41T4NtAKCcAnOt8UvZ/7LUTwSGnWr4KXe+ynzgdCZ+8A/ETrE6tBVN8QIsjsHYCfqHxcLYYTAayRAH6h9IXN7JW1J4DxHY2+KCSCMVwIYN49ADGUPi4fwIMAVkoAv1D60PY7DgSwov37La99AUQ/Qjk3yTPdgtgXwJr276YA8wJY1f69FGBdAOvav5MCjAtgZfv3aQnaFsBaDcB3OijAtABWt38PBVgWAPbvoADDAsD+T7QVYFcA2P8T5VrArACw/xe6CrAqgLXrv1ckz9a9YVQA2P8FxemwSQEsOv9JoLdDxKIA1pz/phE9YvkTgwJYZwN4CVrloD0BnNg/iFIxYE4Aq+3/zEdHAdYEQPkfR0UBxgSA/VNoKMCWALB/GgUFmBIA9r9CXgGWBID9rxFXgCEBYP8cpPsBdgRA/ZeHsALMCGCVF4C0I/fhhSdWBED/Nx9RBRgRAPOfEiSnw0YEgP2LENwhYkMAFABlCCaCJgRAAVCK7jc4ewuABLAcsS1CBgRAAliDVCJoQABsAKxCaP3HC4AEoA6hNGC4ANZ7A5gUMmnAcAGQAFQj0g0YLQA6APWIBIHBAmAE1ILEUGCsAKgA2xCoBccKgAqwkXYjDBUAAaCV9iAwUgAEgHaag8BIAVABtNO8SXSgAAgAErQGgXECIADI0BgExgmAACBDYztomACYAUjRFgSGCYAAIEbTTGCUABgCy9H0kbFBAmAXmCQteeAgAZABStKSB44RAC0AWRrywDECIAAIU58HDhEAGaA09XngCAHQA5SnOg8cIQAyQHmq88ABAqAHqEGtCxggALYBaVDrAvoLgBJQh8pjAv0FQAaoRJ1BuguAElCLum5QdwHgANSo6gb1FgAOQI8qF9BZAPSANKlxAZ0FQA9Ik5qGcF8B0APSpaIb1FcAOABdKrpBXQVAD0ibchfQVQA0gbUpdwE9BYAD0KfYBfQUACWgPsUuoKMA6AH1oNQFdBQADqAHpS6gnwBwAH0odAH9BIAD6EOhC+gmABxAL8pcQDcB4AB6UTYR6CUAHEA/ilxALwHgAPpR5AI6CYAmYE9KXEAnATAF6EmJC+gjABxAXwpcQB8B4AD6UrA7sIsAcAC9yd8d2EUAOIDe5LuAHgLAAfQn2wX0EAAOoD/ZJwU7CICtwCPINU8HAbAVeAS5laC+AHAAQ8idCusLgDHQGDJdgLoAOA04iMx+sLoAcACjyKsE1QWAAxhFXjNIWwA0gcaRlQZqC4Am0Diy0kBlAVADDiQrDVQWAE2gkeSkgboCOLRvEVLkpIG6AqAGHEuGjXQFQA04low0UFUA1ICDyUgDVQVADTia6zRQUwCkgMO5TgM1BUAKOJ7LbqCmAEgBx3OZBioKgBTQAJdpoKIA6AJa4CoG6AmAnSAmuIoBegIgBTTBVQzQEwBNABtc2ElNAAyCjXARA9QEQAQwwkUMUBMAKaAV0nWAlgBoA5shPQ/QEgARwAzpeYCWAIgAZkgnAUoCIAIYImkpJQEwBzBEshBUEgBzAEMkXxahJABSAEMkT4of93fef18qACKAKSo+J9gIDsAUW+WHvquhCWCM7FdGycBOAHNUfVm+GkoAc1R9Wb4WBsEAAAAAAAAAAAAAAAAAAAAAAAAAAAAAAAAAAAAAAAAAAAAAAAAAeWy3joy+WXin68siR98svIMAFgcBLA4CWBwEsDgIYHEQwOIggMVBAIuDABYHASwOAlgcBLA4CGBxEMDiIIDFQQCLgwAWBwEsDgJYHASwOAhgcRDA4iCAxUEAi4MAFgcBLA4CWBwEsDgIYHEQwOIggMVBAIuDABaHV8QAAAAAAAAAAAAAAAAAAAAAAAAAAAAAAAAAAAAAAAAAAAAAAAAAWGO7d3tJ3H0bfbMQYDuw/9p0UsCB/a1y66EA7G+YG/ZfHHUFHLwl1jbar4zG/tbRVQD2t8+uaP/H6JuDDPQUgP19cCrZfx99Y5CJjgKwvxtUxgLn6LuCfBQUgP1dIa6AkwagL4QHQwwA3SGqAOzvEEEFMAByidhwGPs7RWg0iP3dIqIABsCOkRgNYn/PtCsA+/umdTTIANA7bQrA/v5pGQ0yAJyBegVg/ymoHgwxAJyESgVg/2moUgADoImoGAxh/6koVgD2n4xCBTAAmo6i4TD2n5CS0SD2n5FsBTAAhlX4F5+uaYTlnU9gAAAAAElFTkSuQmCC" vertex="1" parent="1">
          <mxGeometry x="260" y="340" width="40" height="40" as="geometry" />
        </mxCell>
        <mxCell id="66uHyciYdJMsds9IyZAx-44" value="" style="endArrow=classic;html=1;fontSize=11;" edge="1" parent="1">
          <mxGeometry width="50" height="50" relative="1" as="geometry">
            <mxPoint x="40" y="360" as="sourcePoint" />
            <mxPoint x="260" y="360" as="targetPoint" />
          </mxGeometry>
        </mxCell>
        <mxCell id="66uHyciYdJMsds9IyZAx-45" value="Calendar&amp;nbsp;Subscription" style="text;html=1;strokeColor=none;fillColor=none;align=center;verticalAlign=middle;whiteSpace=wrap;rounded=0;" vertex="1" parent="1">
          <mxGeometry x="220" y="300" width="120" height="20" as="geometry" />
        </mxCell>
        <mxCell id="66uHyciYdJMsds9IyZAx-46" value="" style="endArrow=classic;html=1;fontSize=11;" edge="1" parent="1">
          <mxGeometry width="50" height="50" relative="1" as="geometry">
            <mxPoint x="480" y="120" as="sourcePoint" />
            <mxPoint x="480" y="360" as="targetPoint" />
          </mxGeometry>
        </mxCell>
        <mxCell id="66uHyciYdJMsds9IyZAx-47" value="" style="endArrow=classic;html=1;fontSize=11;entryX=1;entryY=0.5;entryDx=0;entryDy=0;" edge="1" parent="1" target="66uHyciYdJMsds9IyZAx-40">
          <mxGeometry width="50" height="50" relative="1" as="geometry">
            <mxPoint x="480" y="360" as="sourcePoint" />
            <mxPoint x="430" y="380" as="targetPoint" />
          </mxGeometry>
        </mxCell>
        <mxCell id="66uHyciYdJMsds9IyZAx-61" value="" style="shape=image;verticalLabelPosition=bottom;verticalAlign=top;imageAspect=0;aspect=fixed;image=data:image/png,iVBORw0KGgoAAAANSUhEUgAAAH4AAACWCAMAAAAv6sxVAAAACXBIWXMAAA7BAAAOwQG4kWvtAAADAFBMVEVHcEwlrOhHvO0+v/91y/Qir+t1zfJGvO0drOkAqeohsutDu/AAquthxu9hyPIAquwAqusAq+50zvMereotvf8jr+w90O5BueZHvO15zvEntO0ms+x71PYer+tRvupCseMpsOwbr+oXr+wmsuUjtfAgsOwlsuxMve4ssO0/uu5fw+8ZsOxoyPIwtOwNresGrOwyt+5bwu9awu580fUrtOwKrOtwy/EotO1Jve8Tr+sdsOxAu+1KvO4nsuwzuO10y/Q5t+0eseoesew+uu1xy+9pxu97z/AesupbxfBixvBzzfJAuO1Cue14yf8ZreoGrOsPrOtPvu0Vrus3tes2tOxLve4vtewrsusfsesXrucptOwksexNve4ktO0IrOtJvO0SregOreoCqutUwe5NvO4HrOtFu+0ZsOxHve1CuOtuzPIute0hr+ser+wbr+wKrOtEuexawfMcsupLwO130vQFqetoyfCB1PMlsutbwu8NruxCue0dsOwJrOwttu05t+1cw/Bixe950PJHve8SrewHq+wksOtBuewLr+xQve1bxPBXwe4+ue5myvE0tOsUrepxzPINq+wcsOo+ue1btuxLwvBwyvAhsusPrewYr+kKq+0gsuwVretWwe9qyvAntOwesesKq+ttzPMvtu1oyvE1ue0jsuwZse0GqusXse0cr+sdrusosuscsO1dxfBuye8MrOoVresfsewnsuxnyvM7u+4ns+0PresstOxNw/B60fRPv+8wuu9px+5tyO9jxe80tOhox+95zO5EvO1UwfAAq+wZreoKrexiyPIBq+xxzfMIrexSwe5IwPAZrus+uu4jtu4Cq+wqte0Ures8u+4dreo0ue4DrOwvue8FrOwPruwHrOwPsO0RruxQw/FhyPIls+0MrewEq+xLwO8fs+0ts+wKru1FvO4xue4XsO1PwO8UsO0csu0jte4vt+42ue4hrus3t+0+vO9Dv/BVwu8st+4ntu5LwfE4uu8arepjyfJSwe9YxPBix/E2vO8nsOvxnTLOAAAA33RSTlMAIrMIMt13kdVjNSKaMiqI90xa1AHoAgXhs5UyHlkYCQ0e7QoQY9IwB48S5yrf9/d32Tsa+eBL7EzUsUj0KdEOfSxo4zFGVxTGxcX1yQkZ+T/d8kDDtmm+oAum1WOc8r5R5MWHfvyt/SogbeV+Npba8R8kHDBNWktuWLi/uOrWuuB0abJF5cWolnXQ89Wa9cn8X4hmDvci7MxTZdP6kDKJ+f7tsSf12faa9dH1q/Hq0pR0it2q6tbrieoy0PFvs0gidz2/vv/////////////////////////////////9QpXd8wAABV1JREFUeNrt3HdcG1UAB/An2FoXDmKiSRP2HqWsFihbxVFbu+ygn9baPaxd2Onee2+te++9xfUMZypypTZNKDIKUj5FKN0VVwZZ793lLsnde3/0fh/+SO497ksu7717twCg6seBLa54XjlfDvguc7w+UL4aSJeqTU0wsDSVJEnH/2CBgaYtQTq+M2AdMh9HSMbvDZyH206VjD9Kl/9J4RVe4RX+WObNj5+G5fYGLr72uyjpeVMKXuUSLQf/fWXHhrBv8iXmjSdw1DkR4ffZ+PN3Q8a089OMkWri/P7NDt4e1px5G2n+l+NtC09xvWNb9Yteosfb/4CXszbT423zr+aniinyti0wZ4KaIm8bMpZS5SG7dW4cRR7CPdrpNHlo2qSmyUNzIlUeWl6kykPjs3E0eWhcPp0A/xrDewQ+VS0/X1XA8vmWd+XnQfILvXz+2wR4AFJHVo/g7n6zJeWRzXz4C3fRulc5/auulJCPOcM7NTWjSz1lRb9znRtiqxdJx/vNoxVWrtZ/KSEeaLQmDj9zHCEegBnzOfwtmtD4c4cKZ42z6rLncd56Q0i8oaThzwav+LxxLUlc5aysN+L+XSHxJ28VcbTXeJKzsvpJfAicSI4HozuwsvYp5HiAN3/mvipyfH4atgdsyyLHgwvwj39tBDk+JxYrbZ1EjgfvMEGMvNLxYCFW/HcOQT6lHS3uMgTNR2nrhbM83mtV8a0o3z0u+DE/+jjhRHuvKnUf1vav1xDY4w1GdTm29Q8Q5DlG3n6SfP4OrOvdETRfFOaTm8I4UuSzrrX/Yl1jTLD86lEm4cSW+5x/nIZdFLyYXL8H4Jk9VPmhr6MV7iXJgyvQCm/S5efPJcnfik75LLNJ8pPRpm/eSJIfi/LsZJI8NuNip5LkL0R5ZtQ5zqQGyGvKfhVOWbIADy07nckbkjEhO5AxXx0+mKhwn0R5vUfPIV30B/89D6x5fO4KOfd4fnlHS4CN2uJ0lWz8jZlCrYXt6cuSjQdpItqrtXC9CF4/RDh6lD9LzFVQS+wkQX5xLiOcp3XB8JB5LkaWfi+Stx1/6ajycOFMqjx8gy4//n2qvDm3liYP2ys0NHnY+i1Vvn2jxg9/UMQa6jGeCcDvD+fnVUt+Fs4SdI+bfD9XtX8Guho5+OZwqXc5/Lnz7muwLdNFjgfg5jzU7yfJg+vQqVgnUd5wC8L/J4p/YMTpPnlkTZB+BrL194Z0IS3gVCLHYL+R5c9WeIVXeIXH7tU8UudJS13dR6V8/D1/uSt5vWhpaanjTwcjwKPZcWbAd64EEIVXeIU/FvmjNPlOoWeyZOWtKeAyKzW+OUENNJ/59Q9eDUDO58hC+x3qa78K+bMn2C9xaqbU+zkoPmTjhx9GFg7enx9aLB+4jo7HVg9zJXKYb5bZiofvQn7T8XBEWSRSP9L+E4muwFHgXugpTlwgdpLAzROLwhPn0yNcOW8/wvetd5elp8uCq9b1bXdldzc6XvS6y7Yf+VoWf4zI7ttRKwu/skeU3qaT6bsvtorhu1LlansVRkGcTSuXrelnf2IWuiQj+mbkYKKbI3CCtmmBrF0/ZpZ//jGDvEOP/95njJN76HvFz9dvCfFRPBGJ38D/CMQ02T88AA918/W59+IJ7O0eLuT55wg9M4nsbTUFnJvf/JYakMlELj6N2GxjXjPHJHkeudlOAvb1W/UEJ1srt6EX4GrUBHkVeiDWmwSI5kGfp39mPQEIp8Rr8DXPIK2D7FwPH5tEnAeL692tPgZQyCrXs0+7VDR4w1LH2Wj2w2hAJboCe/M7lAQoRZfHwLaUUlo8+NLCFkZT00HyikqNxKv8H/tyJ0675xnIAAAAAElFTkSuQmCC" vertex="1" parent="1">
          <mxGeometry x="126.4" y="180" width="33.6" height="40" as="geometry" />
        </mxCell>
        <mxCell id="66uHyciYdJMsds9IyZAx-75" value="" style="shape=image;verticalLabelPosition=bottom;verticalAlign=top;imageAspect=0;aspect=fixed;image=data:image/png,iVBORw0KGgoAAAANSUhEUgAAAgAAAAIACAYAAAD0eNT6AAAABHNCSVQICAgIfAhkiAAAAAlwSFlzAAAN1wAADdcBQiibeAAAABl0RVh0U29mdHdhcmUAd3d3Lmlua3NjYXBlLm9yZ5vuPBoAACAASURBVHic7d13uC1Vnef/9yLnLIiKIgYQ2YqYc06Yga0CJtCNgaQISguFylYEkXDvNZdtaB+17Rr1YewfOuPY/XOYaYdulflRGFCbaQZt27a1DUiG+v1Rh/YCN5yw9/5W7fV+PY9/cO85uz5eLmd9alWttVLTNEiSpLxsEh1AkiTNngVAkqQMWQAkScqQBUCSpAxZACRJypAFQJKkDFkAJEnKkAVAkqQMWQAkScqQBUCSpAxZACRJypAFQJKkDFkAJEnKkAVAkqQMWQAkScqQBUCSpAxZACRJypAFQJKkDFkAJEnKkAVAkqQMWQAkScqQBUCSpAxZACRJypAFQJKkDFkAJEnKkAVAkqQMWQAkScqQBUCSpAxZACRJypAFQJKkDFkAJEnKkAVAkqQMWQAkScqQBUCSpAxZACRJypAFQJKkDFkAJEnKkAVAkqQMWQAkScqQBUCSpAxZACRJypAFQJKkDFkAJEnKkAVAkqQMWQAkScqQBUCSpAxZACRJypAFQJKkDFkAJEnKkAVAkqQMWQAkScqQBUCSpAxZACRJypAFQJKkDFkAJEnKkAVAkqQMWQAkScqQBUCSpAxZACRJypAFQJKkDFkAJEnKkAVAkqQMWQAkScqQBUCSpAxZACRJypAFQJKkDFkAJEnKkAVAkqQMWQAkhUhlvXd0Bilnm0UHkJSXVNYHAu8GLgPeFZtGypcFQNJMpLIe0A74LwFuAo4JDSRlzgIgaapSWe9PO/AfBqSFX/5CMxr8MiyUJAuApOlIZb0fcAbwMu76vtEFs08kaW0WAEkTlcr6AbQD/xGs+0Xjv2lGg8tnm0rSnVkAJE1EKut9gAJ4JbDpBr70/NkkkrQhFgBJK7KwnO904NVs/GfKj4GLp51J0sZZACQtSyrrvYDTgKOBzRf5bRc2o0EzvVSSFssCIGlJUlnfE3gH8DpgiyV862+Az0wllKQlswBIWpRU1nsCpwKvB7Zcxkd8vBkNrptsKknLZQGQtEGprPcA3g68Adh6mR9zM/DBiYWStGIWAEnrlMp6N+BtwLHANiv8uKoZDX6+8lSSJsUCIOkOUlnvCpwMHAdsN6GPdeMfqWMsAJIASGW9M3AScCKw/QQ/+pJmNPjOBD9P0gRYAKTMpbLeEXgL8GZgxylcwrt/qYMsAFKmUllvT3u3fxKw85QucxVw0ZQ+W9IKWACkzKSy3g44nvY5/y5TvtzqZjS4bcrXkLQMFgApE6mst6F9o/9twG4zuOTvgU/O4DqSlsECIM25VNZb067hPxXYfYaX/kQzGvxhhteTtAQWAGlOpbLeknbXvlOBPWd8+VuB1TO+pqQlsABIcyaV9Ra0+/S/A7hnUIyvNKPB1UHXlrQIFgBpTqSy3pz2ZL7TgL2C47j0T+o4C4DUc6msNwNeDZwO7B2bBoBLm9Hg76JDSNowC4DUU6msNwVeCRTAPsFx1ubdv9QDFgCpZ1JZbwIcAZwBPCA4zp1dA3wpOoSkjdskOoCkxUllvUkq68OBHwCfpXuDP8CaZjS4JTJAKqqDIq8v9UVqmiY6g6QNSGWdgMOAdwH7x6bZoGuBvZrR4LdRAVJRPQn4DPCgZjy8ISqH1Ac+ApA6amHgfwntwD+ITbMon44c/Be8mfZFyFOAcWwUqducAZA6KJX1C4F3AwdGZ1mk24B9m9Hgp1EBUlHdF/gp7aPN64D9mvHwmqg8Utc5AyB1SCrr59EO/A+PzrJEfx05+C84nj+917QNcC7w8rg4Urc5AyB1QCrrZ9MO/I+OzrJMT2lGg29FXTwV1fbAz4Ad7vRbT2nGw7BcUpe5CkAKlMr6Gams/yfwdfo7+F8WOfgvOJq7Dv4Aq1JRbTrrMFIf+AhACpDK+inAmcATg6NMQujGP6moNqGd/l+XhwLHAB+ZXSKpH5wBkGYolfUTU1n/DfC3zMfg/wvgi8EZXgDcbwO/P05Ftcuswkh94QyANAOprB9Le8f/jOgsE/ahZjS4KTjDmzfy+7vS/tkfN4MsUm/4EqA0RamsH0X7ct9zorNMwfW0G//8OipAKqoDgcsW8aW3Ag9rxsN6ypGk3nAGQJqCVNYPpx34nxedZYo+Gzn4L9jY3f/tNgVWA0+dYhapV5wBkCYolfWBtDv3vSg4yrQ1wIOb0eCHUQFSUe0BXA1suYRve2kzHlZTiiT1ii8BShOQynqQyvpLwPeY/8Ef4OuRg/+CN7K0wR/gA6motp5GGKlvfAQgrUAq6/2BdwJDIAXHmaXopX9b0haApbo38HbaWRopa84ASMuQynrfVNafB2rgpeQ1+F/RjAbfCM5wOLD7Mr/3bamo7jPJMFIfOQMgLUEq6/sDZwBH0L5YlqMLowOw+Jf/1mVr4AO0szZStnwJUFqEVNb7AKcDryLfgR/gV8C9m9HghqgAqaieCvzNBD7qac14+LcT+Bypl3wEIG1AKuv7pLIugSuBo8h78Af4SOTgv2Ald/9rW+05AcqZjwCkdUhlvRfwDuC1wObBcbriRuDDkQFSUd0PeP6EPu4A2hcJPzihz5N6xRkAaS2prO+RyvqDwE+AN+Dgv7YvNKPBL4MznMBkf26dmYpq1wl+ntQbzgBIQCrruwOnAq8HtgqO01XRS/92pD32d5J2Bt7D8pYUSr3mDICylsp691TW5wFXASfi4L8+32xGg8uDM7wW2G4Kn3vMwpkCUlacAVCWUlnvBpxCe0LcNsFx+iD67n9T4PgpffwmtOcEPGlKny91kjMAykoq611SWZ8F/B/gbTj4L8aPgYuDM7wI2HuKn//EVFQvn+LnS51jAVAWUlnvlMr6TNqB/8+YzlTyvLqwGQ2iNwyZ1NK/DTk3FZWFUNnwEYDmWirrHYC3LPxvx+A4ffQb4DORAVJRPRx44gwudS/acljM4FpSOGcANJdSWW+fyvo04J9oD35x8F+ejzejwXXBGWZx93+7k1NR3XeG15PCOAOguZLKelval8VOBlzfvTI3E7xJTiqqPYGXzfCSWwHnAYfM8JpSCGcANBdSWW+Tyvpk2mf878PBfxKqZjT4eXCGNzH7zZhekorqGTO+pjRzHgakXktlvRXtJi5vB/YIjjNvHtmMBt+Jungqqq2Aa4DdAi7/A+ChzXh4S8C1pZnwEYB6KZX1lsAxtC9t7RkcZx5dEjn4L3gFMYM/wP7AscCqoOtLU+cjAPVKKustUlm/EfhH2s1bHPynI3TjnwUnBl//Xamo7hacQZoaZwDUC6msN6c9jvc04N7BcebdVcBFkQEWnsEfEJkB2Al4L+1MkzR3nAFQp6Wy3iyV9dG0u9F9DAf/WVjdjAa3BWeY5dK/DXltKqqDokNI0+AMgDoplfWmtM+AC+B+wXFy8nvgk5EBUlE9EDg4MsNabj8n4AnRQaRJcwZAnZLKepNU1kcCPwQ+jYP/rH2iGQ3+EJzhRCAFZ1jb41NRHRkdQpo0lwGqE1JZbwK8FHgnsF9wnFzdCtyvGQ2ujgqQimon4GfAtlEZ1uPnwL7NePjH6CDSpPgIQKFSWSfgUNrteh8cmyZ7X4kc/BeM6N7gD3BP2hdQ3xEdRJoUZwAUYmHgfzHtwP+Q2DRa8LhmNPh21MVTUW1KuwKhqy963gg8uBkP/zE6iDQJvgOgmUtl/QLgu8CXcfDviksjB/8Fh9DdwR9gS+D86BDSpFgANDOprA9OZf0PwH8GHhadR3fQhY1/urL0b0NemIrqWdEhpEnwEYCmLpX1s4AzgUdHZ9E6XQPs04wGYfvep6J6FHBp1PWX6EfAQ5rx8OboINJK+BKgpiaV9dOBdwOPj86iDVoTOfgv6MPd/+32oz1y2scB6jVnADRxqayfTHvH/6ToLNqoa4G9mtHgt1EBUlHdk/YY51kf+7sSvwMe2IyH/xodRFouZwA0Mamsn0B7x/+06CxatE9HDv4LjqVfgz/AjsD7gNdGB5GWyxkArVgq68fQ3vE/MzqLluQ2YN9mNPhpVIBUVFvTbvyzS1SGFWiARzXjYfSxydKyuApAy5bK+pGprC8Gvo2Dfx99NXLwX/Aq+jn4Q7td8ZpUVF3atlhaNB8BaMlSWR9EO9X//OgsWpHQpX8LA+eJkRkm4DG0h1Z9NjqItFTOAGjRUlk/NJX1V2g38XHw77fLmtHgW8EZngU8KDjDJJyTimq76BDSUjkDoI1KZX0A7Za9h9CtU9q0fG78Mzl7AqcDp0YHkZbClwC1XqmsNwP+Ang5Dvzz5BfA3s1ocFNUgFRUDwK+z/z8vboJOKAZD38SHURaLB8BaEOOAw5nfn5Iq/WhyMF/wYnM19+rLejGrIq0aM4AaJ1SWe8O/Jh2vbPmx/W0G//8OipAKqpdaLcf3iYqwxQd3IyHX4sOIS2GMwBan7Nw8J9Hn40c/Bccw3wO/gAXpqLq26ZGypQFQHeRyvrhwFHROTRxDXBhZIBUVJvR7vw3rx5I/5c2KhMWAN1BKusErMG/G/Po681o8MPgDIcB9wrOMG1npKK6e3QIaWP8Ia87OxJ4bHQITUUXXlJ7S3SAGdie9pwAqdN8CVD/IZX1dsCVwD2is2jirmhGg0FkgFRUjwX+LjLDDDXAY5vx8NLoINL6OAOgtZ2Gg/+8Cn32v2BeNv5ZjASs9pwAdZkFQACksr4/cFJ0Dk3Fr4DPRQZIRbUX7U6SOXkU8OroENL6WAB0uwtoNzPR/PlIMxrcEJzhOPLcevzsVFQ7RIeQ1sUCIFJZPwcP95lXNwIfjgyQimpbYBSZIdAeQBEdQloXC0DmUllvTjeeD2s6vtCMBr8MzvBqYOfgDJFOTEW1b3QI6c4sADoB8IfT/Apd+rfwEtwJkRk6YHO6sQRTugMLQMZSWe8BnBGdQ1PzzWY0uDw4w3OxYAI8NxWVj9nUKRaAvJ0N+ILS/OrCXWdOS/825oJUVL5oq86wAGQqlbVLlObblcDFkQFSUT0YeGZkho65P3nshKiesABkaGG//9XM13nsuqNVzWgQvc2nd/93dXoqqj2jQ0hgAcjVq4BHR4fQ1PwG+ExkgFRUuwGviMzQUdsB50SHkMACkJ1U1tvTPvvX/Pp4MxpcF5zh9cBWwRm66hUL5yJIoSwA+SkAjyqdXzcDH4wMkIpqc+DYyAwdd/s5Af78VSj/AmYklfUD8bnsvKua0eDnwRleBvice8MeARwVHUJ5swDk5ULaTUk0v1z61x9npaLaMTqE8mUByEQq6+fRbsqi+XVJMxp8JzJAKqonAA+PzNAjuwPvjA6hfFkAMpDKegu6cWeo6erCv2Pv/pfm+FRUD4oOoTxZAPLwZuAB0SE0VVcBF0UGSEW1N/DiyAw9tBkexqUgFoA5l8p6TzyONAerm9HgtuAMxwGbBmfoo2elonpRdAjlxwIw/86h3XxE8+v3wCcjA6Si2g54XWSGnjs/FdWW0SGUFwvAHEtl/RjcjS0Hn2hGgz8EZzgK8I325dsHeGt0COUlNU30duGahoX9/v+edr2x5tetwP2a0eDqqAALG9pcSXvYjZbvj8C+zXgYvY+DMuEMwPw6Cgf/HHw5cvBf8Dwc/CdhW+D90SGUDwvAHEplvSPwvugcmgmX/s2XI1JRPT46hPJgAZhPZ9BuMqL5dmkzGnw7MkAqqocAT4vMMIfWeE6AZsG/ZHMmlfV+wPHROTQT3v3Pp4fhigrNgAVg/qzC/f5zcA3wpcgAqah2B46IzDDH3puKaqfoEJpvFoA5ksr6hcCzonNoJtY0o8EtwRneALh2fTp2A94dHULzzWWAcyKV9ZbA94H7RWfR1F0L7NWMBr+NCpCKagvg/wJ7RGXIwC3Agc14+P3oIJpPzgDMj5Nw8M/FpyMH/wWH4+A/bZvRPtKTpsICMAdSWd8TOC06h2biNroxKPjy32w8PRXVIdEhNJ8sAPPh/bSbiGj+fbUZDX4aGSAV1ZOBAyMzZOa8VFRbRYfQ/LEA9Fwq68fjm9g5celffvYGTokOofnjS4A9lsp6E+AfgIOis2gmLmtGg9B/16mo9gF+gjcPs3YdsF8zHl4THUTzw/+I++21OPjnpAt3/yfgz40I2wDnRofQfHEGoKdSWe8E/Bi4W3QWzcQvgL2b0eCmqACpqHYAfgZsH5VBPLkZD/97dAjNB5t8f70LB/+cfChy8F9wNA7+0Vanoto0OoTmgwWgh1JZ7w8cG51DM3M98NHIAAuH03jGRLyHAsdEh9B8sAD00yraTUKUh882o8GvgzO8ENgnOINa41RUO0eHUP9ZAHomlfVLgGdE59DMNMCF0SGAt0QH0H/YFRhHh1D/+RJgj6Sy3gr4AXDf6Cyama81o8HBkQFSUT0M+F5kBt3FrcDDmvGwjg6i/nIGoF9OxsE/N11Y+ufGP92zKd3YElo95gxAT6Sy3gv4Ee16YOXhimY0GEQGSEV1d+BqYIvIHFqvYTMe/qfoEOonZwD641wc/HPThWf/b8TBv8s+kIpq6+gQ6icLQA+ksn4S8LLoHJqpXwGfiwyQimpL2gKg7roP8LboEOonC0DHpbLeFFgdnUMz95FmNLghOMORuNlUH7w9FdV9okOofywA3Tei3fxD+bgR+HB0CODE6ABalK2BD0SHUP9YADoslfXOwHuic2jmvtCMBr+MDJCK6mnAQyIzaEkOS0X11OgQ6hcLQLedSbvph/Li0j8txyrPCdBSWAA6KpX1AF/AytE3m9Hg8sgAqageADw/MoOWZQC8ITqE+sMC0F2raDf7UF66cPd/ApCiQ2hZzkxF5ayhFsUC0EGprA8DfJ6XnyuBiyMDpKLaEXhNZAatyC54ToAWyQLQMamsfaM3X6ua0SB6a87XAdsFZ9DKHJOKypVD2igLQPe8jXZzD+XlN8BnIgMsvEB2fGQGTYR7h2hRLAAdksr63sDbo3MoxMeb0eC64AwvxvI5L56UisrdQ7VBFoBuOY92Uw/l5Wbgg9EhgLdEB9BEnZuKyvNDtF4WgI5IZf0U4LDoHArxV81o8PPIAKmoHgE8PjKDJm4v4NToEOouC0AHuN9/9rqw9M+Nf+bTKamo9o4OoW6yAHTDG2g38VB+LmlGg+9GBkhFdQ/gpZEZNDVb0T5alO7CAhAslfWutFv+Kk9duPt/E7B5dAhNzSGpqJ4eHULdYwGIN6bdvEP5uQq4KDJAKqqtcfvYHKxKRbVZdAh1iwUgUCrrhwLHROdQmNXNaHBbcIZX4IFTOXgw7UyP9B8sALFW437/ufod8MnoEMCJ0QE0M+9ORbVbdAh1hwUgSCrrlwFPis6hMH/ejAZ/iAyQiuqZtHeGysNOwHujQ6g7LAABUllvA5wbnUNhbqUbyz5d+pef16Wielh0CHWDBSDGqbSbdChPX25Gg6sjA6Si2hd4bmQGhdgEWBMdQt1gAZixVNZ7A6dE51CoLiz9OxFI0SEU4vGpqI6IDqF4FoDZO492cw7l6dJmNPh2ZIBUVDsDr47MoHDvT0W1bXQIxbIAzFAq66cDh0TnUKgu3P2PAA+Jyds9gXdEh1Cs1DRNdIYspLLeDPjf+NZ1zq4B9mlGg1uiAixsBnMVvoMiuBHYvxkPr4oOohjOAMzOm3Dwz92ayMF/waE4+Ku1JXB+dAjFsQDMQCrr3YB3R+dQqGuBMjoELv3THb0oFdWzokMohgVgNt5LuwmH8vXpZjT4bWSAVFSPBh4TmUGddKHnBOTJAjBlqawfBrwuOodC3Qasig6Bd/9atwcBx0eH0OxZAKZvDf455+6rzWjw08gAqajuBRwWmUGd9s5UVLtHh9BsOTBNUSrrI4DHR+dQuC4s/TsOcJpX67MjcFZ0CM2WywCnJJX1tsCVtOttla/LmtHgoMgAqai2oV2CuEtkDnXebcCjm/HwO9FBNBvOAEzPO3DwVzfu/l+Fg782bhNgdSoqt4jOhAVgClJZ7wO8NTqHwv0C+GJkgIUf5idGZlCvPBZ4RXQIzYYFYDrOp91kQ3n7UDMa3BSc4dnAfsEZ1C/npKLaLjqEps8CMGGprJ8FvCg6h8JdD3w0OgTwlugA6p09gdOjQ2j6fAlwglJZbw5cjndcgo83o8HrIwOkotof+H5kBvXWTcCDm/EwdPmqpssZgMk6Dgd/QQNcGB0Cn/1r+bagGy+waoqcAZiQVNa7Az+mXU+rvH2tGQ0OjgyQimpX2qV/W0fmUO8d3IyHX4sOoelwBmByzsLBX60u3Dkdg4O/Vu6CVFSbR4fQdFgAJiCV9SOAo6NzqBOuaEaDb0QGWPiBfWxkBs2NffFR0tyyAKxQKusErAbcPEPQjWf/Q9yESpNTpKLaIzqEJs8CsHKvoN08Q/oV8LnoEHjqnyZrB+Ds6BCaPAvACqSy3g44JzqHOuMjzWhwQ2SAVFSPAx4ZmUFz6dWpqB4VHUKTZQFYmdNpN82QbgQ+HB0C7/41HQnPCZg7FoBlSmV9f9xlTX/y+WY0+GVkgFRU9wYOicygufZo2oOlNCcsAMt3Ae1mGRJ04+W/44FNo0Norp2dimr76BCaDAvAMqSyfi7w/Ogc6oxvNqPB5ZEBUlFtC7wuMoOycHfgjOgQmgwLwBIt7Pffhbs9dUcXNv55DbBTdAhl4cRUVA+MDqGVswAs3YmAf/l1uyuBiyMDLLyY5WYtmhVvguaEBWAJUlk7/aU7W9WMBtEHahwMPCA4g/Ly3FRUz4sOoZWxACzN+wBfgNHtfgN8JjoErkZRjAtSUfkidI9ZABYplfWjgFdH51CnfLwZDa6LDJCK6gDg6ZEZlK0H4L4TvWYBWISF/f7X4H7/+pObgQ9Gh8AfwIpVpKJyM7SesgAszqsBt8HU2v6qGQ1+HhkgFdXdgCMjMyh7bofeYxaAjUhl7UEYWpcuLP17PbBVdAhl7xWpqB4THUJLZwHYuALwKEyt7ZJmNPhuZICFl6/eFJlBWpCANZ4T0D8WgA1IZb0vrq/WXXXh7v9leBCVuuMRwFHRIbQ0FoANu4B20wvpdlcBF0WHwJf/1D3vS0W1Y3QILZ4FYD1SWT8feG50DnXO6mY0uC0yQCqqJwIHRWaQ1mF33CitVywA65DKegu6Mc2rbvkd8MnoEHj3r+46PhXVftEhtDgWgHV7C3D/6BDqnD9vRoM/RAZIRXVf4EWRGaQN8JyAHrEA3Ekq6z2B06NzqHNuBVZHhwCOBzaNDiFtwLNTUb0wOoQ2zgJwV+fQbm4hre3LzWhwdWSAVFTbA6+NzCAt0vmpqLaMDqENswCsJZX1Y4FXROdQJ3XhnZCjgB2iQ0iLcD/gpOgQ2rDUNNEnmXZDKutNgEtp17NKa7u0GQ1CdzpLRbUJ8GPaH6xSH/wR2LcZD0O3zNb6OQPwJ0fh4K9168Ld/wtw8Fe/bIvnBHSaBQBIZb0jcFZ0DnXSNcCXokPg0j/105GpqB4fHULrZgFovZN2EwvpztY0o8EtkQFSUT0UeEpkBmkFVi88wlLHZP8vJZX1g2iXVkl3di1QRofAu3/120G4eqWTsi8AtJtWbBYdQp30qWY0+G1kgFRUewCHR2aQJuC9qah2ig6hO8q6AKSyfhHwrOgc6qTb6MbGP28EXE+tvrsb8K7oELqjbJcBprLeEvgBsE90FnXSRc1o8OLIAAsbqVwN7BGZQ5qQW4CHNuPhD6KDqJXzDMBbcfDX+nVh6d9LcPDX/NgMWBUdQn+SZQFIZX1P4B3ROdRZlzWjwbeiQwD/Bfg/0SGkCXpGKqqXRIdQK8sCALyfdpMKaV26cPdPMx7+O3AocEN0FmmCzktFtVV0CGVYAFJZPwE4IjqHOusXwF9Gh7hdMx5eRvsioDQv7gucHB1CmRWAhf3+u/Bmt7rrQ81ocHN0iLU14+GngY9F55Am6M9SUd0rOkTusioAwOuAh0WHUGddD3w0OsR6nAD8fXQIaUK2Ac6NDpG7bJYBprLeCfgJsFt0FnXWx5rR4A3RIdYnFdVewHdp11RL8+BJzXh4SXSIXOU0A/BuHPy1fg0dX6LUjIfX0O4KeGt0FmlCPCcgUBZ/8KmsHwy8KTqHOu3rzWjww+gQG9OMh98ETovOIU3IgcAx0SFylUUBoL2zc79/bUgnlv4tRjMengN8JTqHNCHvSUW1c3SIHM19AUhlfQjw9Ogc6rQrmtHgG9Ehlug1wI+jQ0gTsCtwZnSIHM11AUhlvRVwXnQOdd6F0QGWqhkPfw8cAvwxOos0AW9MRXVAdIjczHUBAE4B9o4OoU77FfC56BDL0YyH38dz1jUfNsU9WmZubgtAKuu9gFOjc6jzPtKMBr3darcZD79ID2cwpHV4aiqqw6JD5GRuCwDtJhPbRIdQp90IfDg6xAScAriWWvPgA6moto4OkYu5LACprJ8EvCw6hzrv881o8MvoECvVjIe3AC+lPcdA6rP7AG+LDpGLuSsAqax9lqTFmpup82Y8/BfaEtCpcwykZXh7Kqp7R4fIwdwVANpNJR4aHUKd981mNLg8OsQkNePh/6B9HCD12dbAB6JD5GCuCkAq612AcXQO9UJvNv5ZimY8XAV8ITqHtELDVFRPiQ4x7+aqANBuJrFrdAh13pXAxdEhpmgEXBEdQlqh1amoNo0OMc/mpgCksh4AnT3JTZ2yqhkN5vYYzGY8/CPtJkG/j84irYA/06dsbgoA7Yt/tkVtzG+Az0SHmLZmPPwJ8CraUw6lvjozFZWzulMyFwUglfUQeEp0DvXCx5vR4LroELPQjIcXAWdH55BWwPe6pqj3BSCVtW+MarFuBj4YHWLGCuC/RYeQVuCYVFSu7JqC3hcA4O2Aa0a1GH/VjAY/jw4xS814eCtwOHBNdBZpmTalPdJdE9brApDK2l2jtBRzufRvY5rx8N+AQ2m3Ppb66MmpqF4aHWLe9LoA0E79u2+0FuOSZjT4bnSIKM14+A/ACdE5pBX4QCoqz3eZoN4WgFTWTwU8OUqLleXd/9qa8fDjwKeic0jL5AmvE9bLAuB+/1qiq4CLokN0xJuA70WH4aHnTwAAEQBJREFUkJbplFRUe0eHmBe9LADAG4EDokOoN1Y3o8Ft0SG6oBkPb6B9H+A30VmkZdgKOC86xLzoXQFIZb0r7Za/0mL8DvhkdIguacbDfwKOBCxF6qNDUlE9PTrEPOhdAQDeA+wcHUK98YlmNPhDdIiuacbDrwPvjs4hLdOqVFSbRYfou14VgFTWB9Ie9ystxq3AmugQHTYG/p/oENIyPJj2UbBWoFcFgPbFv75lVpwvN6PB1dEhuqoZDxvgFbQvSUp9c2Yqqt2iQ/RZbwbTVNYvB54YnUO9kv3Sv41pxsPf0p4ceH10FmmJdgLeGx2iz1LTdP+wsFTW29Ce4X6v6CzqjUub0eAx0SH6IhXVq8jglETNnduARzTj4WXRQfqoLzMAf4aDv5bGu/8laMbDvwA+HJ1DWqJNcE+YZet8AUhlfV/g5Ogc6pVrgC9Fh+ihtwD/KzqEtERPSEV1eHSIPup8AaDd9GGr6BDqlTXNaHBLdIi+acbDm2i31/7X6CzSEp2bimrb6BB90+kCkMr6GcBLonOoV64FyugQfdWMhz8HXk67hFLqi3vSPirWEnS2AKSy3gzPgNbSfaoZDX4bHaLPmvHwb/GHqfrn5FRU+0SH6JPOFgDgWGD/6BDqldvwhaCJaMbDc/E9CvXLlsD50SH6pJMFIJX13YB3RedQ73y1GQ1+Gh1ijhwF/Cg6hLQEL0pF9czoEH3RyQJAu7nDTtEh1Dsu/ZugZjz8A+0mQddGZ5GWwHMCFqlzBSCV9UHAa6NzqHcua0aDb0WHmDfNePhD4OjoHNISPAg4LjpEH3SuAOB+/1oe7/6npBkPK3y2qn55Vyqqu0WH6LpODbSprI8EHh+dQ73zC+Avo0PMubcDzrCoL3YEzooO0XWdKQCprLcF3h+dQ730oWY0uDk6xDxrxsNbgJcB/xydRVqko1NRPTw6RJd1pgAApwH3iA6h3rke+Gh0iBw04+EvgSFg2VIfbAKsTkWVooN0VScKQCrr+wEnRedQL/1FMxr8OjpELprx8O+At0bnkBbpccCR0SG6qhMFgPYFoy2jQ6h3GuDC6BC5acbDNcDnonNIi3ROKqrtokN0UXgBSGX9bOCF0TnUS19vRgM3qolxDFBHh5AW4R60j5h1J6EFIJX15ngHp+Vz6V+QZjy8jnaToN9FZ5EW4aRUVPePDtE10TMAxwP7BWdQP13RjAbfiA6Rs2Y8/CnwKtpHMVKXbYF7WdxFWAFIZb078M6o66v3nDnqgGY8/M+43lr98IJUVM+JDtElkTMA7wN2CLy++utX+BJal5wB/NfoENIiXJiKavPoEF0RUgBSWT+S9qQxaTk+0owGN0SHUKsZD28DjgCujs4ibcS+wAnRIbpi5gUglXWi3e/fzRm0HDcCH44OoTtqxsNfA4fR/vuRuuyMVFR7RIfogogZgFcCjwm4rubD55vR4JfRIXRXzXj4HTyFTd23A+0j6OzNtACkst4eOHuW19Tc8eW/DmvGw08Afx6dQ9qI16SiemR0iGizngE4HdhzxtfU/PhmMxpcHh1CG3Us8N3oENIGJGBN7ucEzKwApLJ+APDmWV1Pc8mNf3qgGQ9vBA4FPKNBXfZo2n0ssjXLGYALaDdjkJbjSuDi6BBanGY8vJp2ZcBt0VmkDTg7FdX20SGizKQApLI+GHjeLK6lubWqGQ3cca5HmvHwv+JmX+q2uwNFdIgoUy8Aqay3wKlbrcxvgM9Eh9CyvBf4anQIaQNOTEX1wOgQEWYxA3AikOUfribmY81ocF10CC1dMx42tEt/fxqdRVqPbG9Sp1oAUllnPb2iibgZ+FB0CC1fMx7+jvalQEucuurgVFTZPaae9gzA2UC2L1hoIv6qGQ1+Hh1CK9OMh5cDx0TnkDbgglRUWb2oPrUCkMo6+yUWmogsp+bmUTMefg74YHQOaT2yW6o+lQKwsN//GtzvXytzSTMauKHMfDkJ+HZ0CGk9Tk9Flc1mddOaAXgNkP02i1ox7/7nTDMe3kx7aJDnOaiLstqufuIFIJW1By1oEq4CLooOoclrxsN/Bl4G3BKdRVqHV6aiyuLAumnMAJwBeNSiVmp1Mxq4i9ycasbDbwGnRueQ1iEBq3M4J2CiBSCV9b7ACZP8TGXpd8Ano0Nouprx8Dygis4hrcMjgaOiQ0zbpGcALgQ2n/BnKj+faEaDP0SH0EwcDfwwOoS0DmelotohOsQ0TawApLJ+AfCcSX2esnUr7QoSZaAZD68FDgEsfOqaPZjzsyxS06z8fJWF/f6/D9x/xR+m3FXNaPDS6BCarVRUhwL/KTqHdCc3Aw9pxsMfRQeZhknNAJyEg78mw6V/GWrGwy8BH4jOId3J5rSPtufSigtAKut7AKdNIIt0aTMauElMvk4F/t/oENKdPDsV1QuiQ0zDJGYAzgG2m8DnSN79Z6wZD2+l3R/Asx/UNRekotoyOsSkragApLJ+HHDkhLIob9cAX4oOoVjNePivtDsF3hSdRVrL/Wgfdc+VZReAVNabAKtxv39NxppmNHBnONGMh/8LeEt0DulO3pGK6h7RISZpJTMARwMPn1QQZe1aoIwOoe5oxsMPA5+NziGtZTvg/dEhJmlZBSCV9Y7AWRPOonx9qhkNfhsdQp3zeuD/iw4hreXIVFSPiw4xKcudAXgXcLcJ5lC+bqN9lCTdQTMeXg8cClgO1SVrUlFN6yTdmVry/4lU1g8CjptCFuXpq81o8NPoEOqmZjz8R+CVwMp3LJMm4yDaR+C9t5wWswrYbNJBlC2X/mmDmvHwr4H3ROeQ1nJWKqqdokOs1JIKQCrrFwPPnFIW5eeyZjT4VnQI9cK7gP8SHUJacDfav5O9tugCkMp6S+C8KWZRfrz716I04+FtwBHAPwVHkW53bCqq/aNDrMRSZgBOBvaZVhBl5xfAX0aHUH804+FvaF8KvCE6i0T7KHxVdIiVWFQBSGV9L+DPppxFeflQMxrcHB1C/dKMh98Djo3OIS14RiqqF0eHWK7FzgC8H9h2mkGUleuBj0aHUD814+EnceModcf5qai2ig6xHBstAKmsnwAcPoMsysdfNKPBr6NDqNeOB/4hOoQE3Bd4a3SI5dhgAVjY73/NjLIoDw1zfL62ZqMZD2+kPTTo36KzSLTnBNwrOsRSbWwGYAQcOIsgysbXm9HgR9Eh1H/NePh/aWcnb4vOouxtA5wbHWKp1lsAUlnvjJtvaPJc+qeJacbD/wacHp1DAl6eiuqJ0SGWYkMzAO8GdptVEGXhimY0+EZ0CM2ds4GLokNIwOo+nROwzqCprA8A3jjjLJp/PvvXxDXjYQO8GvhJdBZl70DaR+e9sL6m4n7/mrRfAZ+LDqH51IyHvwMOAa6LzqLsvScV1c7RIRbjLgUglfWhwNMCsmi+fbgZDdzBTVPTjIdXAK+LzqHs7Ub7CL3z7lAAUllvBXwgKIvm143AR6JDaP414+EXgNXROZS9N6WiOiA6xMbceQbgbcDeATk03z7fjAa/jA6hbJwM/M/oEMrapvTgnID/KACprO8NvD0wi+aXL/9pZprx8GZgCPxLdBZl7WmpqA6NDrEha88AnEu7mYE0Sd9sRoPLo0MoL814+AvgpcAt0VmUtfNSUW0dHWJ9NgFIZf1k2v9YpElz4x+FaMbDS2gfa0pR7gOcEh1ifTZJZb0pvjSj6bgSuDg6hPLVjIcXAF+MzqGsnZqK6t7RIdZlE+D1wEOig2gurWpGgyY6hLL3WuAH0SGUra3p6DkBiY9ffjywa3QQzZ0GOLcZDdyYReFSUe0L/D2wQ3QWZespzXj4regQa0tN4w2apPmXiuoQ4EvROZSty4GDmvHw1uggt+vNoQWStBLNePhl4P3ROZSth9A+cu8MC4CknLwD+JvoEMrWOBXVLtEhbmcBkJSNhenXlwM/i86iLO0CjKND3M53ACRlJxXVo4H/DmwRnUXZuZX2XYDwDdKcAZCUnWY8vBQ4MTqHstSZvXcsAJKy1IyHHwU+E51DWXpyKqrw3XctAJJy9kbgf0eHUJbOjT4nwAIgKVvNeHg9cAjw79FZlJ17A6dGBvAlQEnZS0V1MPDXQIrOoqzcAOzXjIdXR1zcGQBJ2WvGw4uBM6NzKDtbAedFXdwCIEmtM4GvRYdQdg5NRfW0iAv7CECSFqSi2hn4LnDf6CzKyhXAgbM+J8AZAEla0IyH/w4cSvtsVpqVA4A3zfqizgBI0p2konoN8KnoHMrKvwMPbMbDf5vVBZ0BkKQ7acbDTwMfi86hrOwMvGeWF7QASNK6nQD8fXQIZWWUiurAWV3MAiBJ69CMhzcBhwG/is6ibGzCDM8JsABI0no04+E1wOG0J7hJs/DEVFSHz+JCFgBJ2oBmPPwmcFp0DmXl/amotp32RSwAkrQRzXh4DvCV6BzKxr2AP5v2RSwAkrQ4rwF+HB1C2XhrKqqpbkhlAZCkRWjGw9/Tnhz4x+gsysJWwPnTvIAFQJIWqRkPvw+8NjqHsvHiVFTPnNaHWwAkaQma8fCLwIXROZSNC1NRbTaND7YASNLSnQJcEh1CWdgfOG4aH+xZAJK0DKmo7g58D9gzOovm3u+ABzTj4UQ3pXIGQJKWoRkP/wV4KXBLdBbNvR2Bsyb9oRYASVqmZjz8H8DJ0TmUhaNTUT18kh9oAZCkFWjGw1XAF6JzaO5N/JwAC4AkrdwIuCI6hObe41JRHTmpD/MlQEmagFRUDwC+A+wQnUVz7Z+BfZvx8NqVftBU1haq+1JRvQ/fXpYm7We0y7akabkH7eFUKz4rwBmATKWi+hGwb3QOSdKS3Qg8uBkP/3ElH+I7AJIk9cuWwAUr/RALgCRJ/fOCVFTPXskHWAAkSeqnC1NRbb7cb7YASJLUT/sBxy/3my0AkiT11ztTUe2xnG+0AEiS1F87AO9bzjdaACRJ6rfXpKJ65FK/yQIgSVK/JWB1Kqq0lG+yAEiS1H+PAV65lG+wAEiSNB/OTkW1/WK/2AIgSdJ82BM4fbFfbAGQJGl+vHnhZMqNsgBIkjQ/tmCR5wRYACRJmi/PS0V18Ma+yAIgSdL8uSAV1RYb+gILgCRJ8+eBwIkb+gILgCRJ86lIRXX39f2mBUCSpPm0PXD2+n7TAiBJ0vx6VSqqR6/rNywAkiTNrwSsWdc5ARYASZLm2yOB19z5Fy0AkiTNv/elotph7V+wAEiSNP/2AM5Y+xcsAJIk5eGEVFT73v4PFgBJkvKwOXDh7f9gAZAkKR/PSUX1ArAASJKUm/NTUW1hAZAkKS/3B07aLDqFwrwT2Dk6hCQpxB9S0zTRISRJ0oz5CECSpAxZACRJypAFQJKkDFkAJEnKkAVAkqQMWQAkScqQBUCSpAxZACRJypAFQJKkDFkAJEnKkAVAkqQMWQAkScqQBUCSpAxZACRJypAFQJKkDFkAJEnKkAVAkqQMWQAkScqQBUCSpAxZACRJypAFQJKkDFkAJEnKkAVAkqQMWQAkScqQBUCSpAxZACRJypAFQJKkDFkAJEnKkAVAkqQMWQAkScqQBUCSpAxZACRJypAFQJKkDFkAJEnKkAVAkqQMWQAkScqQBUCSpAxZACRJypAFQJKkDFkAJEnKkAVAkqQMWQAkScqQBUCSpAxZACRJypAFQJKkDFkAJEnKkAVAkqQMWQAkScqQBUCSpAxZACRJypAFQJKkDFkAJEnKkAVAkqQMWQAkScqQBUCSpAxZACRJypAFQJKkDFkAJEnKkAVAkqQMWQAkScqQBUCSpAxZACRJypAFQJKkDFkAJEnKkAVAkqQMWQAkScqQBUCSpAxZACRJytD/D4ZLoTHjTUywAAAAAElFTkSuQmCC;rounded=0;labelBackgroundColor=#ABABAB;fontSize=11;fontColor=#000000;html=1;" vertex="1" parent="1">
          <mxGeometry x="80" y="40" width="40" height="40" as="geometry" />
        </mxCell>
        <mxCell id="66uHyciYdJMsds9IyZAx-80" value="Portal Topic" style="text;html=1;strokeColor=none;fillColor=none;align=center;verticalAlign=middle;whiteSpace=wrap;rounded=0;" vertex="1" parent="1">
          <mxGeometry x="126.4" y="150" width="40" height="20" as="geometry" />
        </mxCell>
      </root>
    </mxGraphModel>
  </diagram>
</mxfile>
